<svg width="696" height="322" viewBox="0 0 696 322" fill="none" xmlns="http://www.w3.org/2000/svg">
<rect width="696" height="322" fill="white"/>
<path d="M124.801 262.119C124.443 262.114 124.085 262.045 123.727 261.915C123.369 261.784 123.043 261.564 122.747 261.254C122.452 260.942 122.214 260.52 122.036 259.989C121.857 259.455 121.767 258.784 121.767 257.977C121.767 257.205 121.839 256.52 121.984 255.923C122.129 255.324 122.339 254.82 122.615 254.411C122.891 253.999 123.223 253.686 123.612 253.473C124.004 253.26 124.446 253.153 124.938 253.153C125.426 253.153 125.861 253.251 126.241 253.447C126.625 253.641 126.938 253.911 127.179 254.257C127.42 254.604 127.577 255.003 127.648 255.455H126.608C126.511 255.062 126.324 254.737 126.045 254.479C125.767 254.22 125.398 254.091 124.938 254.091C124.261 254.091 123.729 254.385 123.339 254.973C122.953 255.561 122.759 256.386 122.756 257.449H122.824C122.983 257.207 123.172 257.001 123.391 256.831C123.612 256.658 123.857 256.524 124.124 256.43C124.391 256.337 124.673 256.29 124.972 256.29C125.472 256.29 125.929 256.415 126.344 256.665C126.759 256.912 127.091 257.254 127.341 257.692C127.591 258.126 127.716 258.625 127.716 259.188C127.716 259.727 127.595 260.222 127.354 260.67C127.112 261.116 126.773 261.472 126.335 261.736C125.901 261.997 125.389 262.125 124.801 262.119ZM124.801 261.182C125.159 261.182 125.48 261.092 125.764 260.913C126.051 260.734 126.277 260.494 126.442 260.193C126.609 259.892 126.693 259.557 126.693 259.188C126.693 258.827 126.612 258.499 126.45 258.203C126.291 257.905 126.071 257.668 125.79 257.491C125.511 257.315 125.193 257.227 124.835 257.227C124.565 257.227 124.314 257.281 124.081 257.389C123.848 257.494 123.643 257.639 123.467 257.824C123.294 258.009 123.158 258.22 123.058 258.459C122.959 258.695 122.909 258.943 122.909 259.205C122.909 259.551 122.99 259.875 123.152 260.176C123.317 260.477 123.541 260.72 123.825 260.905C124.112 261.089 124.438 261.182 124.801 261.182ZM129.392 262V261.233L132.272 258.08C132.61 257.71 132.889 257.389 133.108 257.116C133.326 256.841 133.488 256.582 133.593 256.341C133.701 256.097 133.755 255.841 133.755 255.574C133.755 255.267 133.681 255.001 133.534 254.777C133.389 254.553 133.19 254.379 132.937 254.257C132.684 254.135 132.4 254.074 132.085 254.074C131.75 254.074 131.457 254.143 131.207 254.283C130.96 254.419 130.768 254.611 130.632 254.858C130.498 255.105 130.431 255.395 130.431 255.727H129.426C129.426 255.216 129.544 254.767 129.779 254.381C130.015 253.994 130.336 253.693 130.743 253.477C131.152 253.261 131.61 253.153 132.119 253.153C132.63 253.153 133.083 253.261 133.478 253.477C133.873 253.693 134.183 253.984 134.407 254.351C134.632 254.717 134.744 255.125 134.744 255.574C134.744 255.895 134.686 256.209 134.569 256.516C134.456 256.82 134.257 257.159 133.973 257.534C133.691 257.906 133.301 258.361 132.801 258.898L130.841 260.994V261.062H134.897V262H129.392Z" fill="black"/>
<path d="M367.801 262.119C367.443 262.114 367.085 262.045 366.727 261.915C366.369 261.784 366.043 261.564 365.747 261.254C365.452 260.942 365.214 260.52 365.036 259.989C364.857 259.455 364.767 258.784 364.767 257.977C364.767 257.205 364.839 256.52 364.984 255.923C365.129 255.324 365.339 254.82 365.615 254.411C365.891 253.999 366.223 253.686 366.612 253.473C367.004 253.26 367.446 253.153 367.938 253.153C368.426 253.153 368.861 253.251 369.241 253.447C369.625 253.641 369.938 253.911 370.179 254.257C370.42 254.604 370.577 255.003 370.648 255.455H369.608C369.511 255.062 369.324 254.737 369.045 254.479C368.767 254.22 368.398 254.091 367.938 254.091C367.261 254.091 366.729 254.385 366.339 254.973C365.953 255.561 365.759 256.386 365.756 257.449H365.824C365.983 257.207 366.172 257.001 366.391 256.831C366.612 256.658 366.857 256.524 367.124 256.43C367.391 256.337 367.673 256.29 367.972 256.29C368.472 256.29 368.929 256.415 369.344 256.665C369.759 256.912 370.091 257.254 370.341 257.692C370.591 258.126 370.716 258.625 370.716 259.188C370.716 259.727 370.595 260.222 370.354 260.67C370.112 261.116 369.773 261.472 369.335 261.736C368.901 261.997 368.389 262.125 367.801 262.119ZM367.801 261.182C368.159 261.182 368.48 261.092 368.764 260.913C369.051 260.734 369.277 260.494 369.442 260.193C369.609 259.892 369.693 259.557 369.693 259.188C369.693 258.827 369.612 258.499 369.45 258.203C369.291 257.905 369.071 257.668 368.79 257.491C368.511 257.315 368.193 257.227 367.835 257.227C367.565 257.227 367.314 257.281 367.081 257.389C366.848 257.494 366.643 257.639 366.467 257.824C366.294 258.009 366.158 258.22 366.058 258.459C365.959 258.695 365.909 258.943 365.909 259.205C365.909 259.551 365.99 259.875 366.152 260.176C366.317 260.477 366.541 260.72 366.825 260.905C367.112 261.089 367.438 261.182 367.801 261.182ZM372.392 262V261.233L375.272 258.08C375.61 257.71 375.889 257.389 376.108 257.116C376.326 256.841 376.488 256.582 376.593 256.341C376.701 256.097 376.755 255.841 376.755 255.574C376.755 255.267 376.681 255.001 376.534 254.777C376.389 254.553 376.19 254.379 375.937 254.257C375.684 254.135 375.4 254.074 375.085 254.074C374.75 254.074 374.457 254.143 374.207 254.283C373.96 254.419 373.768 254.611 373.632 254.858C373.498 255.105 373.431 255.395 373.431 255.727H372.426C372.426 255.216 372.544 254.767 372.779 254.381C373.015 253.994 373.336 253.693 373.743 253.477C374.152 253.261 374.61 253.153 375.119 253.153C375.63 253.153 376.083 253.261 376.478 253.477C376.873 253.693 377.183 253.984 377.407 254.351C377.632 254.717 377.744 255.125 377.744 255.574C377.744 255.895 377.686 256.209 377.569 256.516C377.456 256.82 377.257 257.159 376.973 257.534C376.691 257.906 376.301 258.361 375.801 258.898L373.841 260.994V261.062H377.897V262H372.392Z" fill="black"/>
<path d="M170.176 262L174.08 254.278V254.21H169.58V253.273H175.17V254.261L171.284 262H170.176ZM179.509 262.119C178.946 262.119 178.445 262.023 178.004 261.83C177.567 261.636 177.219 261.368 176.96 261.024C176.705 260.678 176.565 260.276 176.543 259.818H177.616C177.639 260.099 177.736 260.342 177.906 260.547C178.077 260.749 178.3 260.905 178.575 261.016C178.851 261.126 179.156 261.182 179.491 261.182C179.866 261.182 180.199 261.116 180.489 260.986C180.778 260.855 181.006 260.673 181.17 260.44C181.335 260.207 181.418 259.938 181.418 259.631C181.418 259.31 181.338 259.027 181.179 258.783C181.02 258.536 180.787 258.342 180.48 258.203C180.173 258.064 179.798 257.994 179.355 257.994H178.656V257.057H179.355C179.702 257.057 180.006 256.994 180.267 256.869C180.531 256.744 180.737 256.568 180.885 256.341C181.036 256.114 181.111 255.847 181.111 255.54C181.111 255.244 181.045 254.987 180.915 254.768C180.784 254.55 180.599 254.379 180.361 254.257C180.125 254.135 179.847 254.074 179.526 254.074C179.224 254.074 178.94 254.129 178.673 254.24C178.409 254.348 178.193 254.506 178.026 254.713C177.858 254.918 177.767 255.165 177.753 255.455H176.73C176.747 254.997 176.885 254.597 177.143 254.253C177.402 253.906 177.74 253.636 178.158 253.443C178.578 253.25 179.04 253.153 179.543 253.153C180.082 253.153 180.545 253.263 180.932 253.482C181.318 253.697 181.615 253.983 181.822 254.338C182.03 254.693 182.134 255.077 182.134 255.489C182.134 255.98 182.004 256.399 181.746 256.746C181.49 257.092 181.142 257.332 180.702 257.466V257.534C181.253 257.625 181.683 257.859 181.993 258.237C182.303 258.612 182.457 259.077 182.457 259.631C182.457 260.105 182.328 260.531 182.07 260.909C181.814 261.284 181.464 261.58 181.021 261.795C180.578 262.011 180.074 262.119 179.509 262.119Z" fill="black"/>
<path d="M413.176 262L417.08 254.278V254.21H412.58V253.273H418.17V254.261L414.284 262H413.176ZM422.509 262.119C421.946 262.119 421.445 262.023 421.004 261.83C420.567 261.636 420.219 261.368 419.96 261.024C419.705 260.678 419.565 260.276 419.543 259.818H420.616C420.639 260.099 420.736 260.342 420.906 260.547C421.077 260.749 421.3 260.905 421.575 261.016C421.851 261.126 422.156 261.182 422.491 261.182C422.866 261.182 423.199 261.116 423.489 260.986C423.778 260.855 424.006 260.673 424.17 260.44C424.335 260.207 424.418 259.938 424.418 259.631C424.418 259.31 424.338 259.027 424.179 258.783C424.02 258.536 423.787 258.342 423.48 258.203C423.173 258.064 422.798 257.994 422.355 257.994H421.656V257.057H422.355C422.702 257.057 423.006 256.994 423.267 256.869C423.531 256.744 423.737 256.568 423.885 256.341C424.036 256.114 424.111 255.847 424.111 255.54C424.111 255.244 424.045 254.987 423.915 254.768C423.784 254.55 423.599 254.379 423.361 254.257C423.125 254.135 422.847 254.074 422.526 254.074C422.224 254.074 421.94 254.129 421.673 254.24C421.409 254.348 421.193 254.506 421.026 254.713C420.858 254.918 420.767 255.165 420.753 255.455H419.73C419.747 254.997 419.885 254.597 420.143 254.253C420.402 253.906 420.74 253.636 421.158 253.443C421.578 253.25 422.04 253.153 422.543 253.153C423.082 253.153 423.545 253.263 423.932 253.482C424.318 253.697 424.615 253.983 424.822 254.338C425.03 254.693 425.134 255.077 425.134 255.489C425.134 255.98 425.004 256.399 424.746 256.746C424.49 257.092 424.142 257.332 423.702 257.466V257.534C424.253 257.625 424.683 257.859 424.993 258.237C425.303 258.612 425.457 259.077 425.457 259.631C425.457 260.105 425.328 260.531 425.07 260.909C424.814 261.284 424.464 261.58 424.021 261.795C423.578 262.011 423.074 262.119 422.509 262.119Z" fill="black"/>
<path d="M220.699 262.119C220.114 262.119 219.597 262.016 219.148 261.808C218.702 261.598 218.354 261.31 218.104 260.943C217.854 260.574 217.73 260.153 217.733 259.682C217.73 259.312 217.803 258.972 217.95 258.659C218.098 258.344 218.3 258.081 218.555 257.871C218.814 257.658 219.102 257.523 219.42 257.466V257.415C219.003 257.307 218.67 257.072 218.423 256.712C218.176 256.348 218.054 255.935 218.057 255.472C218.054 255.028 218.166 254.632 218.393 254.283C218.621 253.933 218.933 253.658 219.331 253.456C219.732 253.254 220.188 253.153 220.699 253.153C221.205 253.153 221.656 253.254 222.054 253.456C222.452 253.658 222.764 253.933 222.991 254.283C223.222 254.632 223.338 255.028 223.341 255.472C223.338 255.935 223.212 256.348 222.962 256.712C222.714 257.072 222.386 257.307 221.977 257.415V257.466C222.293 257.523 222.577 257.658 222.83 257.871C223.082 258.081 223.284 258.344 223.435 258.659C223.585 258.972 223.662 259.312 223.665 259.682C223.662 260.153 223.534 260.574 223.281 260.943C223.031 261.31 222.683 261.598 222.237 261.808C221.794 262.016 221.281 262.119 220.699 262.119ZM220.699 261.182C221.094 261.182 221.435 261.118 221.722 260.99C222.009 260.862 222.23 260.682 222.386 260.449C222.543 260.216 222.622 259.943 222.625 259.631C222.622 259.301 222.537 259.01 222.369 258.757C222.202 258.504 221.973 258.305 221.683 258.161C221.396 258.016 221.068 257.943 220.699 257.943C220.327 257.943 219.994 258.016 219.702 258.161C219.412 258.305 219.183 258.504 219.016 258.757C218.851 259.01 218.77 259.301 218.773 259.631C218.77 259.943 218.845 260.216 218.999 260.449C219.155 260.682 219.378 260.862 219.668 260.99C219.957 261.118 220.301 261.182 220.699 261.182ZM220.699 257.04C221.011 257.04 221.288 256.977 221.53 256.852C221.774 256.727 221.966 256.553 222.105 256.328C222.244 256.104 222.315 255.841 222.318 255.54C222.315 255.244 222.246 254.987 222.109 254.768C221.973 254.547 221.784 254.376 221.543 254.257C221.301 254.135 221.02 254.074 220.699 254.074C220.372 254.074 220.087 254.135 219.842 254.257C219.598 254.376 219.409 254.547 219.276 254.768C219.142 254.987 219.077 255.244 219.08 255.54C219.077 255.841 219.143 256.104 219.28 256.328C219.419 256.553 219.611 256.727 219.855 256.852C220.099 256.977 220.381 257.04 220.699 257.04ZM228.247 262.119C227.684 262.119 227.183 262.023 226.743 261.83C226.305 261.636 225.957 261.368 225.699 261.024C225.443 260.678 225.304 260.276 225.281 259.818H226.355C226.377 260.099 226.474 260.342 226.645 260.547C226.815 260.749 227.038 260.905 227.314 261.016C227.589 261.126 227.895 261.182 228.23 261.182C228.605 261.182 228.937 261.116 229.227 260.986C229.517 260.855 229.744 260.673 229.909 260.44C230.074 260.207 230.156 259.938 230.156 259.631C230.156 259.31 230.076 259.027 229.917 258.783C229.758 258.536 229.525 258.342 229.218 258.203C228.912 258.064 228.537 257.994 228.093 257.994H227.395V257.057H228.093C228.44 257.057 228.744 256.994 229.005 256.869C229.27 256.744 229.475 256.568 229.623 256.341C229.774 256.114 229.849 255.847 229.849 255.54C229.849 255.244 229.784 254.987 229.653 254.768C229.522 254.55 229.338 254.379 229.099 254.257C228.863 254.135 228.585 254.074 228.264 254.074C227.963 254.074 227.679 254.129 227.412 254.24C227.147 254.348 226.931 254.506 226.764 254.713C226.596 254.918 226.505 255.165 226.491 255.455H225.468C225.485 254.997 225.623 254.597 225.882 254.253C226.14 253.906 226.478 253.636 226.896 253.443C227.316 253.25 227.778 253.153 228.281 253.153C228.821 253.153 229.284 253.263 229.67 253.482C230.056 253.697 230.353 253.983 230.561 254.338C230.768 254.693 230.872 255.077 230.872 255.489C230.872 255.98 230.743 256.399 230.484 256.746C230.228 257.092 229.88 257.332 229.44 257.466V257.534C229.991 257.625 230.422 257.859 230.731 258.237C231.041 258.612 231.196 259.077 231.196 259.631C231.196 260.105 231.066 260.531 230.808 260.909C230.552 261.284 230.203 261.58 229.76 261.795C229.316 262.011 228.812 262.119 228.247 262.119Z" fill="black"/>
<path d="M463.699 262.119C463.114 262.119 462.597 262.016 462.148 261.808C461.702 261.598 461.354 261.31 461.104 260.943C460.854 260.574 460.73 260.153 460.733 259.682C460.73 259.312 460.803 258.972 460.95 258.659C461.098 258.344 461.3 258.081 461.555 257.871C461.814 257.658 462.102 257.523 462.42 257.466V257.415C462.003 257.307 461.67 257.072 461.423 256.712C461.176 256.348 461.054 255.935 461.057 255.472C461.054 255.028 461.166 254.632 461.393 254.283C461.621 253.933 461.933 253.658 462.331 253.456C462.732 253.254 463.188 253.153 463.699 253.153C464.205 253.153 464.656 253.254 465.054 253.456C465.452 253.658 465.764 253.933 465.991 254.283C466.222 254.632 466.338 255.028 466.341 255.472C466.338 255.935 466.212 256.348 465.962 256.712C465.714 257.072 465.386 257.307 464.977 257.415V257.466C465.293 257.523 465.577 257.658 465.83 257.871C466.082 258.081 466.284 258.344 466.435 258.659C466.585 258.972 466.662 259.312 466.665 259.682C466.662 260.153 466.534 260.574 466.281 260.943C466.031 261.31 465.683 261.598 465.237 261.808C464.794 262.016 464.281 262.119 463.699 262.119ZM463.699 261.182C464.094 261.182 464.435 261.118 464.722 260.99C465.009 260.862 465.23 260.682 465.386 260.449C465.543 260.216 465.622 259.943 465.625 259.631C465.622 259.301 465.537 259.01 465.369 258.757C465.202 258.504 464.973 258.305 464.683 258.161C464.396 258.016 464.068 257.943 463.699 257.943C463.327 257.943 462.994 258.016 462.702 258.161C462.412 258.305 462.183 258.504 462.016 258.757C461.851 259.01 461.77 259.301 461.773 259.631C461.77 259.943 461.845 260.216 461.999 260.449C462.155 260.682 462.378 260.862 462.668 260.99C462.957 261.118 463.301 261.182 463.699 261.182ZM463.699 257.04C464.011 257.04 464.288 256.977 464.53 256.852C464.774 256.727 464.966 256.553 465.105 256.328C465.244 256.104 465.315 255.841 465.318 255.54C465.315 255.244 465.246 254.987 465.109 254.768C464.973 254.547 464.784 254.376 464.543 254.257C464.301 254.135 464.02 254.074 463.699 254.074C463.372 254.074 463.087 254.135 462.842 254.257C462.598 254.376 462.409 254.547 462.276 254.768C462.142 254.987 462.077 255.244 462.08 255.54C462.077 255.841 462.143 256.104 462.28 256.328C462.419 256.553 462.611 256.727 462.855 256.852C463.099 256.977 463.381 257.04 463.699 257.04ZM471.247 262.119C470.684 262.119 470.183 262.023 469.743 261.83C469.305 261.636 468.957 261.368 468.699 261.024C468.443 260.678 468.304 260.276 468.281 259.818H469.355C469.377 260.099 469.474 260.342 469.645 260.547C469.815 260.749 470.038 260.905 470.314 261.016C470.589 261.126 470.895 261.182 471.23 261.182C471.605 261.182 471.937 261.116 472.227 260.986C472.517 260.855 472.744 260.673 472.909 260.44C473.074 260.207 473.156 259.938 473.156 259.631C473.156 259.31 473.076 259.027 472.917 258.783C472.758 258.536 472.525 258.342 472.218 258.203C471.912 258.064 471.537 257.994 471.093 257.994H470.395V257.057H471.093C471.44 257.057 471.744 256.994 472.005 256.869C472.27 256.744 472.475 256.568 472.623 256.341C472.774 256.114 472.849 255.847 472.849 255.54C472.849 255.244 472.784 254.987 472.653 254.768C472.522 254.55 472.338 254.379 472.099 254.257C471.863 254.135 471.585 254.074 471.264 254.074C470.963 254.074 470.679 254.129 470.412 254.24C470.147 254.348 469.931 254.506 469.764 254.713C469.596 254.918 469.505 255.165 469.491 255.455H468.468C468.485 254.997 468.623 254.597 468.882 254.253C469.14 253.906 469.478 253.636 469.896 253.443C470.316 253.25 470.778 253.153 471.281 253.153C471.821 253.153 472.284 253.263 472.67 253.482C473.056 253.697 473.353 253.983 473.561 254.338C473.768 254.693 473.872 255.077 473.872 255.489C473.872 255.98 473.743 256.399 473.484 256.746C473.228 257.092 472.88 257.332 472.44 257.466V257.534C472.991 257.625 473.422 257.859 473.731 258.237C474.041 258.612 474.196 259.077 474.196 259.631C474.196 260.105 474.066 260.531 473.808 260.909C473.552 261.284 473.203 261.58 472.76 261.795C472.316 262.011 471.812 262.119 471.247 262.119Z" fill="black"/>
<path d="M269.682 253.153C270.04 253.156 270.398 253.224 270.756 253.358C271.114 253.491 271.44 253.713 271.736 254.023C272.031 254.33 272.268 254.749 272.447 255.28C272.626 255.811 272.716 256.477 272.716 257.278C272.716 258.054 272.642 258.743 272.494 259.345C272.349 259.945 272.139 260.45 271.864 260.862C271.591 261.274 271.259 261.587 270.866 261.8C270.477 262.013 270.037 262.119 269.545 262.119C269.057 262.119 268.621 262.023 268.237 261.83C267.857 261.634 267.544 261.362 267.3 261.016C267.058 260.666 266.903 260.261 266.835 259.801H267.875C267.969 260.202 268.155 260.533 268.433 260.794C268.714 261.053 269.085 261.182 269.545 261.182C270.219 261.182 270.75 260.888 271.139 260.3C271.531 259.712 271.727 258.881 271.727 257.807H271.659C271.5 258.045 271.311 258.251 271.092 258.425C270.874 258.598 270.631 258.732 270.364 258.825C270.097 258.919 269.813 258.966 269.511 258.966C269.011 258.966 268.553 258.842 268.135 258.595C267.72 258.345 267.388 258.003 267.138 257.568C266.891 257.131 266.767 256.631 266.767 256.068C266.767 255.534 266.886 255.045 267.125 254.602C267.366 254.156 267.705 253.801 268.139 253.537C268.577 253.273 269.091 253.145 269.682 253.153ZM269.682 254.091C269.324 254.091 269.001 254.18 268.714 254.359C268.43 254.536 268.205 254.774 268.037 255.075C267.872 255.374 267.79 255.705 267.79 256.068C267.79 256.432 267.869 256.763 268.028 257.061C268.19 257.357 268.411 257.592 268.689 257.768C268.97 257.942 269.29 258.028 269.648 258.028C269.918 258.028 270.169 257.976 270.402 257.871C270.635 257.763 270.838 257.616 271.011 257.432C271.188 257.244 271.325 257.033 271.425 256.797C271.524 256.558 271.574 256.31 271.574 256.051C271.574 255.71 271.491 255.391 271.327 255.092C271.165 254.794 270.94 254.553 270.653 254.368C270.369 254.183 270.045 254.091 269.682 254.091ZM277.289 262.119C276.931 262.114 276.574 262.045 276.216 261.915C275.858 261.784 275.531 261.564 275.235 261.254C274.94 260.942 274.703 260.52 274.524 259.989C274.345 259.455 274.255 258.784 274.255 257.977C274.255 257.205 274.328 256.52 274.473 255.923C274.618 255.324 274.828 254.82 275.103 254.411C275.379 253.999 275.711 253.686 276.1 253.473C276.493 253.26 276.934 253.153 277.426 253.153C277.914 253.153 278.349 253.251 278.73 253.447C279.113 253.641 279.426 253.911 279.667 254.257C279.909 254.604 280.065 255.003 280.136 255.455H279.096C279 255.062 278.812 254.737 278.534 254.479C278.255 254.22 277.886 254.091 277.426 254.091C276.75 254.091 276.217 254.385 275.828 254.973C275.441 255.561 275.247 256.386 275.244 257.449H275.312C275.471 257.207 275.66 257.001 275.879 256.831C276.1 256.658 276.345 256.524 276.612 256.43C276.879 256.337 277.162 256.29 277.46 256.29C277.96 256.29 278.417 256.415 278.832 256.665C279.247 256.912 279.579 257.254 279.829 257.692C280.079 258.126 280.204 258.625 280.204 259.188C280.204 259.727 280.083 260.222 279.842 260.67C279.6 261.116 279.261 261.472 278.824 261.736C278.389 261.997 277.877 262.125 277.289 262.119ZM277.289 261.182C277.647 261.182 277.968 261.092 278.252 260.913C278.539 260.734 278.765 260.494 278.93 260.193C279.098 259.892 279.181 259.557 279.181 259.188C279.181 258.827 279.1 258.499 278.939 258.203C278.779 257.905 278.559 257.668 278.278 257.491C278 257.315 277.681 257.227 277.324 257.227C277.054 257.227 276.802 257.281 276.569 257.389C276.336 257.494 276.132 257.639 275.956 257.824C275.782 258.009 275.646 258.22 275.547 258.459C275.447 258.695 275.397 258.943 275.397 259.205C275.397 259.551 275.478 259.875 275.64 260.176C275.805 260.477 276.029 260.72 276.314 260.905C276.6 261.089 276.926 261.182 277.289 261.182Z" fill="black"/>
<path d="M512.682 253.153C513.04 253.156 513.398 253.224 513.756 253.358C514.114 253.491 514.44 253.713 514.736 254.023C515.031 254.33 515.268 254.749 515.447 255.28C515.626 255.811 515.716 256.477 515.716 257.278C515.716 258.054 515.642 258.743 515.494 259.345C515.349 259.945 515.139 260.45 514.864 260.862C514.591 261.274 514.259 261.587 513.866 261.8C513.477 262.013 513.037 262.119 512.545 262.119C512.057 262.119 511.621 262.023 511.237 261.83C510.857 261.634 510.544 261.362 510.3 261.016C510.058 260.666 509.903 260.261 509.835 259.801H510.875C510.969 260.202 511.155 260.533 511.433 260.794C511.714 261.053 512.085 261.182 512.545 261.182C513.219 261.182 513.75 260.888 514.139 260.3C514.531 259.712 514.727 258.881 514.727 257.807H514.659C514.5 258.045 514.311 258.251 514.092 258.425C513.874 258.598 513.631 258.732 513.364 258.825C513.097 258.919 512.813 258.966 512.511 258.966C512.011 258.966 511.553 258.842 511.135 258.595C510.72 258.345 510.388 258.003 510.138 257.568C509.891 257.131 509.767 256.631 509.767 256.068C509.767 255.534 509.886 255.045 510.125 254.602C510.366 254.156 510.705 253.801 511.139 253.537C511.577 253.273 512.091 253.145 512.682 253.153ZM512.682 254.091C512.324 254.091 512.001 254.18 511.714 254.359C511.43 254.536 511.205 254.774 511.037 255.075C510.872 255.374 510.79 255.705 510.79 256.068C510.79 256.432 510.869 256.763 511.028 257.061C511.19 257.357 511.411 257.592 511.689 257.768C511.97 257.942 512.29 258.028 512.648 258.028C512.918 258.028 513.169 257.976 513.402 257.871C513.635 257.763 513.838 257.616 514.011 257.432C514.188 257.244 514.325 257.033 514.425 256.797C514.524 256.558 514.574 256.31 514.574 256.051C514.574 255.71 514.491 255.391 514.327 255.092C514.165 254.794 513.94 254.553 513.653 254.368C513.369 254.183 513.045 254.091 512.682 254.091ZM520.289 262.119C519.931 262.114 519.574 262.045 519.216 261.915C518.858 261.784 518.531 261.564 518.235 261.254C517.94 260.942 517.703 260.52 517.524 259.989C517.345 259.455 517.255 258.784 517.255 257.977C517.255 257.205 517.328 256.52 517.473 255.923C517.618 255.324 517.828 254.82 518.103 254.411C518.379 253.999 518.711 253.686 519.1 253.473C519.493 253.26 519.934 253.153 520.426 253.153C520.914 253.153 521.349 253.251 521.73 253.447C522.113 253.641 522.426 253.911 522.667 254.257C522.909 254.604 523.065 255.003 523.136 255.455H522.096C522 255.062 521.812 254.737 521.534 254.479C521.255 254.22 520.886 254.091 520.426 254.091C519.75 254.091 519.217 254.385 518.828 254.973C518.441 255.561 518.247 256.386 518.244 257.449H518.312C518.471 257.207 518.66 257.001 518.879 256.831C519.1 256.658 519.345 256.524 519.612 256.43C519.879 256.337 520.162 256.29 520.46 256.29C520.96 256.29 521.417 256.415 521.832 256.665C522.247 256.912 522.579 257.254 522.829 257.692C523.079 258.126 523.204 258.625 523.204 259.188C523.204 259.727 523.083 260.222 522.842 260.67C522.6 261.116 522.261 261.472 521.824 261.736C521.389 261.997 520.877 262.125 520.289 262.119ZM520.289 261.182C520.647 261.182 520.968 261.092 521.252 260.913C521.539 260.734 521.765 260.494 521.93 260.193C522.098 259.892 522.181 259.557 522.181 259.188C522.181 258.827 522.1 258.499 521.939 258.203C521.779 257.905 521.559 257.668 521.278 257.491C521 257.315 520.681 257.227 520.324 257.227C520.054 257.227 519.802 257.281 519.569 257.389C519.336 257.494 519.132 257.639 518.956 257.824C518.782 258.009 518.646 258.22 518.547 258.459C518.447 258.695 518.397 258.943 518.397 259.205C518.397 259.551 518.478 259.875 518.64 260.176C518.805 260.477 519.029 260.72 519.314 260.905C519.6 261.089 519.926 261.182 520.289 261.182Z" fill="black"/>
<path d="M318.682 253.153C319.04 253.156 319.398 253.224 319.756 253.358C320.114 253.491 320.44 253.713 320.736 254.023C321.031 254.33 321.268 254.749 321.447 255.28C321.626 255.811 321.716 256.477 321.716 257.278C321.716 258.054 321.642 258.743 321.494 259.345C321.349 259.945 321.139 260.45 320.864 260.862C320.591 261.274 320.259 261.587 319.866 261.8C319.477 262.013 319.037 262.119 318.545 262.119C318.057 262.119 317.621 262.023 317.237 261.83C316.857 261.634 316.544 261.362 316.3 261.016C316.058 260.666 315.903 260.261 315.835 259.801H316.875C316.969 260.202 317.155 260.533 317.433 260.794C317.714 261.053 318.085 261.182 318.545 261.182C319.219 261.182 319.75 260.888 320.139 260.3C320.531 259.712 320.727 258.881 320.727 257.807H320.659C320.5 258.045 320.311 258.251 320.092 258.425C319.874 258.598 319.631 258.732 319.364 258.825C319.097 258.919 318.813 258.966 318.511 258.966C318.011 258.966 317.553 258.842 317.135 258.595C316.72 258.345 316.388 258.003 316.138 257.568C315.891 257.131 315.767 256.631 315.767 256.068C315.767 255.534 315.886 255.045 316.125 254.602C316.366 254.156 316.705 253.801 317.139 253.537C317.577 253.273 318.091 253.145 318.682 253.153ZM318.682 254.091C318.324 254.091 318.001 254.18 317.714 254.359C317.43 254.536 317.205 254.774 317.037 255.075C316.872 255.374 316.79 255.705 316.79 256.068C316.79 256.432 316.869 256.763 317.028 257.061C317.19 257.357 317.411 257.592 317.689 257.768C317.97 257.942 318.29 258.028 318.648 258.028C318.918 258.028 319.169 257.976 319.402 257.871C319.635 257.763 319.838 257.616 320.011 257.432C320.188 257.244 320.325 257.033 320.425 256.797C320.524 256.558 320.574 256.31 320.574 256.051C320.574 255.71 320.491 255.391 320.327 255.092C320.165 254.794 319.94 254.553 319.653 254.368C319.369 254.183 319.045 254.091 318.682 254.091ZM326.289 262.119C325.931 262.114 325.574 262.045 325.216 261.915C324.858 261.784 324.531 261.564 324.235 261.254C323.94 260.942 323.703 260.52 323.524 259.989C323.345 259.455 323.255 258.784 323.255 257.977C323.255 257.205 323.328 256.52 323.473 255.923C323.618 255.324 323.828 254.82 324.103 254.411C324.379 253.999 324.711 253.686 325.1 253.473C325.493 253.26 325.934 253.153 326.426 253.153C326.914 253.153 327.349 253.251 327.73 253.447C328.113 253.641 328.426 253.911 328.667 254.257C328.909 254.604 329.065 255.003 329.136 255.455H328.096C328 255.062 327.812 254.737 327.534 254.479C327.255 254.22 326.886 254.091 326.426 254.091C325.75 254.091 325.217 254.385 324.828 254.973C324.441 255.561 324.247 256.386 324.244 257.449H324.312C324.471 257.207 324.66 257.001 324.879 256.831C325.1 256.658 325.345 256.524 325.612 256.43C325.879 256.337 326.162 256.29 326.46 256.29C326.96 256.29 327.417 256.415 327.832 256.665C328.247 256.912 328.579 257.254 328.829 257.692C329.079 258.126 329.204 258.625 329.204 259.188C329.204 259.727 329.083 260.222 328.842 260.67C328.6 261.116 328.261 261.472 327.824 261.736C327.389 261.997 326.877 262.125 326.289 262.119ZM326.289 261.182C326.647 261.182 326.968 261.092 327.252 260.913C327.539 260.734 327.765 260.494 327.93 260.193C328.098 259.892 328.181 259.557 328.181 259.188C328.181 258.827 328.1 258.499 327.939 258.203C327.779 257.905 327.559 257.668 327.278 257.491C327 257.315 326.681 257.227 326.324 257.227C326.054 257.227 325.802 257.281 325.569 257.389C325.336 257.494 325.132 257.639 324.956 257.824C324.782 258.009 324.646 258.22 324.547 258.459C324.447 258.695 324.397 258.943 324.397 259.205C324.397 259.551 324.478 259.875 324.64 260.176C324.805 260.477 325.029 260.72 325.314 260.905C325.6 261.089 325.926 261.182 326.289 261.182Z" fill="black"/>
<path d="M561.682 253.153C562.04 253.156 562.398 253.224 562.756 253.358C563.114 253.491 563.44 253.713 563.736 254.023C564.031 254.33 564.268 254.749 564.447 255.28C564.626 255.811 564.716 256.477 564.716 257.278C564.716 258.054 564.642 258.743 564.494 259.345C564.349 259.945 564.139 260.45 563.864 260.862C563.591 261.274 563.259 261.587 562.866 261.8C562.477 262.013 562.037 262.119 561.545 262.119C561.057 262.119 560.621 262.023 560.237 261.83C559.857 261.634 559.544 261.362 559.3 261.016C559.058 260.666 558.903 260.261 558.835 259.801H559.875C559.969 260.202 560.155 260.533 560.433 260.794C560.714 261.053 561.085 261.182 561.545 261.182C562.219 261.182 562.75 260.888 563.139 260.3C563.531 259.712 563.727 258.881 563.727 257.807H563.659C563.5 258.045 563.311 258.251 563.092 258.425C562.874 258.598 562.631 258.732 562.364 258.825C562.097 258.919 561.813 258.966 561.511 258.966C561.011 258.966 560.553 258.842 560.135 258.595C559.72 258.345 559.388 258.003 559.138 257.568C558.891 257.131 558.767 256.631 558.767 256.068C558.767 255.534 558.886 255.045 559.125 254.602C559.366 254.156 559.705 253.801 560.139 253.537C560.577 253.273 561.091 253.145 561.682 253.153ZM561.682 254.091C561.324 254.091 561.001 254.18 560.714 254.359C560.43 254.536 560.205 254.774 560.037 255.075C559.872 255.374 559.79 255.705 559.79 256.068C559.79 256.432 559.869 256.763 560.028 257.061C560.19 257.357 560.411 257.592 560.689 257.768C560.97 257.942 561.29 258.028 561.648 258.028C561.918 258.028 562.169 257.976 562.402 257.871C562.635 257.763 562.838 257.616 563.011 257.432C563.188 257.244 563.325 257.033 563.425 256.797C563.524 256.558 563.574 256.31 563.574 256.051C563.574 255.71 563.491 255.391 563.327 255.092C563.165 254.794 562.94 254.553 562.653 254.368C562.369 254.183 562.045 254.091 561.682 254.091ZM569.289 262.119C568.931 262.114 568.574 262.045 568.216 261.915C567.858 261.784 567.531 261.564 567.235 261.254C566.94 260.942 566.703 260.52 566.524 259.989C566.345 259.455 566.255 258.784 566.255 257.977C566.255 257.205 566.328 256.52 566.473 255.923C566.618 255.324 566.828 254.82 567.103 254.411C567.379 253.999 567.711 253.686 568.1 253.473C568.493 253.26 568.934 253.153 569.426 253.153C569.914 253.153 570.349 253.251 570.73 253.447C571.113 253.641 571.426 253.911 571.667 254.257C571.909 254.604 572.065 255.003 572.136 255.455H571.096C571 255.062 570.812 254.737 570.534 254.479C570.255 254.22 569.886 254.091 569.426 254.091C568.75 254.091 568.217 254.385 567.828 254.973C567.441 255.561 567.247 256.386 567.244 257.449H567.312C567.471 257.207 567.66 257.001 567.879 256.831C568.1 256.658 568.345 256.524 568.612 256.43C568.879 256.337 569.162 256.29 569.46 256.29C569.96 256.29 570.417 256.415 570.832 256.665C571.247 256.912 571.579 257.254 571.829 257.692C572.079 258.126 572.204 258.625 572.204 259.188C572.204 259.727 572.083 260.222 571.842 260.67C571.6 261.116 571.261 261.472 570.824 261.736C570.389 261.997 569.877 262.125 569.289 262.119ZM569.289 261.182C569.647 261.182 569.968 261.092 570.252 260.913C570.539 260.734 570.765 260.494 570.93 260.193C571.098 259.892 571.181 259.557 571.181 259.188C571.181 258.827 571.1 258.499 570.939 258.203C570.779 257.905 570.559 257.668 570.278 257.491C570 257.315 569.681 257.227 569.324 257.227C569.054 257.227 568.802 257.281 568.569 257.389C568.336 257.494 568.132 257.639 567.956 257.824C567.782 258.009 567.646 258.22 567.547 258.459C567.447 258.695 567.397 258.943 567.397 259.205C567.397 259.551 567.478 259.875 567.64 260.176C567.805 260.477 568.029 260.72 568.314 260.905C568.6 261.089 568.926 261.182 569.289 261.182Z" fill="black"/>
<path d="M115.903 277V276.233L118.784 273.08C119.122 272.71 119.401 272.389 119.619 272.116C119.838 271.841 120 271.582 120.105 271.341C120.213 271.097 120.267 270.841 120.267 270.574C120.267 270.267 120.193 270.001 120.045 269.777C119.901 269.553 119.702 269.379 119.449 269.257C119.196 269.135 118.912 269.074 118.597 269.074C118.261 269.074 117.969 269.143 117.719 269.283C117.472 269.419 117.28 269.611 117.143 269.858C117.01 270.105 116.943 270.395 116.943 270.727H115.938C115.938 270.216 116.055 269.767 116.291 269.381C116.527 268.994 116.848 268.693 117.254 268.477C117.663 268.261 118.122 268.153 118.631 268.153C119.142 268.153 119.595 268.261 119.99 268.477C120.385 268.693 120.695 268.984 120.919 269.351C121.143 269.717 121.256 270.125 121.256 270.574C121.256 270.895 121.197 271.209 121.081 271.516C120.967 271.82 120.768 272.159 120.484 272.534C120.203 272.906 119.812 273.361 119.312 273.898L117.352 275.994V276.062H121.409V277H115.903ZM126.016 277.119C125.374 277.119 124.827 276.945 124.375 276.595C123.923 276.243 123.578 275.733 123.339 275.065C123.101 274.395 122.982 273.585 122.982 272.636C122.982 271.693 123.101 270.888 123.339 270.22C123.581 269.55 123.928 269.038 124.379 268.686C124.834 268.331 125.379 268.153 126.016 268.153C126.652 268.153 127.196 268.331 127.648 268.686C128.102 269.038 128.449 269.55 128.688 270.22C128.929 270.888 129.05 271.693 129.05 272.636C129.05 273.585 128.93 274.395 128.692 275.065C128.453 275.733 128.108 276.243 127.656 276.595C127.205 276.945 126.658 277.119 126.016 277.119ZM126.016 276.182C126.652 276.182 127.146 275.875 127.499 275.261C127.851 274.648 128.027 273.773 128.027 272.636C128.027 271.881 127.946 271.237 127.784 270.706C127.625 270.175 127.395 269.77 127.094 269.491C126.795 269.213 126.436 269.074 126.016 269.074C125.385 269.074 124.892 269.385 124.537 270.007C124.182 270.626 124.004 271.503 124.004 272.636C124.004 273.392 124.084 274.034 124.243 274.562C124.402 275.091 124.631 275.493 124.929 275.768C125.23 276.044 125.592 276.182 126.016 276.182ZM133.737 268.273V277H132.68V269.381H132.629L130.499 270.795V269.722L132.68 268.273H133.737ZM139.026 268.153C139.384 268.156 139.741 268.224 140.099 268.358C140.457 268.491 140.784 268.713 141.08 269.023C141.375 269.33 141.612 269.749 141.791 270.28C141.97 270.811 142.06 271.477 142.06 272.278C142.06 273.054 141.986 273.743 141.838 274.345C141.693 274.945 141.483 275.45 141.207 275.862C140.935 276.274 140.602 276.587 140.21 276.8C139.821 277.013 139.381 277.119 138.889 277.119C138.401 277.119 137.964 277.023 137.581 276.83C137.2 276.634 136.888 276.362 136.643 276.016C136.402 275.666 136.247 275.261 136.179 274.801H137.219C137.312 275.202 137.499 275.533 137.777 275.794C138.058 276.053 138.429 276.182 138.889 276.182C139.563 276.182 140.094 275.888 140.483 275.3C140.875 274.712 141.071 273.881 141.071 272.807H141.003C140.844 273.045 140.655 273.251 140.436 273.425C140.217 273.598 139.974 273.732 139.707 273.825C139.44 273.919 139.156 273.966 138.855 273.966C138.355 273.966 137.896 273.842 137.479 273.595C137.064 273.345 136.732 273.003 136.482 272.568C136.234 272.131 136.111 271.631 136.111 271.068C136.111 270.534 136.23 270.045 136.469 269.602C136.71 269.156 137.048 268.801 137.483 268.537C137.92 268.273 138.435 268.145 139.026 268.153ZM139.026 269.091C138.668 269.091 138.345 269.18 138.058 269.359C137.774 269.536 137.548 269.774 137.381 270.075C137.216 270.374 137.134 270.705 137.134 271.068C137.134 271.432 137.213 271.763 137.372 272.061C137.534 272.357 137.754 272.592 138.033 272.768C138.314 272.942 138.634 273.028 138.991 273.028C139.261 273.028 139.513 272.976 139.746 272.871C139.979 272.763 140.182 272.616 140.355 272.432C140.531 272.244 140.669 272.033 140.768 271.797C140.868 271.558 140.918 271.31 140.918 271.051C140.918 270.71 140.835 270.391 140.67 270.092C140.509 269.794 140.284 269.553 139.997 269.368C139.713 269.183 139.389 269.091 139.026 269.091Z" fill="black"/>
<path d="M357.903 277V276.233L360.784 273.08C361.122 272.71 361.401 272.389 361.619 272.116C361.838 271.841 362 271.582 362.105 271.341C362.213 271.097 362.267 270.841 362.267 270.574C362.267 270.267 362.193 270.001 362.045 269.777C361.901 269.553 361.702 269.379 361.449 269.257C361.196 269.135 360.912 269.074 360.597 269.074C360.261 269.074 359.969 269.143 359.719 269.283C359.472 269.419 359.28 269.611 359.143 269.858C359.01 270.105 358.943 270.395 358.943 270.727H357.938C357.938 270.216 358.055 269.767 358.291 269.381C358.527 268.994 358.848 268.693 359.254 268.477C359.663 268.261 360.122 268.153 360.631 268.153C361.142 268.153 361.595 268.261 361.99 268.477C362.385 268.693 362.695 268.984 362.919 269.351C363.143 269.717 363.256 270.125 363.256 270.574C363.256 270.895 363.197 271.209 363.081 271.516C362.967 271.82 362.768 272.159 362.484 272.534C362.203 272.906 361.812 273.361 361.312 273.898L359.352 275.994V276.062H363.409V277H357.903ZM368.016 277.119C367.374 277.119 366.827 276.945 366.375 276.595C365.923 276.243 365.578 275.733 365.339 275.065C365.101 274.395 364.982 273.585 364.982 272.636C364.982 271.693 365.101 270.888 365.339 270.22C365.581 269.55 365.928 269.038 366.379 268.686C366.834 268.331 367.379 268.153 368.016 268.153C368.652 268.153 369.196 268.331 369.648 268.686C370.102 269.038 370.449 269.55 370.688 270.22C370.929 270.888 371.05 271.693 371.05 272.636C371.05 273.585 370.93 274.395 370.692 275.065C370.453 275.733 370.108 276.243 369.656 276.595C369.205 276.945 368.658 277.119 368.016 277.119ZM368.016 276.182C368.652 276.182 369.146 275.875 369.499 275.261C369.851 274.648 370.027 273.773 370.027 272.636C370.027 271.881 369.946 271.237 369.784 270.706C369.625 270.175 369.395 269.77 369.094 269.491C368.795 269.213 368.436 269.074 368.016 269.074C367.385 269.074 366.892 269.385 366.537 270.007C366.182 270.626 366.004 271.503 366.004 272.636C366.004 273.392 366.084 274.034 366.243 274.562C366.402 275.091 366.631 275.493 366.929 275.768C367.23 276.044 367.592 276.182 368.016 276.182ZM372.669 277V276.233L375.55 273.08C375.888 272.71 376.166 272.389 376.385 272.116C376.604 271.841 376.766 271.582 376.871 271.341C376.979 271.097 377.033 270.841 377.033 270.574C377.033 270.267 376.959 270.001 376.811 269.777C376.666 269.553 376.467 269.379 376.214 269.257C375.962 269.135 375.678 269.074 375.362 269.074C375.027 269.074 374.734 269.143 374.484 269.283C374.237 269.419 374.045 269.611 373.909 269.858C373.776 270.105 373.709 270.395 373.709 270.727H372.703C372.703 270.216 372.821 269.767 373.057 269.381C373.293 268.994 373.614 268.693 374.02 268.477C374.429 268.261 374.888 268.153 375.396 268.153C375.908 268.153 376.361 268.261 376.756 268.477C377.151 268.693 377.46 268.984 377.685 269.351C377.909 269.717 378.021 270.125 378.021 270.574C378.021 270.895 377.963 271.209 377.847 271.516C377.733 271.82 377.534 272.159 377.25 272.534C376.969 272.906 376.578 273.361 376.078 273.898L374.118 275.994V276.062H378.175V277H372.669ZM379.543 275.21V274.341L383.378 268.273H384.009V269.619H383.582L380.685 274.205V274.273H385.849V275.21H379.543ZM383.651 277V274.946V274.541V268.273H384.656V277H383.651Z" fill="black"/>
<path d="M162.903 277V276.233L165.784 273.08C166.122 272.71 166.401 272.389 166.619 272.116C166.838 271.841 167 271.582 167.105 271.341C167.213 271.097 167.267 270.841 167.267 270.574C167.267 270.267 167.193 270.001 167.045 269.777C166.901 269.553 166.702 269.379 166.449 269.257C166.196 269.135 165.912 269.074 165.597 269.074C165.261 269.074 164.969 269.143 164.719 269.283C164.472 269.419 164.28 269.611 164.143 269.858C164.01 270.105 163.943 270.395 163.943 270.727H162.938C162.938 270.216 163.055 269.767 163.291 269.381C163.527 268.994 163.848 268.693 164.254 268.477C164.663 268.261 165.122 268.153 165.631 268.153C166.142 268.153 166.595 268.261 166.99 268.477C167.385 268.693 167.695 268.984 167.919 269.351C168.143 269.717 168.256 270.125 168.256 270.574C168.256 270.895 168.197 271.209 168.081 271.516C167.967 271.82 167.768 272.159 167.484 272.534C167.203 272.906 166.812 273.361 166.312 273.898L164.352 275.994V276.062H168.409V277H162.903ZM173.016 277.119C172.374 277.119 171.827 276.945 171.375 276.595C170.923 276.243 170.578 275.733 170.339 275.065C170.101 274.395 169.982 273.585 169.982 272.636C169.982 271.693 170.101 270.888 170.339 270.22C170.581 269.55 170.928 269.038 171.379 268.686C171.834 268.331 172.379 268.153 173.016 268.153C173.652 268.153 174.196 268.331 174.648 268.686C175.102 269.038 175.449 269.55 175.688 270.22C175.929 270.888 176.05 271.693 176.05 272.636C176.05 273.585 175.93 274.395 175.692 275.065C175.453 275.733 175.108 276.243 174.656 276.595C174.205 276.945 173.658 277.119 173.016 277.119ZM173.016 276.182C173.652 276.182 174.146 275.875 174.499 275.261C174.851 274.648 175.027 273.773 175.027 272.636C175.027 271.881 174.946 271.237 174.784 270.706C174.625 270.175 174.395 269.77 174.094 269.491C173.795 269.213 173.436 269.074 173.016 269.074C172.385 269.074 171.892 269.385 171.537 270.007C171.182 270.626 171.004 271.503 171.004 272.636C171.004 273.392 171.084 274.034 171.243 274.562C171.402 275.091 171.631 275.493 171.929 275.768C172.23 276.044 172.592 276.182 173.016 276.182ZM177.669 277V276.233L180.55 273.08C180.888 272.71 181.166 272.389 181.385 272.116C181.604 271.841 181.766 271.582 181.871 271.341C181.979 271.097 182.033 270.841 182.033 270.574C182.033 270.267 181.959 270.001 181.811 269.777C181.666 269.553 181.467 269.379 181.214 269.257C180.962 269.135 180.678 269.074 180.362 269.074C180.027 269.074 179.734 269.143 179.484 269.283C179.237 269.419 179.045 269.611 178.909 269.858C178.776 270.105 178.709 270.395 178.709 270.727H177.703C177.703 270.216 177.821 269.767 178.057 269.381C178.293 268.994 178.614 268.693 179.02 268.477C179.429 268.261 179.888 268.153 180.396 268.153C180.908 268.153 181.361 268.261 181.756 268.477C182.151 268.693 182.46 268.984 182.685 269.351C182.909 269.717 183.021 270.125 183.021 270.574C183.021 270.895 182.963 271.209 182.847 271.516C182.733 271.82 182.534 272.159 182.25 272.534C181.969 272.906 181.578 273.361 181.078 273.898L179.118 275.994V276.062H183.175V277H177.669ZM187.781 277.119C187.139 277.119 186.592 276.945 186.141 276.595C185.689 276.243 185.344 275.733 185.105 275.065C184.866 274.395 184.747 273.585 184.747 272.636C184.747 271.693 184.866 270.888 185.105 270.22C185.347 269.55 185.693 269.038 186.145 268.686C186.599 268.331 187.145 268.153 187.781 268.153C188.418 268.153 188.962 268.331 189.413 268.686C189.868 269.038 190.214 269.55 190.453 270.22C190.695 270.888 190.815 271.693 190.815 272.636C190.815 273.585 190.696 274.395 190.457 275.065C190.219 275.733 189.874 276.243 189.422 276.595C188.97 276.945 188.423 277.119 187.781 277.119ZM187.781 276.182C188.418 276.182 188.912 275.875 189.264 275.261C189.616 274.648 189.793 273.773 189.793 272.636C189.793 271.881 189.712 271.237 189.55 270.706C189.391 270.175 189.161 269.77 188.859 269.491C188.561 269.213 188.202 269.074 187.781 269.074C187.151 269.074 186.658 269.385 186.303 270.007C185.947 270.626 185.77 271.503 185.77 272.636C185.77 273.392 185.849 274.034 186.009 274.562C186.168 275.091 186.396 275.493 186.695 275.768C186.996 276.044 187.358 276.182 187.781 276.182Z" fill="black"/>
<path d="M405.903 277V276.233L408.784 273.08C409.122 272.71 409.401 272.389 409.619 272.116C409.838 271.841 410 271.582 410.105 271.341C410.213 271.097 410.267 270.841 410.267 270.574C410.267 270.267 410.193 270.001 410.045 269.777C409.901 269.553 409.702 269.379 409.449 269.257C409.196 269.135 408.912 269.074 408.597 269.074C408.261 269.074 407.969 269.143 407.719 269.283C407.472 269.419 407.28 269.611 407.143 269.858C407.01 270.105 406.943 270.395 406.943 270.727H405.938C405.938 270.216 406.055 269.767 406.291 269.381C406.527 268.994 406.848 268.693 407.254 268.477C407.663 268.261 408.122 268.153 408.631 268.153C409.142 268.153 409.595 268.261 409.99 268.477C410.385 268.693 410.695 268.984 410.919 269.351C411.143 269.717 411.256 270.125 411.256 270.574C411.256 270.895 411.197 271.209 411.081 271.516C410.967 271.82 410.768 272.159 410.484 272.534C410.203 272.906 409.812 273.361 409.312 273.898L407.352 275.994V276.062H411.409V277H405.903ZM416.016 277.119C415.374 277.119 414.827 276.945 414.375 276.595C413.923 276.243 413.578 275.733 413.339 275.065C413.101 274.395 412.982 273.585 412.982 272.636C412.982 271.693 413.101 270.888 413.339 270.22C413.581 269.55 413.928 269.038 414.379 268.686C414.834 268.331 415.379 268.153 416.016 268.153C416.652 268.153 417.196 268.331 417.648 268.686C418.102 269.038 418.449 269.55 418.688 270.22C418.929 270.888 419.05 271.693 419.05 272.636C419.05 273.585 418.93 274.395 418.692 275.065C418.453 275.733 418.108 276.243 417.656 276.595C417.205 276.945 416.658 277.119 416.016 277.119ZM416.016 276.182C416.652 276.182 417.146 275.875 417.499 275.261C417.851 274.648 418.027 273.773 418.027 272.636C418.027 271.881 417.946 271.237 417.784 270.706C417.625 270.175 417.395 269.77 417.094 269.491C416.795 269.213 416.436 269.074 416.016 269.074C415.385 269.074 414.892 269.385 414.537 270.007C414.182 270.626 414.004 271.503 414.004 272.636C414.004 273.392 414.084 274.034 414.243 274.562C414.402 275.091 414.631 275.493 414.929 275.768C415.23 276.044 415.592 276.182 416.016 276.182ZM420.669 277V276.233L423.55 273.08C423.888 272.71 424.166 272.389 424.385 272.116C424.604 271.841 424.766 271.582 424.871 271.341C424.979 271.097 425.033 270.841 425.033 270.574C425.033 270.267 424.959 270.001 424.811 269.777C424.666 269.553 424.467 269.379 424.214 269.257C423.962 269.135 423.678 269.074 423.362 269.074C423.027 269.074 422.734 269.143 422.484 269.283C422.237 269.419 422.045 269.611 421.909 269.858C421.776 270.105 421.709 270.395 421.709 270.727H420.703C420.703 270.216 420.821 269.767 421.057 269.381C421.293 268.994 421.614 268.693 422.02 268.477C422.429 268.261 422.888 268.153 423.396 268.153C423.908 268.153 424.361 268.261 424.756 268.477C425.151 268.693 425.46 268.984 425.685 269.351C425.909 269.717 426.021 270.125 426.021 270.574C426.021 270.895 425.963 271.209 425.847 271.516C425.733 271.82 425.534 272.159 425.25 272.534C424.969 272.906 424.578 273.361 424.078 273.898L422.118 275.994V276.062H426.175V277H420.669ZM430.662 277.119C430.162 277.119 429.712 277.02 429.311 276.821C428.911 276.622 428.589 276.349 428.348 276.003C428.107 275.656 427.974 275.261 427.952 274.818H428.974C429.014 275.213 429.193 275.54 429.511 275.798C429.832 276.054 430.216 276.182 430.662 276.182C431.02 276.182 431.338 276.098 431.616 275.93C431.898 275.763 432.118 275.533 432.277 275.24C432.439 274.945 432.52 274.611 432.52 274.239C432.52 273.858 432.436 273.518 432.268 273.22C432.104 272.919 431.876 272.682 431.587 272.509C431.297 272.335 430.966 272.247 430.594 272.244C430.327 272.241 430.053 272.283 429.771 272.368C429.49 272.45 429.259 272.557 429.077 272.688L428.088 272.568L428.616 268.273H433.151V269.21H429.503L429.196 271.784H429.247C429.426 271.642 429.651 271.524 429.92 271.43C430.19 271.337 430.472 271.29 430.764 271.29C431.298 271.29 431.774 271.418 432.192 271.673C432.612 271.926 432.942 272.273 433.18 272.713C433.422 273.153 433.543 273.656 433.543 274.222C433.543 274.778 433.418 275.276 433.168 275.713C432.92 276.148 432.58 276.491 432.145 276.744C431.71 276.994 431.216 277.119 430.662 277.119Z" fill="black"/>
<path d="M211.903 277V276.233L214.784 273.08C215.122 272.71 215.401 272.389 215.619 272.116C215.838 271.841 216 271.582 216.105 271.341C216.213 271.097 216.267 270.841 216.267 270.574C216.267 270.267 216.193 270.001 216.045 269.777C215.901 269.553 215.702 269.379 215.449 269.257C215.196 269.135 214.912 269.074 214.597 269.074C214.261 269.074 213.969 269.143 213.719 269.283C213.472 269.419 213.28 269.611 213.143 269.858C213.01 270.105 212.943 270.395 212.943 270.727H211.938C211.938 270.216 212.055 269.767 212.291 269.381C212.527 268.994 212.848 268.693 213.254 268.477C213.663 268.261 214.122 268.153 214.631 268.153C215.142 268.153 215.595 268.261 215.99 268.477C216.385 268.693 216.695 268.984 216.919 269.351C217.143 269.717 217.256 270.125 217.256 270.574C217.256 270.895 217.197 271.209 217.081 271.516C216.967 271.82 216.768 272.159 216.484 272.534C216.203 272.906 215.812 273.361 215.312 273.898L213.352 275.994V276.062H217.409V277H211.903ZM222.016 277.119C221.374 277.119 220.827 276.945 220.375 276.595C219.923 276.243 219.578 275.733 219.339 275.065C219.101 274.395 218.982 273.585 218.982 272.636C218.982 271.693 219.101 270.888 219.339 270.22C219.581 269.55 219.928 269.038 220.379 268.686C220.834 268.331 221.379 268.153 222.016 268.153C222.652 268.153 223.196 268.331 223.648 268.686C224.102 269.038 224.449 269.55 224.688 270.22C224.929 270.888 225.05 271.693 225.05 272.636C225.05 273.585 224.93 274.395 224.692 275.065C224.453 275.733 224.108 276.243 223.656 276.595C223.205 276.945 222.658 277.119 222.016 277.119ZM222.016 276.182C222.652 276.182 223.146 275.875 223.499 275.261C223.851 274.648 224.027 273.773 224.027 272.636C224.027 271.881 223.946 271.237 223.784 270.706C223.625 270.175 223.395 269.77 223.094 269.491C222.795 269.213 222.436 269.074 222.016 269.074C221.385 269.074 220.892 269.385 220.537 270.007C220.182 270.626 220.004 271.503 220.004 272.636C220.004 273.392 220.084 274.034 220.243 274.562C220.402 275.091 220.631 275.493 220.929 275.768C221.23 276.044 221.592 276.182 222.016 276.182ZM226.669 277V276.233L229.55 273.08C229.888 272.71 230.166 272.389 230.385 272.116C230.604 271.841 230.766 271.582 230.871 271.341C230.979 271.097 231.033 270.841 231.033 270.574C231.033 270.267 230.959 270.001 230.811 269.777C230.666 269.553 230.467 269.379 230.214 269.257C229.962 269.135 229.678 269.074 229.362 269.074C229.027 269.074 228.734 269.143 228.484 269.283C228.237 269.419 228.045 269.611 227.909 269.858C227.776 270.105 227.709 270.395 227.709 270.727H226.703C226.703 270.216 226.821 269.767 227.057 269.381C227.293 268.994 227.614 268.693 228.02 268.477C228.429 268.261 228.888 268.153 229.396 268.153C229.908 268.153 230.361 268.261 230.756 268.477C231.151 268.693 231.46 268.984 231.685 269.351C231.909 269.717 232.021 270.125 232.021 270.574C232.021 270.895 231.963 271.209 231.847 271.516C231.733 271.82 231.534 272.159 231.25 272.534C230.969 272.906 230.578 273.361 230.078 273.898L228.118 275.994V276.062H232.175V277H226.669ZM237.003 268.273V277H235.946V269.381H235.895L233.764 270.795V269.722L235.946 268.273H237.003Z" fill="black"/>
<path d="M453.903 277V276.233L456.784 273.08C457.122 272.71 457.401 272.389 457.619 272.116C457.838 271.841 458 271.582 458.105 271.341C458.213 271.097 458.267 270.841 458.267 270.574C458.267 270.267 458.193 270.001 458.045 269.777C457.901 269.553 457.702 269.379 457.449 269.257C457.196 269.135 456.912 269.074 456.597 269.074C456.261 269.074 455.969 269.143 455.719 269.283C455.472 269.419 455.28 269.611 455.143 269.858C455.01 270.105 454.943 270.395 454.943 270.727H453.938C453.938 270.216 454.055 269.767 454.291 269.381C454.527 268.994 454.848 268.693 455.254 268.477C455.663 268.261 456.122 268.153 456.631 268.153C457.142 268.153 457.595 268.261 457.99 268.477C458.385 268.693 458.695 268.984 458.919 269.351C459.143 269.717 459.256 270.125 459.256 270.574C459.256 270.895 459.197 271.209 459.081 271.516C458.967 271.82 458.768 272.159 458.484 272.534C458.203 272.906 457.812 273.361 457.312 273.898L455.352 275.994V276.062H459.409V277H453.903ZM464.016 277.119C463.374 277.119 462.827 276.945 462.375 276.595C461.923 276.243 461.578 275.733 461.339 275.065C461.101 274.395 460.982 273.585 460.982 272.636C460.982 271.693 461.101 270.888 461.339 270.22C461.581 269.55 461.928 269.038 462.379 268.686C462.834 268.331 463.379 268.153 464.016 268.153C464.652 268.153 465.196 268.331 465.648 268.686C466.102 269.038 466.449 269.55 466.688 270.22C466.929 270.888 467.05 271.693 467.05 272.636C467.05 273.585 466.93 274.395 466.692 275.065C466.453 275.733 466.108 276.243 465.656 276.595C465.205 276.945 464.658 277.119 464.016 277.119ZM464.016 276.182C464.652 276.182 465.146 275.875 465.499 275.261C465.851 274.648 466.027 273.773 466.027 272.636C466.027 271.881 465.946 271.237 465.784 270.706C465.625 270.175 465.395 269.77 465.094 269.491C464.795 269.213 464.436 269.074 464.016 269.074C463.385 269.074 462.892 269.385 462.537 270.007C462.182 270.626 462.004 271.503 462.004 272.636C462.004 273.392 462.084 274.034 462.243 274.562C462.402 275.091 462.631 275.493 462.929 275.768C463.23 276.044 463.592 276.182 464.016 276.182ZM468.669 277V276.233L471.55 273.08C471.888 272.71 472.166 272.389 472.385 272.116C472.604 271.841 472.766 271.582 472.871 271.341C472.979 271.097 473.033 270.841 473.033 270.574C473.033 270.267 472.959 270.001 472.811 269.777C472.666 269.553 472.467 269.379 472.214 269.257C471.962 269.135 471.678 269.074 471.362 269.074C471.027 269.074 470.734 269.143 470.484 269.283C470.237 269.419 470.045 269.611 469.909 269.858C469.776 270.105 469.709 270.395 469.709 270.727H468.703C468.703 270.216 468.821 269.767 469.057 269.381C469.293 268.994 469.614 268.693 470.02 268.477C470.429 268.261 470.888 268.153 471.396 268.153C471.908 268.153 472.361 268.261 472.756 268.477C473.151 268.693 473.46 268.984 473.685 269.351C473.909 269.717 474.021 270.125 474.021 270.574C474.021 270.895 473.963 271.209 473.847 271.516C473.733 271.82 473.534 272.159 473.25 272.534C472.969 272.906 472.578 273.361 472.078 273.898L470.118 275.994V276.062H474.175V277H468.669ZM478.832 277.119C478.474 277.114 478.116 277.045 477.759 276.915C477.401 276.784 477.074 276.564 476.778 276.254C476.483 275.942 476.246 275.52 476.067 274.989C475.888 274.455 475.798 273.784 475.798 272.977C475.798 272.205 475.871 271.52 476.016 270.923C476.161 270.324 476.371 269.82 476.646 269.411C476.922 268.999 477.254 268.686 477.643 268.473C478.036 268.26 478.477 268.153 478.969 268.153C479.457 268.153 479.892 268.251 480.273 268.447C480.656 268.641 480.969 268.911 481.21 269.257C481.452 269.604 481.608 270.003 481.679 270.455H480.639C480.543 270.062 480.355 269.737 480.077 269.479C479.798 269.22 479.429 269.091 478.969 269.091C478.293 269.091 477.76 269.385 477.371 269.973C476.984 270.561 476.79 271.386 476.787 272.449H476.855C477.014 272.207 477.203 272.001 477.422 271.831C477.643 271.658 477.888 271.524 478.155 271.43C478.422 271.337 478.705 271.29 479.003 271.29C479.503 271.29 479.96 271.415 480.375 271.665C480.79 271.912 481.122 272.254 481.372 272.692C481.622 273.126 481.747 273.625 481.747 274.188C481.747 274.727 481.626 275.222 481.385 275.67C481.143 276.116 480.804 276.472 480.366 276.736C479.932 276.997 479.42 277.125 478.832 277.119ZM478.832 276.182C479.19 276.182 479.511 276.092 479.795 275.913C480.082 275.734 480.308 275.494 480.473 275.193C480.641 274.892 480.724 274.557 480.724 274.188C480.724 273.827 480.643 273.499 480.482 273.203C480.322 272.905 480.102 272.668 479.821 272.491C479.543 272.315 479.224 272.227 478.866 272.227C478.597 272.227 478.345 272.281 478.112 272.389C477.879 272.494 477.675 272.639 477.499 272.824C477.325 273.009 477.189 273.22 477.089 273.459C476.99 273.695 476.94 273.943 476.94 274.205C476.94 274.551 477.021 274.875 477.183 275.176C477.348 275.477 477.572 275.72 477.857 275.905C478.143 276.089 478.469 276.182 478.832 276.182Z" fill="black"/>
<path d="M259.903 277V276.233L262.784 273.08C263.122 272.71 263.401 272.389 263.619 272.116C263.838 271.841 264 271.582 264.105 271.341C264.213 271.097 264.267 270.841 264.267 270.574C264.267 270.267 264.193 270.001 264.045 269.777C263.901 269.553 263.702 269.379 263.449 269.257C263.196 269.135 262.912 269.074 262.597 269.074C262.261 269.074 261.969 269.143 261.719 269.283C261.472 269.419 261.28 269.611 261.143 269.858C261.01 270.105 260.943 270.395 260.943 270.727H259.938C259.938 270.216 260.055 269.767 260.291 269.381C260.527 268.994 260.848 268.693 261.254 268.477C261.663 268.261 262.122 268.153 262.631 268.153C263.142 268.153 263.595 268.261 263.99 268.477C264.385 268.693 264.695 268.984 264.919 269.351C265.143 269.717 265.256 270.125 265.256 270.574C265.256 270.895 265.197 271.209 265.081 271.516C264.967 271.82 264.768 272.159 264.484 272.534C264.203 272.906 263.812 273.361 263.312 273.898L261.352 275.994V276.062H265.409V277H259.903ZM270.016 277.119C269.374 277.119 268.827 276.945 268.375 276.595C267.923 276.243 267.578 275.733 267.339 275.065C267.101 274.395 266.982 273.585 266.982 272.636C266.982 271.693 267.101 270.888 267.339 270.22C267.581 269.55 267.928 269.038 268.379 268.686C268.834 268.331 269.379 268.153 270.016 268.153C270.652 268.153 271.196 268.331 271.648 268.686C272.102 269.038 272.449 269.55 272.688 270.22C272.929 270.888 273.05 271.693 273.05 272.636C273.05 273.585 272.93 274.395 272.692 275.065C272.453 275.733 272.108 276.243 271.656 276.595C271.205 276.945 270.658 277.119 270.016 277.119ZM270.016 276.182C270.652 276.182 271.146 275.875 271.499 275.261C271.851 274.648 272.027 273.773 272.027 272.636C272.027 271.881 271.946 271.237 271.784 270.706C271.625 270.175 271.395 269.77 271.094 269.491C270.795 269.213 270.436 269.074 270.016 269.074C269.385 269.074 268.892 269.385 268.537 270.007C268.182 270.626 268.004 271.503 268.004 272.636C268.004 273.392 268.084 274.034 268.243 274.562C268.402 275.091 268.631 275.493 268.929 275.768C269.23 276.044 269.592 276.182 270.016 276.182ZM274.669 277V276.233L277.55 273.08C277.888 272.71 278.166 272.389 278.385 272.116C278.604 271.841 278.766 271.582 278.871 271.341C278.979 271.097 279.033 270.841 279.033 270.574C279.033 270.267 278.959 270.001 278.811 269.777C278.666 269.553 278.467 269.379 278.214 269.257C277.962 269.135 277.678 269.074 277.362 269.074C277.027 269.074 276.734 269.143 276.484 269.283C276.237 269.419 276.045 269.611 275.909 269.858C275.776 270.105 275.709 270.395 275.709 270.727H274.703C274.703 270.216 274.821 269.767 275.057 269.381C275.293 268.994 275.614 268.693 276.02 268.477C276.429 268.261 276.888 268.153 277.396 268.153C277.908 268.153 278.361 268.261 278.756 268.477C279.151 268.693 279.46 268.984 279.685 269.351C279.909 269.717 280.021 270.125 280.021 270.574C280.021 270.895 279.963 271.209 279.847 271.516C279.733 271.82 279.534 272.159 279.25 272.534C278.969 272.906 278.578 273.361 278.078 273.898L276.118 275.994V276.062H280.175V277H274.669ZM281.935 277V276.233L284.815 273.08C285.153 272.71 285.432 272.389 285.651 272.116C285.869 271.841 286.031 271.582 286.136 271.341C286.244 271.097 286.298 270.841 286.298 270.574C286.298 270.267 286.224 270.001 286.077 269.777C285.932 269.553 285.733 269.379 285.48 269.257C285.227 269.135 284.943 269.074 284.628 269.074C284.293 269.074 284 269.143 283.75 269.283C283.503 269.419 283.311 269.611 283.175 269.858C283.041 270.105 282.974 270.395 282.974 270.727H281.969C281.969 270.216 282.087 269.767 282.322 269.381C282.558 268.994 282.879 268.693 283.286 268.477C283.695 268.261 284.153 268.153 284.662 268.153C285.173 268.153 285.626 268.261 286.021 268.477C286.416 268.693 286.726 268.984 286.95 269.351C287.175 269.717 287.287 270.125 287.287 270.574C287.287 270.895 287.229 271.209 287.112 271.516C286.999 271.82 286.8 272.159 286.516 272.534C286.234 272.906 285.844 273.361 285.344 273.898L283.384 275.994V276.062H287.44V277H281.935Z" fill="black"/>
<path d="M502.903 277V276.233L505.784 273.08C506.122 272.71 506.401 272.389 506.619 272.116C506.838 271.841 507 271.582 507.105 271.341C507.213 271.097 507.267 270.841 507.267 270.574C507.267 270.267 507.193 270.001 507.045 269.777C506.901 269.553 506.702 269.379 506.449 269.257C506.196 269.135 505.912 269.074 505.597 269.074C505.261 269.074 504.969 269.143 504.719 269.283C504.472 269.419 504.28 269.611 504.143 269.858C504.01 270.105 503.943 270.395 503.943 270.727H502.938C502.938 270.216 503.055 269.767 503.291 269.381C503.527 268.994 503.848 268.693 504.254 268.477C504.663 268.261 505.122 268.153 505.631 268.153C506.142 268.153 506.595 268.261 506.99 268.477C507.385 268.693 507.695 268.984 507.919 269.351C508.143 269.717 508.256 270.125 508.256 270.574C508.256 270.895 508.197 271.209 508.081 271.516C507.967 271.82 507.768 272.159 507.484 272.534C507.203 272.906 506.812 273.361 506.312 273.898L504.352 275.994V276.062H508.409V277H502.903ZM513.016 277.119C512.374 277.119 511.827 276.945 511.375 276.595C510.923 276.243 510.578 275.733 510.339 275.065C510.101 274.395 509.982 273.585 509.982 272.636C509.982 271.693 510.101 270.888 510.339 270.22C510.581 269.55 510.928 269.038 511.379 268.686C511.834 268.331 512.379 268.153 513.016 268.153C513.652 268.153 514.196 268.331 514.648 268.686C515.102 269.038 515.449 269.55 515.688 270.22C515.929 270.888 516.05 271.693 516.05 272.636C516.05 273.585 515.93 274.395 515.692 275.065C515.453 275.733 515.108 276.243 514.656 276.595C514.205 276.945 513.658 277.119 513.016 277.119ZM513.016 276.182C513.652 276.182 514.146 275.875 514.499 275.261C514.851 274.648 515.027 273.773 515.027 272.636C515.027 271.881 514.946 271.237 514.784 270.706C514.625 270.175 514.395 269.77 514.094 269.491C513.795 269.213 513.436 269.074 513.016 269.074C512.385 269.074 511.892 269.385 511.537 270.007C511.182 270.626 511.004 271.503 511.004 272.636C511.004 273.392 511.084 274.034 511.243 274.562C511.402 275.091 511.631 275.493 511.929 275.768C512.23 276.044 512.592 276.182 513.016 276.182ZM517.669 277V276.233L520.55 273.08C520.888 272.71 521.166 272.389 521.385 272.116C521.604 271.841 521.766 271.582 521.871 271.341C521.979 271.097 522.033 270.841 522.033 270.574C522.033 270.267 521.959 270.001 521.811 269.777C521.666 269.553 521.467 269.379 521.214 269.257C520.962 269.135 520.678 269.074 520.362 269.074C520.027 269.074 519.734 269.143 519.484 269.283C519.237 269.419 519.045 269.611 518.909 269.858C518.776 270.105 518.709 270.395 518.709 270.727H517.703C517.703 270.216 517.821 269.767 518.057 269.381C518.293 268.994 518.614 268.693 519.02 268.477C519.429 268.261 519.888 268.153 520.396 268.153C520.908 268.153 521.361 268.261 521.756 268.477C522.151 268.693 522.46 268.984 522.685 269.351C522.909 269.717 523.021 270.125 523.021 270.574C523.021 270.895 522.963 271.209 522.847 271.516C522.733 271.82 522.534 272.159 522.25 272.534C521.969 272.906 521.578 273.361 521.078 273.898L519.118 275.994V276.062H523.175V277H517.669ZM525.207 277L529.111 269.278V269.21H524.611V268.273H530.202V269.261L526.315 277H525.207Z" fill="black"/>
<path d="M308.903 277V276.233L311.784 273.08C312.122 272.71 312.401 272.389 312.619 272.116C312.838 271.841 313 271.582 313.105 271.341C313.213 271.097 313.267 270.841 313.267 270.574C313.267 270.267 313.193 270.001 313.045 269.777C312.901 269.553 312.702 269.379 312.449 269.257C312.196 269.135 311.912 269.074 311.597 269.074C311.261 269.074 310.969 269.143 310.719 269.283C310.472 269.419 310.28 269.611 310.143 269.858C310.01 270.105 309.943 270.395 309.943 270.727H308.938C308.938 270.216 309.055 269.767 309.291 269.381C309.527 268.994 309.848 268.693 310.254 268.477C310.663 268.261 311.122 268.153 311.631 268.153C312.142 268.153 312.595 268.261 312.99 268.477C313.385 268.693 313.695 268.984 313.919 269.351C314.143 269.717 314.256 270.125 314.256 270.574C314.256 270.895 314.197 271.209 314.081 271.516C313.967 271.82 313.768 272.159 313.484 272.534C313.203 272.906 312.812 273.361 312.312 273.898L310.352 275.994V276.062H314.409V277H308.903ZM319.016 277.119C318.374 277.119 317.827 276.945 317.375 276.595C316.923 276.243 316.578 275.733 316.339 275.065C316.101 274.395 315.982 273.585 315.982 272.636C315.982 271.693 316.101 270.888 316.339 270.22C316.581 269.55 316.928 269.038 317.379 268.686C317.834 268.331 318.379 268.153 319.016 268.153C319.652 268.153 320.196 268.331 320.648 268.686C321.102 269.038 321.449 269.55 321.688 270.22C321.929 270.888 322.05 271.693 322.05 272.636C322.05 273.585 321.93 274.395 321.692 275.065C321.453 275.733 321.108 276.243 320.656 276.595C320.205 276.945 319.658 277.119 319.016 277.119ZM319.016 276.182C319.652 276.182 320.146 275.875 320.499 275.261C320.851 274.648 321.027 273.773 321.027 272.636C321.027 271.881 320.946 271.237 320.784 270.706C320.625 270.175 320.395 269.77 320.094 269.491C319.795 269.213 319.436 269.074 319.016 269.074C318.385 269.074 317.892 269.385 317.537 270.007C317.182 270.626 317.004 271.503 317.004 272.636C317.004 273.392 317.084 274.034 317.243 274.562C317.402 275.091 317.631 275.493 317.929 275.768C318.23 276.044 318.592 276.182 319.016 276.182ZM323.669 277V276.233L326.55 273.08C326.888 272.71 327.166 272.389 327.385 272.116C327.604 271.841 327.766 271.582 327.871 271.341C327.979 271.097 328.033 270.841 328.033 270.574C328.033 270.267 327.959 270.001 327.811 269.777C327.666 269.553 327.467 269.379 327.214 269.257C326.962 269.135 326.678 269.074 326.362 269.074C326.027 269.074 325.734 269.143 325.484 269.283C325.237 269.419 325.045 269.611 324.909 269.858C324.776 270.105 324.709 270.395 324.709 270.727H323.703C323.703 270.216 323.821 269.767 324.057 269.381C324.293 268.994 324.614 268.693 325.02 268.477C325.429 268.261 325.888 268.153 326.396 268.153C326.908 268.153 327.361 268.261 327.756 268.477C328.151 268.693 328.46 268.984 328.685 269.351C328.909 269.717 329.021 270.125 329.021 270.574C329.021 270.895 328.963 271.209 328.847 271.516C328.733 271.82 328.534 272.159 328.25 272.534C327.969 272.906 327.578 273.361 327.078 273.898L325.118 275.994V276.062H329.175V277H323.669ZM333.884 277.119C333.321 277.119 332.82 277.023 332.379 276.83C331.942 276.636 331.594 276.368 331.335 276.024C331.08 275.678 330.94 275.276 330.918 274.818H331.991C332.014 275.099 332.111 275.342 332.281 275.547C332.452 275.749 332.675 275.905 332.95 276.016C333.226 276.126 333.531 276.182 333.866 276.182C334.241 276.182 334.574 276.116 334.864 275.986C335.153 275.855 335.381 275.673 335.545 275.44C335.71 275.207 335.793 274.938 335.793 274.631C335.793 274.31 335.713 274.027 335.554 273.783C335.395 273.536 335.162 273.342 334.855 273.203C334.548 273.064 334.173 272.994 333.73 272.994H333.031V272.057H333.73C334.077 272.057 334.381 271.994 334.642 271.869C334.906 271.744 335.112 271.568 335.26 271.341C335.411 271.114 335.486 270.847 335.486 270.54C335.486 270.244 335.42 269.987 335.29 269.768C335.159 269.55 334.974 269.379 334.736 269.257C334.5 269.135 334.222 269.074 333.901 269.074C333.599 269.074 333.315 269.129 333.048 269.24C332.784 269.348 332.568 269.506 332.401 269.713C332.233 269.918 332.142 270.165 332.128 270.455H331.105C331.122 269.997 331.26 269.597 331.518 269.253C331.777 268.906 332.115 268.636 332.533 268.443C332.953 268.25 333.415 268.153 333.918 268.153C334.457 268.153 334.92 268.263 335.307 268.482C335.693 268.697 335.99 268.983 336.197 269.338C336.405 269.693 336.509 270.077 336.509 270.489C336.509 270.98 336.379 271.399 336.121 271.746C335.865 272.092 335.517 272.332 335.077 272.466V272.534C335.628 272.625 336.058 272.859 336.368 273.237C336.678 273.612 336.832 274.077 336.832 274.631C336.832 275.105 336.703 275.531 336.445 275.909C336.189 276.284 335.839 276.58 335.396 276.795C334.953 277.011 334.449 277.119 333.884 277.119Z" fill="black"/>
<path d="M551.903 277V276.233L554.784 273.08C555.122 272.71 555.401 272.389 555.619 272.116C555.838 271.841 556 271.582 556.105 271.341C556.213 271.097 556.267 270.841 556.267 270.574C556.267 270.267 556.193 270.001 556.045 269.777C555.901 269.553 555.702 269.379 555.449 269.257C555.196 269.135 554.912 269.074 554.597 269.074C554.261 269.074 553.969 269.143 553.719 269.283C553.472 269.419 553.28 269.611 553.143 269.858C553.01 270.105 552.943 270.395 552.943 270.727H551.938C551.938 270.216 552.055 269.767 552.291 269.381C552.527 268.994 552.848 268.693 553.254 268.477C553.663 268.261 554.122 268.153 554.631 268.153C555.142 268.153 555.595 268.261 555.99 268.477C556.385 268.693 556.695 268.984 556.919 269.351C557.143 269.717 557.256 270.125 557.256 270.574C557.256 270.895 557.197 271.209 557.081 271.516C556.967 271.82 556.768 272.159 556.484 272.534C556.203 272.906 555.812 273.361 555.312 273.898L553.352 275.994V276.062H557.409V277H551.903ZM562.016 277.119C561.374 277.119 560.827 276.945 560.375 276.595C559.923 276.243 559.578 275.733 559.339 275.065C559.101 274.395 558.982 273.585 558.982 272.636C558.982 271.693 559.101 270.888 559.339 270.22C559.581 269.55 559.928 269.038 560.379 268.686C560.834 268.331 561.379 268.153 562.016 268.153C562.652 268.153 563.196 268.331 563.648 268.686C564.102 269.038 564.449 269.55 564.688 270.22C564.929 270.888 565.05 271.693 565.05 272.636C565.05 273.585 564.93 274.395 564.692 275.065C564.453 275.733 564.108 276.243 563.656 276.595C563.205 276.945 562.658 277.119 562.016 277.119ZM562.016 276.182C562.652 276.182 563.146 275.875 563.499 275.261C563.851 274.648 564.027 273.773 564.027 272.636C564.027 271.881 563.946 271.237 563.784 270.706C563.625 270.175 563.395 269.77 563.094 269.491C562.795 269.213 562.436 269.074 562.016 269.074C561.385 269.074 560.892 269.385 560.537 270.007C560.182 270.626 560.004 271.503 560.004 272.636C560.004 273.392 560.084 274.034 560.243 274.562C560.402 275.091 560.631 275.493 560.929 275.768C561.23 276.044 561.592 276.182 562.016 276.182ZM566.669 277V276.233L569.55 273.08C569.888 272.71 570.166 272.389 570.385 272.116C570.604 271.841 570.766 271.582 570.871 271.341C570.979 271.097 571.033 270.841 571.033 270.574C571.033 270.267 570.959 270.001 570.811 269.777C570.666 269.553 570.467 269.379 570.214 269.257C569.962 269.135 569.678 269.074 569.362 269.074C569.027 269.074 568.734 269.143 568.484 269.283C568.237 269.419 568.045 269.611 567.909 269.858C567.776 270.105 567.709 270.395 567.709 270.727H566.703C566.703 270.216 566.821 269.767 567.057 269.381C567.293 268.994 567.614 268.693 568.02 268.477C568.429 268.261 568.888 268.153 569.396 268.153C569.908 268.153 570.361 268.261 570.756 268.477C571.151 268.693 571.46 268.984 571.685 269.351C571.909 269.717 572.021 270.125 572.021 270.574C572.021 270.895 571.963 271.209 571.847 271.516C571.733 271.82 571.534 272.159 571.25 272.534C570.969 272.906 570.578 273.361 570.078 273.898L568.118 275.994V276.062H572.175V277H566.669ZM576.73 277.119C576.145 277.119 575.628 277.016 575.179 276.808C574.733 276.598 574.385 276.31 574.135 275.943C573.885 275.574 573.761 275.153 573.764 274.682C573.761 274.312 573.834 273.972 573.982 273.659C574.129 273.344 574.331 273.081 574.587 272.871C574.845 272.658 575.134 272.523 575.452 272.466V272.415C575.034 272.307 574.702 272.072 574.455 271.712C574.207 271.348 574.085 270.935 574.088 270.472C574.085 270.028 574.197 269.632 574.425 269.283C574.652 268.933 574.964 268.658 575.362 268.456C575.763 268.254 576.219 268.153 576.73 268.153C577.236 268.153 577.688 268.254 578.085 268.456C578.483 268.658 578.795 268.933 579.023 269.283C579.253 269.632 579.369 270.028 579.372 270.472C579.369 270.935 579.243 271.348 578.993 271.712C578.746 272.072 578.418 272.307 578.009 272.415V272.466C578.324 272.523 578.608 272.658 578.861 272.871C579.114 273.081 579.315 273.344 579.466 273.659C579.616 273.972 579.693 274.312 579.696 274.682C579.693 275.153 579.565 275.574 579.312 275.943C579.062 276.31 578.714 276.598 578.268 276.808C577.825 277.016 577.313 277.119 576.73 277.119ZM576.73 276.182C577.125 276.182 577.466 276.118 577.753 275.99C578.04 275.862 578.261 275.682 578.418 275.449C578.574 275.216 578.653 274.943 578.656 274.631C578.653 274.301 578.568 274.01 578.401 273.757C578.233 273.504 578.004 273.305 577.714 273.161C577.428 273.016 577.099 272.943 576.73 272.943C576.358 272.943 576.026 273.016 575.733 273.161C575.443 273.305 575.214 273.504 575.047 273.757C574.882 274.01 574.801 274.301 574.804 274.631C574.801 274.943 574.876 275.216 575.03 275.449C575.186 275.682 575.409 275.862 575.699 275.99C575.989 276.118 576.332 276.182 576.73 276.182ZM576.73 272.04C577.043 272.04 577.32 271.977 577.561 271.852C577.805 271.727 577.997 271.553 578.136 271.328C578.276 271.104 578.347 270.841 578.349 270.54C578.347 270.244 578.277 269.987 578.141 269.768C578.004 269.547 577.815 269.376 577.574 269.257C577.332 269.135 577.051 269.074 576.73 269.074C576.403 269.074 576.118 269.135 575.874 269.257C575.629 269.376 575.44 269.547 575.307 269.768C575.173 269.987 575.108 270.244 575.111 270.54C575.108 270.841 575.175 271.104 575.311 271.328C575.45 271.553 575.642 271.727 575.886 271.852C576.131 271.977 576.412 272.04 576.73 272.04Z" fill="black"/>
<line x1="128.5" y1="250" x2="128.5" y2="70" stroke="#CECECE"/>
<line x1="176.5" y1="250" x2="176.5" y2="70" stroke="#CECECE"/>
<line x1="224.5" y1="250" x2="224.5" y2="70" stroke="#CECECE"/>
<line x1="273.5" y1="250" x2="273.5" y2="70" stroke="#CECECE"/>
<line x1="322.5" y1="250" x2="322.5" y2="70" stroke="#CECECE"/>
<line x1="371.5" y1="250" x2="371.5" y2="70" stroke="#CECECE"/>
<line x1="419.5" y1="250" x2="419.5" y2="70" stroke="#CECECE"/>
<line x1="467.5" y1="250" x2="467.5" y2="70" stroke="#CECECE"/>
<line x1="516.5" y1="250" x2="516.5" y2="70" stroke="#CECECE"/>
<line x1="565.5" y1="250" x2="565.5" y2="70" stroke="#CECECE"/>
<path d="M127.5 242L176.5 221L223 203.5L268 192.5H317L367.5 174.5L416.5 159.5L459 141.5L511.5 122.5L566.5 102.5" stroke="#00D26A"/>
<circle cx="467.5" cy="138.5" r="6" stroke="#00D26A"/>
<circle cx="419.5" cy="157.5" r="6.5" fill="#00D26A"/>
<circle cx="371.5" cy="173.5" r="6.5" fill="#00D26A"/>
<circle cx="322.5" cy="191.5" r="6.5" fill="#00D26A"/>
<circle cx="273.5" cy="191.5" r="6.5" fill="#00D26A"/>
<circle cx="224.5" cy="202.5" r="6.5" fill="#00D26A"/>
<circle cx="176.5" cy="221.5" r="6.5" fill="#00D26A"/>
<circle cx="127.5" cy="241.5" r="6.5" fill="#00D26A"/>
<circle cx="516.5" cy="120.5" r="6" stroke="#00D26A"/>
<circle cx="565.5" cy="102.5" r="6" stroke="#00D26A"/>
</svg>
