<svg width="508" height="322" viewBox="0 0 508 322" fill="none" xmlns="http://www.w3.org/2000/svg">
<rect width="508" height="322" fill="white"/>
<path d="M31.4347 264.139C31.017 264.133 30.5994 264.053 30.1818 263.901C29.7642 263.748 29.383 263.491 29.0384 263.13C28.6937 262.765 28.4169 262.273 28.2081 261.653C27.9993 261.03 27.8949 260.248 27.8949 259.307C27.8949 258.405 27.9794 257.607 28.1484 256.911C28.3175 256.211 28.5627 255.623 28.8842 255.146C29.2057 254.665 29.5935 254.3 30.0476 254.052C30.505 253.803 31.0204 253.679 31.5938 253.679C32.1638 253.679 32.6709 253.793 33.1151 254.022C33.5625 254.247 33.9271 254.562 34.2088 254.967C34.4905 255.371 34.6728 255.837 34.7557 256.364H33.5426C33.4299 255.906 33.2112 255.527 32.8864 255.225C32.5616 254.924 32.1307 254.773 31.5938 254.773C30.8049 254.773 30.1835 255.116 29.7294 255.802C29.2786 256.488 29.0516 257.451 29.0483 258.69H29.1278C29.3134 258.409 29.5339 258.168 29.7891 257.969C30.0476 257.767 30.3326 257.612 30.6442 257.502C30.9557 257.393 31.2855 257.338 31.6335 257.338C32.2169 257.338 32.7505 257.484 33.2344 257.776C33.7183 258.064 34.1061 258.463 34.3977 258.974C34.6894 259.481 34.8352 260.062 34.8352 260.719C34.8352 261.348 34.6944 261.925 34.4126 262.449C34.1309 262.969 33.7348 263.384 33.2244 263.692C32.7173 263.997 32.1207 264.146 31.4347 264.139ZM31.4347 263.045C31.8523 263.045 32.2268 262.941 32.5582 262.732C32.893 262.523 33.1565 262.243 33.3487 261.892C33.5443 261.541 33.642 261.15 33.642 260.719C33.642 260.298 33.5476 259.915 33.3587 259.57C33.1731 259.222 32.9162 258.946 32.5881 258.74C32.2633 258.535 31.892 258.432 31.4744 258.432C31.1596 258.432 30.8662 258.495 30.5945 258.621C30.3227 258.743 30.084 258.912 29.8786 259.128C29.6764 259.343 29.5173 259.59 29.4013 259.869C29.2853 260.144 29.2273 260.434 29.2273 260.739C29.2273 261.143 29.3217 261.521 29.5107 261.872C29.7029 262.223 29.9647 262.507 30.2962 262.722C30.6309 262.938 31.0104 263.045 31.4347 263.045ZM36.7903 264V263.105L40.1511 259.426C40.5455 258.995 40.8703 258.621 41.1255 258.303C41.3807 257.981 41.5697 257.679 41.6923 257.398C41.8182 257.113 41.8812 256.814 41.8812 256.503C41.8812 256.145 41.795 255.835 41.6227 255.573C41.4537 255.311 41.2217 255.109 40.9267 254.967C40.6317 254.824 40.3002 254.753 39.9324 254.753C39.5413 254.753 39.1999 254.834 38.9082 254.996C38.6199 255.156 38.3961 255.379 38.237 255.668C38.0813 255.956 38.0034 256.294 38.0034 256.682H36.8301C36.8301 256.085 36.9676 255.562 37.2427 255.111C37.5178 254.66 37.8923 254.309 38.3663 254.057C38.8436 253.805 39.3788 253.679 39.9721 253.679C40.5687 253.679 41.0974 253.805 41.5581 254.057C42.0188 254.309 42.38 254.648 42.6419 255.076C42.9037 255.504 43.0346 255.979 43.0346 256.503C43.0346 256.877 42.9667 257.244 42.8308 257.602C42.6982 257.956 42.4662 258.352 42.1348 258.79C41.8066 259.224 41.3509 259.754 40.7676 260.381L38.4806 262.827V262.906H43.2136V264H36.7903Z" fill="black"/>
<path d="M274.435 264.139C274.017 264.133 273.599 264.053 273.182 263.901C272.764 263.748 272.383 263.491 272.038 263.13C271.694 262.765 271.417 262.273 271.208 261.653C270.999 261.03 270.895 260.248 270.895 259.307C270.895 258.405 270.979 257.607 271.148 256.911C271.317 256.211 271.563 255.623 271.884 255.146C272.206 254.665 272.594 254.3 273.048 254.052C273.505 253.803 274.02 253.679 274.594 253.679C275.164 253.679 275.671 253.793 276.115 254.022C276.563 254.247 276.927 254.562 277.209 254.967C277.491 255.371 277.673 255.837 277.756 256.364H276.543C276.43 255.906 276.211 255.527 275.886 255.225C275.562 254.924 275.131 254.773 274.594 254.773C273.805 254.773 273.183 255.116 272.729 255.802C272.279 256.488 272.052 257.451 272.048 258.69H272.128C272.313 258.409 272.534 258.168 272.789 257.969C273.048 257.767 273.333 257.612 273.644 257.502C273.956 257.393 274.286 257.338 274.634 257.338C275.217 257.338 275.75 257.484 276.234 257.776C276.718 258.064 277.106 258.463 277.398 258.974C277.689 259.481 277.835 260.062 277.835 260.719C277.835 261.348 277.694 261.925 277.413 262.449C277.131 262.969 276.735 263.384 276.224 263.692C275.717 263.997 275.121 264.146 274.435 264.139ZM274.435 263.045C274.852 263.045 275.227 262.941 275.558 262.732C275.893 262.523 276.156 262.243 276.349 261.892C276.544 261.541 276.642 261.15 276.642 260.719C276.642 260.298 276.548 259.915 276.359 259.57C276.173 259.222 275.916 258.946 275.588 258.74C275.263 258.535 274.892 258.432 274.474 258.432C274.16 258.432 273.866 258.495 273.594 258.621C273.323 258.743 273.084 258.912 272.879 259.128C272.676 259.343 272.517 259.59 272.401 259.869C272.285 260.144 272.227 260.434 272.227 260.739C272.227 261.143 272.322 261.521 272.511 261.872C272.703 262.223 272.965 262.507 273.296 262.722C273.631 262.938 274.01 263.045 274.435 263.045ZM279.79 264V263.105L283.151 259.426C283.546 258.995 283.87 258.621 284.126 258.303C284.381 257.981 284.57 257.679 284.692 257.398C284.818 257.113 284.881 256.814 284.881 256.503C284.881 256.145 284.795 255.835 284.623 255.573C284.454 255.311 284.222 255.109 283.927 254.967C283.632 254.824 283.3 254.753 282.932 254.753C282.541 254.753 282.2 254.834 281.908 254.996C281.62 255.156 281.396 255.379 281.237 255.668C281.081 255.956 281.003 256.294 281.003 256.682H279.83C279.83 256.085 279.968 255.562 280.243 255.111C280.518 254.66 280.892 254.309 281.366 254.057C281.844 253.805 282.379 253.679 282.972 253.679C283.569 253.679 284.097 253.805 284.558 254.057C285.019 254.309 285.38 254.648 285.642 255.076C285.904 255.504 286.035 255.979 286.035 256.503C286.035 256.877 285.967 257.244 285.831 257.602C285.698 257.956 285.466 258.352 285.135 258.79C284.807 259.224 284.351 259.754 283.768 260.381L281.481 262.827V262.906H286.214V264H279.79Z" fill="black"/>
<path d="M76.3722 264L80.9261 254.991V254.912H75.6761V253.818H82.1989V254.972L77.6648 264H76.3722ZM87.2599 264.139C86.6037 264.139 86.0187 264.027 85.505 263.801C84.9946 263.576 84.5885 263.263 84.2869 262.862C83.9886 262.457 83.8262 261.988 83.7997 261.455H85.0526C85.0791 261.783 85.1918 262.066 85.3906 262.305C85.5895 262.54 85.8497 262.722 86.1712 262.852C86.4927 262.981 86.849 263.045 87.2401 263.045C87.6776 263.045 88.0653 262.969 88.4034 262.817C88.7415 262.664 89.0066 262.452 89.1989 262.18C89.3911 261.909 89.4872 261.594 89.4872 261.236C89.4872 260.861 89.3944 260.531 89.2088 260.246C89.0232 259.958 88.7514 259.733 88.3935 259.57C88.0355 259.408 87.598 259.327 87.081 259.327H86.2656V258.233H87.081C87.4853 258.233 87.84 258.16 88.1449 258.014C88.4531 257.868 88.6934 257.663 88.8658 257.398C89.0414 257.133 89.1293 256.821 89.1293 256.463C89.1293 256.118 89.053 255.818 88.9006 255.563C88.7481 255.308 88.5327 255.109 88.2543 254.967C87.9792 254.824 87.6544 254.753 87.2798 254.753C86.9285 254.753 86.5971 254.817 86.2855 254.947C85.9773 255.073 85.7254 255.257 85.5298 255.499C85.3343 255.737 85.2282 256.026 85.2116 256.364H84.0185C84.0384 255.83 84.1991 255.363 84.5007 254.962C84.8023 254.557 85.1967 254.242 85.6839 254.017C86.1745 253.792 86.7131 253.679 87.2997 253.679C87.9295 253.679 88.4697 253.807 88.9205 254.062C89.3712 254.314 89.7176 254.647 89.9595 255.061C90.2015 255.475 90.3224 255.923 90.3224 256.403C90.3224 256.977 90.1716 257.466 89.87 257.87C89.5717 258.274 89.1657 258.554 88.652 258.71V258.79C89.295 258.896 89.7971 259.169 90.1584 259.61C90.5196 260.048 90.7003 260.589 90.7003 261.236C90.7003 261.789 90.5495 262.286 90.2479 262.727C89.9496 263.165 89.5419 263.509 89.0249 263.761C88.5078 264.013 87.9195 264.139 87.2599 264.139Z" fill="black"/>
<path d="M319.372 264L323.926 254.991V254.912H318.676V253.818H325.199V254.972L320.665 264H319.372ZM330.26 264.139C329.604 264.139 329.019 264.027 328.505 263.801C327.995 263.576 327.589 263.263 327.287 262.862C326.989 262.457 326.826 261.988 326.8 261.455H328.053C328.079 261.783 328.192 262.066 328.391 262.305C328.589 262.54 328.85 262.722 329.171 262.852C329.493 262.981 329.849 263.045 330.24 263.045C330.678 263.045 331.065 262.969 331.403 262.817C331.741 262.664 332.007 262.452 332.199 262.18C332.391 261.909 332.487 261.594 332.487 261.236C332.487 260.861 332.394 260.531 332.209 260.246C332.023 259.958 331.751 259.733 331.393 259.57C331.036 259.408 330.598 259.327 330.081 259.327H329.266V258.233H330.081C330.485 258.233 330.84 258.16 331.145 258.014C331.453 257.868 331.693 257.663 331.866 257.398C332.041 257.133 332.129 256.821 332.129 256.463C332.129 256.118 332.053 255.818 331.901 255.563C331.748 255.308 331.533 255.109 331.254 254.967C330.979 254.824 330.654 254.753 330.28 254.753C329.929 254.753 329.597 254.817 329.286 254.947C328.977 255.073 328.725 255.257 328.53 255.499C328.334 255.737 328.228 256.026 328.212 256.364H327.018C327.038 255.83 327.199 255.363 327.501 254.962C327.802 254.557 328.197 254.242 328.684 254.017C329.174 253.792 329.713 253.679 330.3 253.679C330.929 253.679 331.47 253.807 331.92 254.062C332.371 254.314 332.718 254.647 332.96 255.061C333.201 255.475 333.322 255.923 333.322 256.403C333.322 256.977 333.172 257.466 332.87 257.87C332.572 258.274 332.166 258.554 331.652 258.71V258.79C332.295 258.896 332.797 259.169 333.158 259.61C333.52 260.048 333.7 260.589 333.7 261.236C333.7 261.789 333.549 262.286 333.248 262.727C332.95 263.165 332.542 263.509 332.025 263.761C331.508 264.013 330.92 264.139 330.26 264.139Z" fill="black"/>
<path d="M127.315 264.139C126.633 264.139 126.029 264.018 125.506 263.776C124.985 263.531 124.579 263.195 124.288 262.767C123.996 262.336 123.852 261.846 123.855 261.295C123.852 260.865 123.936 260.467 124.109 260.102C124.281 259.734 124.516 259.428 124.815 259.183C125.116 258.934 125.453 258.777 125.824 258.71V258.651C125.337 258.525 124.949 258.251 124.661 257.83C124.372 257.406 124.23 256.924 124.233 256.384C124.23 255.866 124.361 255.404 124.626 254.996C124.891 254.589 125.255 254.267 125.719 254.032C126.187 253.797 126.719 253.679 127.315 253.679C127.905 253.679 128.432 253.797 128.896 254.032C129.36 254.267 129.725 254.589 129.99 254.996C130.259 255.404 130.394 255.866 130.398 256.384C130.394 256.924 130.247 257.406 129.955 257.83C129.667 258.251 129.284 258.525 128.807 258.651V258.71C129.175 258.777 129.506 258.934 129.801 259.183C130.096 259.428 130.331 259.734 130.507 260.102C130.683 260.467 130.772 260.865 130.776 261.295C130.772 261.846 130.623 262.336 130.328 262.767C130.036 263.195 129.63 263.531 129.11 263.776C128.593 264.018 127.995 264.139 127.315 264.139ZM127.315 263.045C127.776 263.045 128.174 262.971 128.509 262.822C128.843 262.673 129.102 262.462 129.284 262.19C129.466 261.919 129.559 261.6 129.562 261.236C129.559 260.851 129.46 260.512 129.264 260.217C129.069 259.922 128.802 259.69 128.464 259.521C128.129 259.352 127.746 259.267 127.315 259.267C126.881 259.267 126.493 259.352 126.152 259.521C125.814 259.69 125.547 259.922 125.352 260.217C125.159 260.512 125.065 260.851 125.068 261.236C125.065 261.6 125.153 261.919 125.332 262.19C125.514 262.462 125.774 262.673 126.112 262.822C126.45 262.971 126.851 263.045 127.315 263.045ZM127.315 258.213C127.68 258.213 128.003 258.14 128.285 257.994C128.57 257.848 128.794 257.645 128.956 257.383C129.118 257.121 129.201 256.814 129.205 256.463C129.201 256.118 129.12 255.818 128.961 255.563C128.802 255.305 128.581 255.106 128.3 254.967C128.018 254.824 127.69 254.753 127.315 254.753C126.934 254.753 126.601 254.824 126.316 254.967C126.031 255.106 125.811 255.305 125.655 255.563C125.499 255.818 125.423 256.118 125.426 256.463C125.423 256.814 125.501 257.121 125.66 257.383C125.822 257.645 126.046 257.848 126.331 257.994C126.616 258.14 126.944 258.213 127.315 258.213ZM136.121 264.139C135.465 264.139 134.88 264.027 134.366 263.801C133.856 263.576 133.45 263.263 133.148 262.862C132.85 262.457 132.688 261.988 132.661 261.455H133.914C133.94 261.783 134.053 262.066 134.252 262.305C134.451 262.54 134.711 262.722 135.032 262.852C135.354 262.981 135.71 263.045 136.101 263.045C136.539 263.045 136.927 262.969 137.265 262.817C137.603 262.664 137.868 262.452 138.06 262.18C138.252 261.909 138.349 261.594 138.349 261.236C138.349 260.861 138.256 260.531 138.07 260.246C137.885 259.958 137.613 259.733 137.255 259.57C136.897 259.408 136.459 259.327 135.942 259.327H135.127V258.233H135.942C136.347 258.233 136.701 258.16 137.006 258.014C137.314 257.868 137.555 257.663 137.727 257.398C137.903 257.133 137.991 256.821 137.991 256.463C137.991 256.118 137.914 255.818 137.762 255.563C137.609 255.308 137.394 255.109 137.116 254.967C136.84 254.824 136.516 254.753 136.141 254.753C135.79 254.753 135.458 254.817 135.147 254.947C134.839 255.073 134.587 255.257 134.391 255.499C134.196 255.737 134.09 256.026 134.073 256.364H132.88C132.9 255.83 133.06 255.363 133.362 254.962C133.664 254.557 134.058 254.242 134.545 254.017C135.036 253.792 135.574 253.679 136.161 253.679C136.791 253.679 137.331 253.807 137.782 254.062C138.233 254.314 138.579 254.647 138.821 255.061C139.063 255.475 139.184 255.923 139.184 256.403C139.184 256.977 139.033 257.466 138.731 257.87C138.433 258.274 138.027 258.554 137.513 258.71V258.79C138.156 258.896 138.658 259.169 139.02 259.61C139.381 260.048 139.562 260.589 139.562 261.236C139.562 261.789 139.411 262.286 139.109 262.727C138.811 263.165 138.403 263.509 137.886 263.761C137.369 264.013 136.781 264.139 136.121 264.139Z" fill="black"/>
<path d="M370.315 264.139C369.633 264.139 369.029 264.018 368.506 263.776C367.985 263.531 367.579 263.195 367.288 262.767C366.996 262.336 366.852 261.846 366.855 261.295C366.852 260.865 366.936 260.467 367.109 260.102C367.281 259.734 367.516 259.428 367.815 259.183C368.116 258.934 368.453 258.777 368.824 258.71V258.651C368.337 258.525 367.949 258.251 367.661 257.83C367.372 257.406 367.23 256.924 367.233 256.384C367.23 255.866 367.361 255.404 367.626 254.996C367.891 254.589 368.255 254.267 368.719 254.032C369.187 253.797 369.719 253.679 370.315 253.679C370.905 253.679 371.432 253.797 371.896 254.032C372.36 254.267 372.725 254.589 372.99 254.996C373.259 255.404 373.394 255.866 373.398 256.384C373.394 256.924 373.247 257.406 372.955 257.83C372.667 258.251 372.284 258.525 371.807 258.651V258.71C372.175 258.777 372.506 258.934 372.801 259.183C373.096 259.428 373.331 259.734 373.507 260.102C373.683 260.467 373.772 260.865 373.776 261.295C373.772 261.846 373.623 262.336 373.328 262.767C373.036 263.195 372.63 263.531 372.11 263.776C371.593 264.018 370.995 264.139 370.315 264.139ZM370.315 263.045C370.776 263.045 371.174 262.971 371.509 262.822C371.843 262.673 372.102 262.462 372.284 262.19C372.466 261.919 372.559 261.6 372.562 261.236C372.559 260.851 372.46 260.512 372.264 260.217C372.069 259.922 371.802 259.69 371.464 259.521C371.129 259.352 370.746 259.267 370.315 259.267C369.881 259.267 369.493 259.352 369.152 259.521C368.814 259.69 368.547 259.922 368.352 260.217C368.159 260.512 368.065 260.851 368.068 261.236C368.065 261.6 368.153 261.919 368.332 262.19C368.514 262.462 368.774 262.673 369.112 262.822C369.45 262.971 369.851 263.045 370.315 263.045ZM370.315 258.213C370.68 258.213 371.003 258.14 371.285 257.994C371.57 257.848 371.794 257.645 371.956 257.383C372.118 257.121 372.201 256.814 372.205 256.463C372.201 256.118 372.12 255.818 371.961 255.563C371.802 255.305 371.581 255.106 371.3 254.967C371.018 254.824 370.69 254.753 370.315 254.753C369.934 254.753 369.601 254.824 369.316 254.967C369.031 255.106 368.811 255.305 368.655 255.563C368.499 255.818 368.423 256.118 368.426 256.463C368.423 256.814 368.501 257.121 368.66 257.383C368.822 257.645 369.046 257.848 369.331 257.994C369.616 258.14 369.944 258.213 370.315 258.213ZM379.121 264.139C378.465 264.139 377.88 264.027 377.366 263.801C376.856 263.576 376.45 263.263 376.148 262.862C375.85 262.457 375.688 261.988 375.661 261.455H376.914C376.94 261.783 377.053 262.066 377.252 262.305C377.451 262.54 377.711 262.722 378.032 262.852C378.354 262.981 378.71 263.045 379.101 263.045C379.539 263.045 379.927 262.969 380.265 262.817C380.603 262.664 380.868 262.452 381.06 262.18C381.252 261.909 381.349 261.594 381.349 261.236C381.349 260.861 381.256 260.531 381.07 260.246C380.885 259.958 380.613 259.733 380.255 259.57C379.897 259.408 379.459 259.327 378.942 259.327H378.127V258.233H378.942C379.347 258.233 379.701 258.16 380.006 258.014C380.314 257.868 380.555 257.663 380.727 257.398C380.903 257.133 380.991 256.821 380.991 256.463C380.991 256.118 380.914 255.818 380.762 255.563C380.609 255.308 380.394 255.109 380.116 254.967C379.84 254.824 379.516 254.753 379.141 254.753C378.79 254.753 378.458 254.817 378.147 254.947C377.839 255.073 377.587 255.257 377.391 255.499C377.196 255.737 377.09 256.026 377.073 256.364H375.88C375.9 255.83 376.06 255.363 376.362 254.962C376.664 254.557 377.058 254.242 377.545 254.017C378.036 253.792 378.574 253.679 379.161 253.679C379.791 253.679 380.331 253.807 380.782 254.062C381.233 254.314 381.579 254.647 381.821 255.061C382.063 255.475 382.184 255.923 382.184 256.403C382.184 256.977 382.033 257.466 381.731 257.87C381.433 258.274 381.027 258.554 380.513 258.71V258.79C381.156 258.896 381.658 259.169 382.02 259.61C382.381 260.048 382.562 260.589 382.562 261.236C382.562 261.789 382.411 262.286 382.109 262.727C381.811 263.165 381.403 263.509 380.886 263.761C380.369 264.013 379.781 264.139 379.121 264.139Z" fill="black"/>
<path d="M176.295 253.679C176.713 253.682 177.131 253.762 177.548 253.918C177.966 254.073 178.347 254.332 178.692 254.693C179.036 255.051 179.313 255.54 179.522 256.16C179.731 256.78 179.835 257.557 179.835 258.491C179.835 259.396 179.749 260.2 179.577 260.903C179.408 261.602 179.162 262.192 178.841 262.673C178.523 263.153 178.135 263.518 177.678 263.766C177.223 264.015 176.71 264.139 176.136 264.139C175.566 264.139 175.058 264.027 174.61 263.801C174.166 263.572 173.801 263.256 173.516 262.852C173.235 262.444 173.054 261.972 172.974 261.435H174.188C174.297 261.902 174.514 262.288 174.839 262.593C175.167 262.895 175.599 263.045 176.136 263.045C176.922 263.045 177.542 262.702 177.996 262.016C178.453 261.33 178.682 260.361 178.682 259.108H178.602C178.417 259.386 178.196 259.627 177.941 259.829C177.686 260.031 177.402 260.187 177.091 260.296C176.779 260.406 176.448 260.46 176.097 260.46C175.513 260.46 174.978 260.316 174.491 260.028C174.007 259.736 173.619 259.337 173.327 258.83C173.039 258.319 172.895 257.736 172.895 257.08C172.895 256.456 173.034 255.886 173.312 255.369C173.594 254.849 173.989 254.435 174.496 254.126C175.006 253.818 175.606 253.669 176.295 253.679ZM176.295 254.773C175.878 254.773 175.502 254.877 175.167 255.086C174.835 255.291 174.572 255.57 174.376 255.921C174.184 256.269 174.088 256.655 174.088 257.08C174.088 257.504 174.181 257.89 174.366 258.238C174.555 258.583 174.812 258.858 175.137 259.063C175.465 259.265 175.838 259.366 176.256 259.366C176.571 259.366 176.864 259.305 177.136 259.183C177.407 259.057 177.644 258.886 177.847 258.67C178.052 258.452 178.213 258.205 178.329 257.93C178.445 257.651 178.503 257.361 178.503 257.06C178.503 256.662 178.407 256.289 178.214 255.941C178.026 255.593 177.764 255.311 177.429 255.096C177.098 254.88 176.72 254.773 176.295 254.773ZM185.171 264.139C184.753 264.133 184.336 264.053 183.918 263.901C183.501 263.748 183.119 263.491 182.775 263.13C182.43 262.765 182.153 262.273 181.944 261.653C181.736 261.03 181.631 260.248 181.631 259.307C181.631 258.405 181.716 257.607 181.885 256.911C182.054 256.211 182.299 255.623 182.621 255.146C182.942 254.665 183.33 254.3 183.784 254.052C184.241 253.803 184.757 253.679 185.33 253.679C185.9 253.679 186.407 253.793 186.851 254.022C187.299 254.247 187.663 254.562 187.945 254.967C188.227 255.371 188.409 255.837 188.492 256.364H187.279C187.166 255.906 186.948 255.527 186.623 255.225C186.298 254.924 185.867 254.773 185.33 254.773C184.541 254.773 183.92 255.116 183.466 255.802C183.015 256.488 182.788 257.451 182.785 258.69H182.864C183.05 258.409 183.27 258.168 183.525 257.969C183.784 257.767 184.069 257.612 184.381 257.502C184.692 257.393 185.022 257.338 185.37 257.338C185.953 257.338 186.487 257.484 186.971 257.776C187.455 258.064 187.842 258.463 188.134 258.974C188.426 259.481 188.572 260.062 188.572 260.719C188.572 261.348 188.431 261.925 188.149 262.449C187.867 262.969 187.471 263.384 186.961 263.692C186.454 263.997 185.857 264.146 185.171 264.139ZM185.171 263.045C185.589 263.045 185.963 262.941 186.295 262.732C186.629 262.523 186.893 262.243 187.085 261.892C187.281 261.541 187.378 261.15 187.378 260.719C187.378 260.298 187.284 259.915 187.095 259.57C186.909 259.222 186.653 258.946 186.324 258.74C186 258.535 185.628 258.432 185.211 258.432C184.896 258.432 184.603 258.495 184.331 258.621C184.059 258.743 183.82 258.912 183.615 259.128C183.413 259.343 183.254 259.59 183.138 259.869C183.022 260.144 182.964 260.434 182.964 260.739C182.964 261.143 183.058 261.521 183.247 261.872C183.439 262.223 183.701 262.507 184.032 262.722C184.367 262.938 184.747 263.045 185.171 263.045Z" fill="black"/>
<path d="M419.295 253.679C419.713 253.682 420.131 253.762 420.548 253.918C420.966 254.073 421.347 254.332 421.692 254.693C422.036 255.051 422.313 255.54 422.522 256.16C422.731 256.78 422.835 257.557 422.835 258.491C422.835 259.396 422.749 260.2 422.577 260.903C422.408 261.602 422.162 262.192 421.841 262.673C421.523 263.153 421.135 263.518 420.678 263.766C420.223 264.015 419.71 264.139 419.136 264.139C418.566 264.139 418.058 264.027 417.61 263.801C417.166 263.572 416.801 263.256 416.516 262.852C416.235 262.444 416.054 261.972 415.974 261.435H417.188C417.297 261.902 417.514 262.288 417.839 262.593C418.167 262.895 418.599 263.045 419.136 263.045C419.922 263.045 420.542 262.702 420.996 262.016C421.453 261.33 421.682 260.361 421.682 259.108H421.602C421.417 259.386 421.196 259.627 420.941 259.829C420.686 260.031 420.402 260.187 420.091 260.296C419.779 260.406 419.448 260.46 419.097 260.46C418.513 260.46 417.978 260.316 417.491 260.028C417.007 259.736 416.619 259.337 416.327 258.83C416.039 258.319 415.895 257.736 415.895 257.08C415.895 256.456 416.034 255.886 416.312 255.369C416.594 254.849 416.989 254.435 417.496 254.126C418.006 253.818 418.606 253.669 419.295 253.679ZM419.295 254.773C418.878 254.773 418.502 254.877 418.167 255.086C417.835 255.291 417.572 255.57 417.376 255.921C417.184 256.269 417.088 256.655 417.088 257.08C417.088 257.504 417.181 257.89 417.366 258.238C417.555 258.583 417.812 258.858 418.137 259.063C418.465 259.265 418.838 259.366 419.256 259.366C419.571 259.366 419.864 259.305 420.136 259.183C420.407 259.057 420.644 258.886 420.847 258.67C421.052 258.452 421.213 258.205 421.329 257.93C421.445 257.651 421.503 257.361 421.503 257.06C421.503 256.662 421.407 256.289 421.214 255.941C421.026 255.593 420.764 255.311 420.429 255.096C420.098 254.88 419.72 254.773 419.295 254.773ZM428.171 264.139C427.753 264.133 427.336 264.053 426.918 263.901C426.501 263.748 426.119 263.491 425.775 263.13C425.43 262.765 425.153 262.273 424.944 261.653C424.736 261.03 424.631 260.248 424.631 259.307C424.631 258.405 424.716 257.607 424.885 256.911C425.054 256.211 425.299 255.623 425.621 255.146C425.942 254.665 426.33 254.3 426.784 254.052C427.241 253.803 427.757 253.679 428.33 253.679C428.9 253.679 429.407 253.793 429.851 254.022C430.299 254.247 430.663 254.562 430.945 254.967C431.227 255.371 431.409 255.837 431.492 256.364H430.279C430.166 255.906 429.948 255.527 429.623 255.225C429.298 254.924 428.867 254.773 428.33 254.773C427.541 254.773 426.92 255.116 426.466 255.802C426.015 256.488 425.788 257.451 425.785 258.69H425.864C426.05 258.409 426.27 258.168 426.525 257.969C426.784 257.767 427.069 257.612 427.381 257.502C427.692 257.393 428.022 257.338 428.37 257.338C428.953 257.338 429.487 257.484 429.971 257.776C430.455 258.064 430.842 258.463 431.134 258.974C431.426 259.481 431.572 260.062 431.572 260.719C431.572 261.348 431.431 261.925 431.149 262.449C430.867 262.969 430.471 263.384 429.961 263.692C429.454 263.997 428.857 264.146 428.171 264.139ZM428.171 263.045C428.589 263.045 428.963 262.941 429.295 262.732C429.629 262.523 429.893 262.243 430.085 261.892C430.281 261.541 430.378 261.15 430.378 260.719C430.378 260.298 430.284 259.915 430.095 259.57C429.909 259.222 429.653 258.946 429.324 258.74C429 258.535 428.628 258.432 428.211 258.432C427.896 258.432 427.603 258.495 427.331 258.621C427.059 258.743 426.82 258.912 426.615 259.128C426.413 259.343 426.254 259.59 426.138 259.869C426.022 260.144 425.964 260.434 425.964 260.739C425.964 261.143 426.058 261.521 426.247 261.872C426.439 262.223 426.701 262.507 427.032 262.722C427.367 262.938 427.747 263.045 428.171 263.045Z" fill="black"/>
<path d="M225.295 253.679C225.713 253.682 226.131 253.762 226.548 253.918C226.966 254.073 227.347 254.332 227.692 254.693C228.036 255.051 228.313 255.54 228.522 256.16C228.731 256.78 228.835 257.557 228.835 258.491C228.835 259.396 228.749 260.2 228.577 260.903C228.408 261.602 228.162 262.192 227.841 262.673C227.523 263.153 227.135 263.518 226.678 263.766C226.223 264.015 225.71 264.139 225.136 264.139C224.566 264.139 224.058 264.027 223.61 263.801C223.166 263.572 222.801 263.256 222.516 262.852C222.235 262.444 222.054 261.972 221.974 261.435H223.188C223.297 261.902 223.514 262.288 223.839 262.593C224.167 262.895 224.599 263.045 225.136 263.045C225.922 263.045 226.542 262.702 226.996 262.016C227.453 261.33 227.682 260.361 227.682 259.108H227.602C227.417 259.386 227.196 259.627 226.941 259.829C226.686 260.031 226.402 260.187 226.091 260.296C225.779 260.406 225.448 260.46 225.097 260.46C224.513 260.46 223.978 260.316 223.491 260.028C223.007 259.736 222.619 259.337 222.327 258.83C222.039 258.319 221.895 257.736 221.895 257.08C221.895 256.456 222.034 255.886 222.312 255.369C222.594 254.849 222.989 254.435 223.496 254.126C224.006 253.818 224.606 253.669 225.295 253.679ZM225.295 254.773C224.878 254.773 224.502 254.877 224.167 255.086C223.835 255.291 223.572 255.57 223.376 255.921C223.184 256.269 223.088 256.655 223.088 257.08C223.088 257.504 223.181 257.89 223.366 258.238C223.555 258.583 223.812 258.858 224.137 259.063C224.465 259.265 224.838 259.366 225.256 259.366C225.571 259.366 225.864 259.305 226.136 259.183C226.407 259.057 226.644 258.886 226.847 258.67C227.052 258.452 227.213 258.205 227.329 257.93C227.445 257.651 227.503 257.361 227.503 257.06C227.503 256.662 227.407 256.289 227.214 255.941C227.026 255.593 226.764 255.311 226.429 255.096C226.098 254.88 225.72 254.773 225.295 254.773ZM234.171 264.139C233.753 264.133 233.336 264.053 232.918 263.901C232.501 263.748 232.119 263.491 231.775 263.13C231.43 262.765 231.153 262.273 230.944 261.653C230.736 261.03 230.631 260.248 230.631 259.307C230.631 258.405 230.716 257.607 230.885 256.911C231.054 256.211 231.299 255.623 231.621 255.146C231.942 254.665 232.33 254.3 232.784 254.052C233.241 253.803 233.757 253.679 234.33 253.679C234.9 253.679 235.407 253.793 235.851 254.022C236.299 254.247 236.663 254.562 236.945 254.967C237.227 255.371 237.409 255.837 237.492 256.364H236.279C236.166 255.906 235.948 255.527 235.623 255.225C235.298 254.924 234.867 254.773 234.33 254.773C233.541 254.773 232.92 255.116 232.466 255.802C232.015 256.488 231.788 257.451 231.785 258.69H231.864C232.05 258.409 232.27 258.168 232.525 257.969C232.784 257.767 233.069 257.612 233.381 257.502C233.692 257.393 234.022 257.338 234.37 257.338C234.953 257.338 235.487 257.484 235.971 257.776C236.455 258.064 236.842 258.463 237.134 258.974C237.426 259.481 237.572 260.062 237.572 260.719C237.572 261.348 237.431 261.925 237.149 262.449C236.867 262.969 236.471 263.384 235.961 263.692C235.454 263.997 234.857 264.146 234.171 264.139ZM234.171 263.045C234.589 263.045 234.963 262.941 235.295 262.732C235.629 262.523 235.893 262.243 236.085 261.892C236.281 261.541 236.378 261.15 236.378 260.719C236.378 260.298 236.284 259.915 236.095 259.57C235.909 259.222 235.653 258.946 235.324 258.74C235 258.535 234.628 258.432 234.211 258.432C233.896 258.432 233.603 258.495 233.331 258.621C233.059 258.743 232.82 258.912 232.615 259.128C232.413 259.343 232.254 259.59 232.138 259.869C232.022 260.144 231.964 260.434 231.964 260.739C231.964 261.143 232.058 261.521 232.247 261.872C232.439 262.223 232.701 262.507 233.032 262.722C233.367 262.938 233.747 263.045 234.171 263.045Z" fill="black"/>
<path d="M468.295 253.679C468.713 253.682 469.131 253.762 469.548 253.918C469.966 254.073 470.347 254.332 470.692 254.693C471.036 255.051 471.313 255.54 471.522 256.16C471.731 256.78 471.835 257.557 471.835 258.491C471.835 259.396 471.749 260.2 471.577 260.903C471.408 261.602 471.162 262.192 470.841 262.673C470.523 263.153 470.135 263.518 469.678 263.766C469.223 264.015 468.71 264.139 468.136 264.139C467.566 264.139 467.058 264.027 466.61 263.801C466.166 263.572 465.801 263.256 465.516 262.852C465.235 262.444 465.054 261.972 464.974 261.435H466.188C466.297 261.902 466.514 262.288 466.839 262.593C467.167 262.895 467.599 263.045 468.136 263.045C468.922 263.045 469.542 262.702 469.996 262.016C470.453 261.33 470.682 260.361 470.682 259.108H470.602C470.417 259.386 470.196 259.627 469.941 259.829C469.686 260.031 469.402 260.187 469.091 260.296C468.779 260.406 468.448 260.46 468.097 260.46C467.513 260.46 466.978 260.316 466.491 260.028C466.007 259.736 465.619 259.337 465.327 258.83C465.039 258.319 464.895 257.736 464.895 257.08C464.895 256.456 465.034 255.886 465.312 255.369C465.594 254.849 465.989 254.435 466.496 254.126C467.006 253.818 467.606 253.669 468.295 253.679ZM468.295 254.773C467.878 254.773 467.502 254.877 467.167 255.086C466.835 255.291 466.572 255.57 466.376 255.921C466.184 256.269 466.088 256.655 466.088 257.08C466.088 257.504 466.181 257.89 466.366 258.238C466.555 258.583 466.812 258.858 467.137 259.063C467.465 259.265 467.838 259.366 468.256 259.366C468.571 259.366 468.864 259.305 469.136 259.183C469.407 259.057 469.644 258.886 469.847 258.67C470.052 258.452 470.213 258.205 470.329 257.93C470.445 257.651 470.503 257.361 470.503 257.06C470.503 256.662 470.407 256.289 470.214 255.941C470.026 255.593 469.764 255.311 469.429 255.096C469.098 254.88 468.72 254.773 468.295 254.773ZM477.171 264.139C476.753 264.133 476.336 264.053 475.918 263.901C475.501 263.748 475.119 263.491 474.775 263.13C474.43 262.765 474.153 262.273 473.944 261.653C473.736 261.03 473.631 260.248 473.631 259.307C473.631 258.405 473.716 257.607 473.885 256.911C474.054 256.211 474.299 255.623 474.621 255.146C474.942 254.665 475.33 254.3 475.784 254.052C476.241 253.803 476.757 253.679 477.33 253.679C477.9 253.679 478.407 253.793 478.851 254.022C479.299 254.247 479.663 254.562 479.945 254.967C480.227 255.371 480.409 255.837 480.492 256.364H479.279C479.166 255.906 478.948 255.527 478.623 255.225C478.298 254.924 477.867 254.773 477.33 254.773C476.541 254.773 475.92 255.116 475.466 255.802C475.015 256.488 474.788 257.451 474.785 258.69H474.864C475.05 258.409 475.27 258.168 475.525 257.969C475.784 257.767 476.069 257.612 476.381 257.502C476.692 257.393 477.022 257.338 477.37 257.338C477.953 257.338 478.487 257.484 478.971 257.776C479.455 258.064 479.842 258.463 480.134 258.974C480.426 259.481 480.572 260.062 480.572 260.719C480.572 261.348 480.431 261.925 480.149 262.449C479.867 262.969 479.471 263.384 478.961 263.692C478.454 263.997 477.857 264.146 477.171 264.139ZM477.171 263.045C477.589 263.045 477.963 262.941 478.295 262.732C478.629 262.523 478.893 262.243 479.085 261.892C479.281 261.541 479.378 261.15 479.378 260.719C479.378 260.298 479.284 259.915 479.095 259.57C478.909 259.222 478.653 258.946 478.324 258.74C478 258.535 477.628 258.432 477.211 258.432C476.896 258.432 476.603 258.495 476.331 258.621C476.059 258.743 475.82 258.912 475.615 259.128C475.413 259.343 475.254 259.59 475.138 259.869C475.022 260.144 474.964 260.434 474.964 260.739C474.964 261.143 475.058 261.521 475.247 261.872C475.439 262.223 475.701 262.507 476.032 262.722C476.367 262.938 476.747 263.045 477.171 263.045Z" fill="black"/>
<path d="M19.1293 279V278.041L22.7301 274.099C23.1527 273.638 23.5007 273.237 23.7741 272.896C24.0476 272.551 24.25 272.228 24.3814 271.926C24.5163 271.621 24.5838 271.301 24.5838 270.967C24.5838 270.584 24.4915 270.252 24.3068 269.971C24.1257 269.691 23.8771 269.474 23.5611 269.321C23.245 269.169 22.8899 269.092 22.4957 269.092C22.0767 269.092 21.7109 269.179 21.3984 269.353C21.0895 269.524 20.8498 269.763 20.6793 270.072C20.5124 270.381 20.429 270.744 20.429 271.159H19.1719C19.1719 270.52 19.3192 269.959 19.614 269.476C19.9087 268.993 20.31 268.616 20.8178 268.347C21.3292 268.077 21.9027 267.942 22.5384 267.942C23.1776 267.942 23.744 268.077 24.2376 268.347C24.7312 268.616 25.1183 268.98 25.3988 269.439C25.6793 269.897 25.8196 270.406 25.8196 270.967C25.8196 271.369 25.7468 271.761 25.6012 272.145C25.4592 272.525 25.2106 272.949 24.8555 273.418C24.5039 273.883 24.0156 274.451 23.3906 275.122L20.9403 277.743V277.828H26.0114V279H19.1293ZM31.7695 279.149C30.967 279.149 30.2834 278.931 29.7188 278.494C29.1541 278.054 28.7227 277.416 28.4244 276.582C28.1261 275.744 27.9769 274.732 27.9769 273.545C27.9769 272.366 28.1261 271.36 28.4244 270.525C28.7262 269.687 29.1594 269.048 29.7241 268.608C30.2923 268.164 30.9741 267.942 31.7695 267.942C32.565 267.942 33.245 268.164 33.8097 268.608C34.3778 269.048 34.8111 269.687 35.1094 270.525C35.4112 271.36 35.5621 272.366 35.5621 273.545C35.5621 274.732 35.413 275.744 35.1147 276.582C34.8164 277.416 34.3849 278.054 33.8203 278.494C33.2557 278.931 32.5721 279.149 31.7695 279.149ZM31.7695 277.977C32.565 277.977 33.1829 277.594 33.6232 276.827C34.0636 276.06 34.2837 274.966 34.2837 273.545C34.2837 272.601 34.1825 271.797 33.9801 271.132C33.7813 270.468 33.4936 269.962 33.1172 269.614C32.7443 269.266 32.2951 269.092 31.7695 269.092C30.9812 269.092 30.3651 269.481 29.9212 270.259C29.4773 271.033 29.2553 272.129 29.2553 273.545C29.2553 274.49 29.3548 275.293 29.5536 275.953C29.7525 276.614 30.0384 277.116 30.4112 277.461C30.7876 277.805 31.2404 277.977 31.7695 277.977ZM41.4215 268.091V279H40.1005V269.476H40.0366L37.3732 271.244V269.902L40.1005 268.091H41.4215ZM48.032 267.942C48.4794 267.945 48.9268 268.031 49.3743 268.197C49.8217 268.364 50.2301 268.641 50.5994 269.028C50.9688 269.412 51.2653 269.936 51.489 270.6C51.7127 271.264 51.8246 272.097 51.8246 273.098C51.8246 274.067 51.7322 274.929 51.5476 275.681C51.3665 276.431 51.1037 277.063 50.7592 277.578C50.4183 278.093 50.0028 278.483 49.5128 278.75C49.0263 279.016 48.4759 279.149 47.8615 279.149C47.2507 279.149 46.7056 279.028 46.2262 278.787C45.7504 278.542 45.3597 278.203 45.0543 277.77C44.7525 277.333 44.5589 276.827 44.4737 276.251H45.7734C45.8906 276.752 46.1232 277.166 46.4712 277.493C46.8228 277.816 47.2862 277.977 47.8615 277.977C48.7031 277.977 49.3672 277.61 49.8537 276.875C50.3438 276.14 50.5888 275.101 50.5888 273.759H50.5036C50.3047 274.057 50.0685 274.314 49.7951 274.531C49.5217 274.748 49.218 274.914 48.8842 275.032C48.5504 275.149 48.1953 275.207 47.8189 275.207C47.1939 275.207 46.6204 275.053 46.0984 274.744C45.5799 274.431 45.1644 274.004 44.8519 273.46C44.543 272.913 44.3885 272.288 44.3885 271.585C44.3885 270.918 44.5376 270.307 44.8359 269.753C45.1378 269.195 45.5604 268.751 46.1037 268.421C46.6506 268.091 47.2933 267.931 48.032 267.942ZM48.032 269.114C47.5845 269.114 47.1815 269.225 46.8228 269.449C46.4677 269.669 46.1854 269.968 45.9759 270.344C45.7699 270.717 45.6669 271.131 45.6669 271.585C45.6669 272.04 45.7663 272.453 45.9652 272.826C46.1676 273.196 46.4428 273.49 46.7908 273.711C47.1424 273.927 47.5419 274.036 47.9893 274.036C48.3267 274.036 48.641 273.97 48.9322 273.838C49.2234 273.703 49.4773 273.521 49.6939 273.29C49.9141 273.055 50.0863 272.791 50.2106 272.496C50.3349 272.198 50.397 271.887 50.397 271.564C50.397 271.138 50.294 270.738 50.0881 270.365C49.8857 269.993 49.6051 269.691 49.2464 269.46C48.8913 269.229 48.4865 269.114 48.032 269.114Z" fill="black"/>
<path d="M261.129 279V278.041L264.73 274.099C265.153 273.638 265.501 273.237 265.774 272.896C266.048 272.551 266.25 272.228 266.381 271.926C266.516 271.621 266.584 271.301 266.584 270.967C266.584 270.584 266.491 270.252 266.307 269.971C266.126 269.691 265.877 269.474 265.561 269.321C265.245 269.169 264.89 269.092 264.496 269.092C264.077 269.092 263.711 269.179 263.398 269.353C263.089 269.524 262.85 269.763 262.679 270.072C262.512 270.381 262.429 270.744 262.429 271.159H261.172C261.172 270.52 261.319 269.959 261.614 269.476C261.909 268.993 262.31 268.616 262.818 268.347C263.329 268.077 263.903 267.942 264.538 267.942C265.178 267.942 265.744 268.077 266.238 268.347C266.731 268.616 267.118 268.98 267.399 269.439C267.679 269.897 267.82 270.406 267.82 270.967C267.82 271.369 267.747 271.761 267.601 272.145C267.459 272.525 267.211 272.949 266.855 273.418C266.504 273.883 266.016 274.451 265.391 275.122L262.94 277.743V277.828H268.011V279H261.129ZM273.77 279.149C272.967 279.149 272.283 278.931 271.719 278.494C271.154 278.054 270.723 277.416 270.424 276.582C270.126 275.744 269.977 274.732 269.977 273.545C269.977 272.366 270.126 271.36 270.424 270.525C270.726 269.687 271.159 269.048 271.724 268.608C272.292 268.164 272.974 267.942 273.77 267.942C274.565 267.942 275.245 268.164 275.81 268.608C276.378 269.048 276.811 269.687 277.109 270.525C277.411 271.36 277.562 272.366 277.562 273.545C277.562 274.732 277.413 275.744 277.115 276.582C276.816 277.416 276.385 278.054 275.82 278.494C275.256 278.931 274.572 279.149 273.77 279.149ZM273.77 277.977C274.565 277.977 275.183 277.594 275.623 276.827C276.064 276.06 276.284 274.966 276.284 273.545C276.284 272.601 276.183 271.797 275.98 271.132C275.781 270.468 275.494 269.962 275.117 269.614C274.744 269.266 274.295 269.092 273.77 269.092C272.981 269.092 272.365 269.481 271.921 270.259C271.477 271.033 271.255 272.129 271.255 273.545C271.255 274.49 271.355 275.293 271.554 275.953C271.752 276.614 272.038 277.116 272.411 277.461C272.788 277.805 273.24 277.977 273.77 277.977ZM279.586 279V278.041L283.187 274.099C283.61 273.638 283.958 273.237 284.231 272.896C284.505 272.551 284.707 272.228 284.838 271.926C284.973 271.621 285.041 271.301 285.041 270.967C285.041 270.584 284.949 270.252 284.764 269.971C284.583 269.691 284.334 269.474 284.018 269.321C283.702 269.169 283.347 269.092 282.953 269.092C282.534 269.092 282.168 269.179 281.855 269.353C281.547 269.524 281.307 269.763 281.136 270.072C280.969 270.381 280.886 270.744 280.886 271.159H279.629C279.629 270.52 279.776 269.959 280.071 269.476C280.366 268.993 280.767 268.616 281.275 268.347C281.786 268.077 282.36 267.942 282.995 267.942C283.635 267.942 284.201 268.077 284.695 268.347C285.188 268.616 285.575 268.98 285.856 269.439C286.136 269.897 286.277 270.406 286.277 270.967C286.277 271.369 286.204 271.761 286.058 272.145C285.916 272.525 285.668 272.949 285.312 273.418C284.961 273.883 284.473 274.451 283.848 275.122L281.397 277.743V277.828H286.468V279H279.586ZM288.178 276.763V275.676L292.972 268.091H293.761V269.774H293.228L289.606 275.506V275.591H296.062V276.763H288.178ZM293.313 279V276.433V275.926V268.091H294.57V279H293.313Z" fill="black"/>
<path d="M66.1293 279V278.041L69.7301 274.099C70.1527 273.638 70.5007 273.237 70.7741 272.896C71.0476 272.551 71.25 272.228 71.3814 271.926C71.5163 271.621 71.5838 271.301 71.5838 270.967C71.5838 270.584 71.4915 270.252 71.3068 269.971C71.1257 269.691 70.8771 269.474 70.5611 269.321C70.245 269.169 69.8899 269.092 69.4957 269.092C69.0767 269.092 68.7109 269.179 68.3984 269.353C68.0895 269.524 67.8498 269.763 67.6793 270.072C67.5124 270.381 67.429 270.744 67.429 271.159H66.1719C66.1719 270.52 66.3192 269.959 66.614 269.476C66.9087 268.993 67.31 268.616 67.8178 268.347C68.3292 268.077 68.9027 267.942 69.5384 267.942C70.1776 267.942 70.744 268.077 71.2376 268.347C71.7312 268.616 72.1183 268.98 72.3988 269.439C72.6793 269.897 72.8196 270.406 72.8196 270.967C72.8196 271.369 72.7468 271.761 72.6012 272.145C72.4592 272.525 72.2106 272.949 71.8555 273.418C71.5039 273.883 71.0156 274.451 70.3906 275.122L67.9403 277.743V277.828H73.0114V279H66.1293ZM78.7695 279.149C77.967 279.149 77.2834 278.931 76.7188 278.494C76.1541 278.054 75.7227 277.416 75.4244 276.582C75.1261 275.744 74.9769 274.732 74.9769 273.545C74.9769 272.366 75.1261 271.36 75.4244 270.525C75.7262 269.687 76.1594 269.048 76.7241 268.608C77.2923 268.164 77.9741 267.942 78.7695 267.942C79.565 267.942 80.245 268.164 80.8097 268.608C81.3778 269.048 81.8111 269.687 82.1094 270.525C82.4112 271.36 82.5621 272.366 82.5621 273.545C82.5621 274.732 82.413 275.744 82.1147 276.582C81.8164 277.416 81.3849 278.054 80.8203 278.494C80.2557 278.931 79.5721 279.149 78.7695 279.149ZM78.7695 277.977C79.565 277.977 80.1829 277.594 80.6232 276.827C81.0636 276.06 81.2837 274.966 81.2837 273.545C81.2837 272.601 81.1825 271.797 80.9801 271.132C80.7813 270.468 80.4936 269.962 80.1172 269.614C79.7443 269.266 79.2951 269.092 78.7695 269.092C77.9812 269.092 77.3651 269.481 76.9212 270.259C76.4773 271.033 76.2553 272.129 76.2553 273.545C76.2553 274.49 76.3548 275.293 76.5536 275.953C76.7525 276.614 77.0384 277.116 77.4112 277.461C77.7876 277.805 78.2404 277.977 78.7695 277.977ZM84.5863 279V278.041L88.1871 274.099C88.6097 273.638 88.9577 273.237 89.2312 272.896C89.5046 272.551 89.707 272.228 89.8384 271.926C89.9734 271.621 90.0408 271.301 90.0408 270.967C90.0408 270.584 89.9485 270.252 89.7638 269.971C89.5827 269.691 89.3342 269.474 89.0181 269.321C88.7021 269.169 88.3469 269.092 87.9528 269.092C87.5337 269.092 87.168 269.179 86.8555 269.353C86.5465 269.524 86.3068 269.763 86.1364 270.072C85.9695 270.381 85.886 270.744 85.886 271.159H84.6289C84.6289 270.52 84.7763 269.959 85.071 269.476C85.3658 268.993 85.767 268.616 86.2749 268.347C86.7862 268.077 87.3597 267.942 87.9954 267.942C88.6346 267.942 89.201 268.077 89.6946 268.347C90.1882 268.616 90.5753 268.98 90.8558 269.439C91.1364 269.897 91.2766 270.406 91.2766 270.967C91.2766 271.369 91.2038 271.761 91.0582 272.145C90.9162 272.525 90.6676 272.949 90.3125 273.418C89.9609 273.883 89.4727 274.451 88.8477 275.122L86.3974 277.743V277.828H91.4684V279H84.5863ZM97.2266 279.149C96.424 279.149 95.7404 278.931 95.1758 278.494C94.6112 278.054 94.1797 277.416 93.8814 276.582C93.5831 275.744 93.4339 274.732 93.4339 273.545C93.4339 272.366 93.5831 271.36 93.8814 270.525C94.1832 269.687 94.6165 269.048 95.1811 268.608C95.7493 268.164 96.4311 267.942 97.2266 267.942C98.022 267.942 98.7021 268.164 99.2667 268.608C99.8349 269.048 100.268 269.687 100.566 270.525C100.868 271.36 101.019 272.366 101.019 273.545C101.019 274.732 100.87 275.744 100.572 276.582C100.273 277.416 99.842 278.054 99.2773 278.494C98.7127 278.931 98.0291 279.149 97.2266 279.149ZM97.2266 277.977C98.022 277.977 98.6399 277.594 99.0803 276.827C99.5206 276.06 99.7408 274.966 99.7408 273.545C99.7408 272.601 99.6396 271.797 99.4371 271.132C99.2383 270.468 98.9506 269.962 98.5742 269.614C98.2013 269.266 97.7521 269.092 97.2266 269.092C96.4382 269.092 95.8221 269.481 95.3782 270.259C94.9343 271.033 94.7124 272.129 94.7124 273.545C94.7124 274.49 94.8118 275.293 95.0107 275.953C95.2095 276.614 95.4954 277.116 95.8683 277.461C96.2447 277.805 96.6974 277.977 97.2266 277.977Z" fill="black"/>
<path d="M309.129 279V278.041L312.73 274.099C313.153 273.638 313.501 273.237 313.774 272.896C314.048 272.551 314.25 272.228 314.381 271.926C314.516 271.621 314.584 271.301 314.584 270.967C314.584 270.584 314.491 270.252 314.307 269.971C314.126 269.691 313.877 269.474 313.561 269.321C313.245 269.169 312.89 269.092 312.496 269.092C312.077 269.092 311.711 269.179 311.398 269.353C311.089 269.524 310.85 269.763 310.679 270.072C310.512 270.381 310.429 270.744 310.429 271.159H309.172C309.172 270.52 309.319 269.959 309.614 269.476C309.909 268.993 310.31 268.616 310.818 268.347C311.329 268.077 311.903 267.942 312.538 267.942C313.178 267.942 313.744 268.077 314.238 268.347C314.731 268.616 315.118 268.98 315.399 269.439C315.679 269.897 315.82 270.406 315.82 270.967C315.82 271.369 315.747 271.761 315.601 272.145C315.459 272.525 315.211 272.949 314.855 273.418C314.504 273.883 314.016 274.451 313.391 275.122L310.94 277.743V277.828H316.011V279H309.129ZM321.77 279.149C320.967 279.149 320.283 278.931 319.719 278.494C319.154 278.054 318.723 277.416 318.424 276.582C318.126 275.744 317.977 274.732 317.977 273.545C317.977 272.366 318.126 271.36 318.424 270.525C318.726 269.687 319.159 269.048 319.724 268.608C320.292 268.164 320.974 267.942 321.77 267.942C322.565 267.942 323.245 268.164 323.81 268.608C324.378 269.048 324.811 269.687 325.109 270.525C325.411 271.36 325.562 272.366 325.562 273.545C325.562 274.732 325.413 275.744 325.115 276.582C324.816 277.416 324.385 278.054 323.82 278.494C323.256 278.931 322.572 279.149 321.77 279.149ZM321.77 277.977C322.565 277.977 323.183 277.594 323.623 276.827C324.064 276.06 324.284 274.966 324.284 273.545C324.284 272.601 324.183 271.797 323.98 271.132C323.781 270.468 323.494 269.962 323.117 269.614C322.744 269.266 322.295 269.092 321.77 269.092C320.981 269.092 320.365 269.481 319.921 270.259C319.477 271.033 319.255 272.129 319.255 273.545C319.255 274.49 319.355 275.293 319.554 275.953C319.752 276.614 320.038 277.116 320.411 277.461C320.788 277.805 321.24 277.977 321.77 277.977ZM327.586 279V278.041L331.187 274.099C331.61 273.638 331.958 273.237 332.231 272.896C332.505 272.551 332.707 272.228 332.838 271.926C332.973 271.621 333.041 271.301 333.041 270.967C333.041 270.584 332.949 270.252 332.764 269.971C332.583 269.691 332.334 269.474 332.018 269.321C331.702 269.169 331.347 269.092 330.953 269.092C330.534 269.092 330.168 269.179 329.855 269.353C329.547 269.524 329.307 269.763 329.136 270.072C328.969 270.381 328.886 270.744 328.886 271.159H327.629C327.629 270.52 327.776 269.959 328.071 269.476C328.366 268.993 328.767 268.616 329.275 268.347C329.786 268.077 330.36 267.942 330.995 267.942C331.635 267.942 332.201 268.077 332.695 268.347C333.188 268.616 333.575 268.98 333.856 269.439C334.136 269.897 334.277 270.406 334.277 270.967C334.277 271.369 334.204 271.761 334.058 272.145C333.916 272.525 333.668 272.949 333.312 273.418C332.961 273.883 332.473 274.451 331.848 275.122L329.397 277.743V277.828H334.468V279H327.586ZM340.077 279.149C339.452 279.149 338.89 279.025 338.389 278.776C337.888 278.528 337.487 278.187 337.185 277.754C336.883 277.32 336.718 276.827 336.69 276.273H337.968C338.018 276.766 338.241 277.175 338.639 277.498C339.04 277.817 339.52 277.977 340.077 277.977C340.525 277.977 340.923 277.873 341.271 277.663C341.622 277.453 341.897 277.166 342.096 276.8C342.299 276.431 342.4 276.013 342.4 275.548C342.4 275.072 342.295 274.648 342.086 274.275C341.88 273.899 341.596 273.602 341.233 273.386C340.871 273.169 340.457 273.059 339.992 273.055C339.658 273.052 339.316 273.103 338.964 273.21C338.613 273.313 338.323 273.446 338.096 273.609L336.86 273.46L337.521 268.091H343.188V269.263H338.629L338.245 272.48H338.309C338.533 272.303 338.813 272.155 339.151 272.038C339.488 271.921 339.839 271.862 340.205 271.862C340.873 271.862 341.468 272.022 341.99 272.342C342.515 272.658 342.927 273.091 343.225 273.641C343.527 274.192 343.678 274.82 343.678 275.527C343.678 276.223 343.522 276.844 343.21 277.391C342.901 277.935 342.474 278.364 341.931 278.68C341.388 278.993 340.77 279.149 340.077 279.149Z" fill="black"/>
<path d="M115.129 279V278.041L118.73 274.099C119.153 273.638 119.501 273.237 119.774 272.896C120.048 272.551 120.25 272.228 120.381 271.926C120.516 271.621 120.584 271.301 120.584 270.967C120.584 270.584 120.491 270.252 120.307 269.971C120.126 269.691 119.877 269.474 119.561 269.321C119.245 269.169 118.89 269.092 118.496 269.092C118.077 269.092 117.711 269.179 117.398 269.353C117.089 269.524 116.85 269.763 116.679 270.072C116.512 270.381 116.429 270.744 116.429 271.159H115.172C115.172 270.52 115.319 269.959 115.614 269.476C115.909 268.993 116.31 268.616 116.818 268.347C117.329 268.077 117.903 267.942 118.538 267.942C119.178 267.942 119.744 268.077 120.238 268.347C120.731 268.616 121.118 268.98 121.399 269.439C121.679 269.897 121.82 270.406 121.82 270.967C121.82 271.369 121.747 271.761 121.601 272.145C121.459 272.525 121.211 272.949 120.855 273.418C120.504 273.883 120.016 274.451 119.391 275.122L116.94 277.743V277.828H122.011V279H115.129ZM127.77 279.149C126.967 279.149 126.283 278.931 125.719 278.494C125.154 278.054 124.723 277.416 124.424 276.582C124.126 275.744 123.977 274.732 123.977 273.545C123.977 272.366 124.126 271.36 124.424 270.525C124.726 269.687 125.159 269.048 125.724 268.608C126.292 268.164 126.974 267.942 127.77 267.942C128.565 267.942 129.245 268.164 129.81 268.608C130.378 269.048 130.811 269.687 131.109 270.525C131.411 271.36 131.562 272.366 131.562 273.545C131.562 274.732 131.413 275.744 131.115 276.582C130.816 277.416 130.385 278.054 129.82 278.494C129.256 278.931 128.572 279.149 127.77 279.149ZM127.77 277.977C128.565 277.977 129.183 277.594 129.623 276.827C130.064 276.06 130.284 274.966 130.284 273.545C130.284 272.601 130.183 271.797 129.98 271.132C129.781 270.468 129.494 269.962 129.117 269.614C128.744 269.266 128.295 269.092 127.77 269.092C126.981 269.092 126.365 269.481 125.921 270.259C125.477 271.033 125.255 272.129 125.255 273.545C125.255 274.49 125.355 275.293 125.554 275.953C125.752 276.614 126.038 277.116 126.411 277.461C126.788 277.805 127.24 277.977 127.77 277.977ZM133.586 279V278.041L137.187 274.099C137.61 273.638 137.958 273.237 138.231 272.896C138.505 272.551 138.707 272.228 138.838 271.926C138.973 271.621 139.041 271.301 139.041 270.967C139.041 270.584 138.949 270.252 138.764 269.971C138.583 269.691 138.334 269.474 138.018 269.321C137.702 269.169 137.347 269.092 136.953 269.092C136.534 269.092 136.168 269.179 135.855 269.353C135.547 269.524 135.307 269.763 135.136 270.072C134.969 270.381 134.886 270.744 134.886 271.159H133.629C133.629 270.52 133.776 269.959 134.071 269.476C134.366 268.993 134.767 268.616 135.275 268.347C135.786 268.077 136.36 267.942 136.995 267.942C137.635 267.942 138.201 268.077 138.695 268.347C139.188 268.616 139.575 268.98 139.856 269.439C140.136 269.897 140.277 270.406 140.277 270.967C140.277 271.369 140.204 271.761 140.058 272.145C139.916 272.525 139.668 272.949 139.312 273.418C138.961 273.883 138.473 274.451 137.848 275.122L135.397 277.743V277.828H140.468V279H133.586ZM146.504 268.091V279H145.183V269.476H145.119L142.455 271.244V269.902L145.183 268.091H146.504Z" fill="black"/>
<path d="M357.129 279V278.041L360.73 274.099C361.153 273.638 361.501 273.237 361.774 272.896C362.048 272.551 362.25 272.228 362.381 271.926C362.516 271.621 362.584 271.301 362.584 270.967C362.584 270.584 362.491 270.252 362.307 269.971C362.126 269.691 361.877 269.474 361.561 269.321C361.245 269.169 360.89 269.092 360.496 269.092C360.077 269.092 359.711 269.179 359.398 269.353C359.089 269.524 358.85 269.763 358.679 270.072C358.512 270.381 358.429 270.744 358.429 271.159H357.172C357.172 270.52 357.319 269.959 357.614 269.476C357.909 268.993 358.31 268.616 358.818 268.347C359.329 268.077 359.903 267.942 360.538 267.942C361.178 267.942 361.744 268.077 362.238 268.347C362.731 268.616 363.118 268.98 363.399 269.439C363.679 269.897 363.82 270.406 363.82 270.967C363.82 271.369 363.747 271.761 363.601 272.145C363.459 272.525 363.211 272.949 362.855 273.418C362.504 273.883 362.016 274.451 361.391 275.122L358.94 277.743V277.828H364.011V279H357.129ZM369.77 279.149C368.967 279.149 368.283 278.931 367.719 278.494C367.154 278.054 366.723 277.416 366.424 276.582C366.126 275.744 365.977 274.732 365.977 273.545C365.977 272.366 366.126 271.36 366.424 270.525C366.726 269.687 367.159 269.048 367.724 268.608C368.292 268.164 368.974 267.942 369.77 267.942C370.565 267.942 371.245 268.164 371.81 268.608C372.378 269.048 372.811 269.687 373.109 270.525C373.411 271.36 373.562 272.366 373.562 273.545C373.562 274.732 373.413 275.744 373.115 276.582C372.816 277.416 372.385 278.054 371.82 278.494C371.256 278.931 370.572 279.149 369.77 279.149ZM369.77 277.977C370.565 277.977 371.183 277.594 371.623 276.827C372.064 276.06 372.284 274.966 372.284 273.545C372.284 272.601 372.183 271.797 371.98 271.132C371.781 270.468 371.494 269.962 371.117 269.614C370.744 269.266 370.295 269.092 369.77 269.092C368.981 269.092 368.365 269.481 367.921 270.259C367.477 271.033 367.255 272.129 367.255 273.545C367.255 274.49 367.355 275.293 367.554 275.953C367.752 276.614 368.038 277.116 368.411 277.461C368.788 277.805 369.24 277.977 369.77 277.977ZM375.586 279V278.041L379.187 274.099C379.61 273.638 379.958 273.237 380.231 272.896C380.505 272.551 380.707 272.228 380.838 271.926C380.973 271.621 381.041 271.301 381.041 270.967C381.041 270.584 380.949 270.252 380.764 269.971C380.583 269.691 380.334 269.474 380.018 269.321C379.702 269.169 379.347 269.092 378.953 269.092C378.534 269.092 378.168 269.179 377.855 269.353C377.547 269.524 377.307 269.763 377.136 270.072C376.969 270.381 376.886 270.744 376.886 271.159H375.629C375.629 270.52 375.776 269.959 376.071 269.476C376.366 268.993 376.767 268.616 377.275 268.347C377.786 268.077 378.36 267.942 378.995 267.942C379.635 267.942 380.201 268.077 380.695 268.347C381.188 268.616 381.575 268.98 381.856 269.439C382.136 269.897 382.277 270.406 382.277 270.967C382.277 271.369 382.204 271.761 382.058 272.145C381.916 272.525 381.668 272.949 381.312 273.418C380.961 273.883 380.473 274.451 379.848 275.122L377.397 277.743V277.828H382.468V279H375.586ZM388.29 279.149C387.843 279.142 387.396 279.057 386.948 278.893C386.501 278.73 386.092 278.455 385.723 278.068C385.354 277.677 385.057 277.15 384.833 276.486C384.61 275.818 384.498 274.98 384.498 273.972C384.498 273.006 384.588 272.15 384.77 271.404C384.951 270.655 385.213 270.025 385.558 269.513C385.902 268.998 386.318 268.608 386.804 268.341C387.294 268.075 387.847 267.942 388.461 267.942C389.072 267.942 389.615 268.064 390.091 268.309C390.57 268.551 390.961 268.888 391.263 269.321C391.565 269.755 391.76 270.254 391.849 270.818H390.549C390.428 270.328 390.194 269.922 389.846 269.598C389.498 269.275 389.036 269.114 388.461 269.114C387.616 269.114 386.95 269.481 386.463 270.216C385.98 270.951 385.737 271.983 385.734 273.311H385.819C386.018 273.009 386.254 272.752 386.527 272.539C386.804 272.322 387.11 272.155 387.444 272.038C387.777 271.921 388.131 271.862 388.504 271.862C389.129 271.862 389.7 272.018 390.219 272.331C390.737 272.64 391.153 273.068 391.465 273.615C391.778 274.158 391.934 274.781 391.934 275.484C391.934 276.159 391.783 276.777 391.481 277.338C391.179 277.896 390.755 278.339 390.208 278.67C389.665 278.996 389.026 279.156 388.29 279.149ZM388.29 277.977C388.738 277.977 389.139 277.865 389.494 277.642C389.853 277.418 390.135 277.118 390.341 276.741C390.551 276.365 390.656 275.946 390.656 275.484C390.656 275.033 390.554 274.623 390.352 274.254C390.153 273.881 389.878 273.585 389.526 273.364C389.178 273.144 388.781 273.034 388.333 273.034C387.996 273.034 387.681 273.102 387.39 273.237C387.099 273.368 386.843 273.549 386.623 273.78C386.407 274.011 386.236 274.275 386.112 274.574C385.988 274.868 385.925 275.179 385.925 275.506C385.925 275.939 386.027 276.344 386.229 276.72C386.435 277.097 386.716 277.4 387.071 277.631C387.429 277.862 387.836 277.977 388.29 277.977Z" fill="black"/>
<path d="M163.129 279V278.041L166.73 274.099C167.153 273.638 167.501 273.237 167.774 272.896C168.048 272.551 168.25 272.228 168.381 271.926C168.516 271.621 168.584 271.301 168.584 270.967C168.584 270.584 168.491 270.252 168.307 269.971C168.126 269.691 167.877 269.474 167.561 269.321C167.245 269.169 166.89 269.092 166.496 269.092C166.077 269.092 165.711 269.179 165.398 269.353C165.089 269.524 164.85 269.763 164.679 270.072C164.512 270.381 164.429 270.744 164.429 271.159H163.172C163.172 270.52 163.319 269.959 163.614 269.476C163.909 268.993 164.31 268.616 164.818 268.347C165.329 268.077 165.903 267.942 166.538 267.942C167.178 267.942 167.744 268.077 168.238 268.347C168.731 268.616 169.118 268.98 169.399 269.439C169.679 269.897 169.82 270.406 169.82 270.967C169.82 271.369 169.747 271.761 169.601 272.145C169.459 272.525 169.211 272.949 168.855 273.418C168.504 273.883 168.016 274.451 167.391 275.122L164.94 277.743V277.828H170.011V279H163.129ZM175.77 279.149C174.967 279.149 174.283 278.931 173.719 278.494C173.154 278.054 172.723 277.416 172.424 276.582C172.126 275.744 171.977 274.732 171.977 273.545C171.977 272.366 172.126 271.36 172.424 270.525C172.726 269.687 173.159 269.048 173.724 268.608C174.292 268.164 174.974 267.942 175.77 267.942C176.565 267.942 177.245 268.164 177.81 268.608C178.378 269.048 178.811 269.687 179.109 270.525C179.411 271.36 179.562 272.366 179.562 273.545C179.562 274.732 179.413 275.744 179.115 276.582C178.816 277.416 178.385 278.054 177.82 278.494C177.256 278.931 176.572 279.149 175.77 279.149ZM175.77 277.977C176.565 277.977 177.183 277.594 177.623 276.827C178.064 276.06 178.284 274.966 178.284 273.545C178.284 272.601 178.183 271.797 177.98 271.132C177.781 270.468 177.494 269.962 177.117 269.614C176.744 269.266 176.295 269.092 175.77 269.092C174.981 269.092 174.365 269.481 173.921 270.259C173.477 271.033 173.255 272.129 173.255 273.545C173.255 274.49 173.355 275.293 173.554 275.953C173.752 276.614 174.038 277.116 174.411 277.461C174.788 277.805 175.24 277.977 175.77 277.977ZM181.586 279V278.041L185.187 274.099C185.61 273.638 185.958 273.237 186.231 272.896C186.505 272.551 186.707 272.228 186.838 271.926C186.973 271.621 187.041 271.301 187.041 270.967C187.041 270.584 186.949 270.252 186.764 269.971C186.583 269.691 186.334 269.474 186.018 269.321C185.702 269.169 185.347 269.092 184.953 269.092C184.534 269.092 184.168 269.179 183.855 269.353C183.547 269.524 183.307 269.763 183.136 270.072C182.969 270.381 182.886 270.744 182.886 271.159H181.629C181.629 270.52 181.776 269.959 182.071 269.476C182.366 268.993 182.767 268.616 183.275 268.347C183.786 268.077 184.36 267.942 184.995 267.942C185.635 267.942 186.201 268.077 186.695 268.347C187.188 268.616 187.575 268.98 187.856 269.439C188.136 269.897 188.277 270.406 188.277 270.967C188.277 271.369 188.204 271.761 188.058 272.145C187.916 272.525 187.668 272.949 187.312 273.418C186.961 273.883 186.473 274.451 185.848 275.122L183.397 277.743V277.828H188.468V279H181.586ZM190.668 279V278.041L194.269 274.099C194.692 273.638 195.04 273.237 195.313 272.896C195.587 272.551 195.789 272.228 195.92 271.926C196.055 271.621 196.123 271.301 196.123 270.967C196.123 270.584 196.031 270.252 195.846 269.971C195.665 269.691 195.416 269.474 195.1 269.321C194.784 269.169 194.429 269.092 194.035 269.092C193.616 269.092 193.25 269.179 192.938 269.353C192.629 269.524 192.389 269.763 192.218 270.072C192.051 270.381 191.968 270.744 191.968 271.159H190.711C190.711 270.52 190.858 269.959 191.153 269.476C191.448 268.993 191.849 268.616 192.357 268.347C192.868 268.077 193.442 267.942 194.077 267.942C194.717 267.942 195.283 268.077 195.777 268.347C196.27 268.616 196.657 268.98 196.938 269.439C197.218 269.897 197.359 270.406 197.359 270.967C197.359 271.369 197.286 271.761 197.14 272.145C196.998 272.525 196.75 272.949 196.395 273.418C196.043 273.883 195.555 274.451 194.93 275.122L192.479 277.743V277.828H197.55V279H190.668Z" fill="black"/>
<path d="M406.129 279V278.041L409.73 274.099C410.153 273.638 410.501 273.237 410.774 272.896C411.048 272.551 411.25 272.228 411.381 271.926C411.516 271.621 411.584 271.301 411.584 270.967C411.584 270.584 411.491 270.252 411.307 269.971C411.126 269.691 410.877 269.474 410.561 269.321C410.245 269.169 409.89 269.092 409.496 269.092C409.077 269.092 408.711 269.179 408.398 269.353C408.089 269.524 407.85 269.763 407.679 270.072C407.512 270.381 407.429 270.744 407.429 271.159H406.172C406.172 270.52 406.319 269.959 406.614 269.476C406.909 268.993 407.31 268.616 407.818 268.347C408.329 268.077 408.903 267.942 409.538 267.942C410.178 267.942 410.744 268.077 411.238 268.347C411.731 268.616 412.118 268.98 412.399 269.439C412.679 269.897 412.82 270.406 412.82 270.967C412.82 271.369 412.747 271.761 412.601 272.145C412.459 272.525 412.211 272.949 411.855 273.418C411.504 273.883 411.016 274.451 410.391 275.122L407.94 277.743V277.828H413.011V279H406.129ZM418.77 279.149C417.967 279.149 417.283 278.931 416.719 278.494C416.154 278.054 415.723 277.416 415.424 276.582C415.126 275.744 414.977 274.732 414.977 273.545C414.977 272.366 415.126 271.36 415.424 270.525C415.726 269.687 416.159 269.048 416.724 268.608C417.292 268.164 417.974 267.942 418.77 267.942C419.565 267.942 420.245 268.164 420.81 268.608C421.378 269.048 421.811 269.687 422.109 270.525C422.411 271.36 422.562 272.366 422.562 273.545C422.562 274.732 422.413 275.744 422.115 276.582C421.816 277.416 421.385 278.054 420.82 278.494C420.256 278.931 419.572 279.149 418.77 279.149ZM418.77 277.977C419.565 277.977 420.183 277.594 420.623 276.827C421.064 276.06 421.284 274.966 421.284 273.545C421.284 272.601 421.183 271.797 420.98 271.132C420.781 270.468 420.494 269.962 420.117 269.614C419.744 269.266 419.295 269.092 418.77 269.092C417.981 269.092 417.365 269.481 416.921 270.259C416.477 271.033 416.255 272.129 416.255 273.545C416.255 274.49 416.355 275.293 416.554 275.953C416.752 276.614 417.038 277.116 417.411 277.461C417.788 277.805 418.24 277.977 418.77 277.977ZM424.586 279V278.041L428.187 274.099C428.61 273.638 428.958 273.237 429.231 272.896C429.505 272.551 429.707 272.228 429.838 271.926C429.973 271.621 430.041 271.301 430.041 270.967C430.041 270.584 429.949 270.252 429.764 269.971C429.583 269.691 429.334 269.474 429.018 269.321C428.702 269.169 428.347 269.092 427.953 269.092C427.534 269.092 427.168 269.179 426.855 269.353C426.547 269.524 426.307 269.763 426.136 270.072C425.969 270.381 425.886 270.744 425.886 271.159H424.629C424.629 270.52 424.776 269.959 425.071 269.476C425.366 268.993 425.767 268.616 426.275 268.347C426.786 268.077 427.36 267.942 427.995 267.942C428.635 267.942 429.201 268.077 429.695 268.347C430.188 268.616 430.575 268.98 430.856 269.439C431.136 269.897 431.277 270.406 431.277 270.967C431.277 271.369 431.204 271.761 431.058 272.145C430.916 272.525 430.668 272.949 430.312 273.418C429.961 273.883 429.473 274.451 428.848 275.122L426.397 277.743V277.828H431.468V279H424.586ZM434.009 279L438.888 269.348V269.263H433.263V268.091H440.252V269.327L435.394 279H434.009Z" fill="black"/>
<path d="M212.129 279V278.041L215.73 274.099C216.153 273.638 216.501 273.237 216.774 272.896C217.048 272.551 217.25 272.228 217.381 271.926C217.516 271.621 217.584 271.301 217.584 270.967C217.584 270.584 217.491 270.252 217.307 269.971C217.126 269.691 216.877 269.474 216.561 269.321C216.245 269.169 215.89 269.092 215.496 269.092C215.077 269.092 214.711 269.179 214.398 269.353C214.089 269.524 213.85 269.763 213.679 270.072C213.512 270.381 213.429 270.744 213.429 271.159H212.172C212.172 270.52 212.319 269.959 212.614 269.476C212.909 268.993 213.31 268.616 213.818 268.347C214.329 268.077 214.903 267.942 215.538 267.942C216.178 267.942 216.744 268.077 217.238 268.347C217.731 268.616 218.118 268.98 218.399 269.439C218.679 269.897 218.82 270.406 218.82 270.967C218.82 271.369 218.747 271.761 218.601 272.145C218.459 272.525 218.211 272.949 217.855 273.418C217.504 273.883 217.016 274.451 216.391 275.122L213.94 277.743V277.828H219.011V279H212.129ZM224.77 279.149C223.967 279.149 223.283 278.931 222.719 278.494C222.154 278.054 221.723 277.416 221.424 276.582C221.126 275.744 220.977 274.732 220.977 273.545C220.977 272.366 221.126 271.36 221.424 270.525C221.726 269.687 222.159 269.048 222.724 268.608C223.292 268.164 223.974 267.942 224.77 267.942C225.565 267.942 226.245 268.164 226.81 268.608C227.378 269.048 227.811 269.687 228.109 270.525C228.411 271.36 228.562 272.366 228.562 273.545C228.562 274.732 228.413 275.744 228.115 276.582C227.816 277.416 227.385 278.054 226.82 278.494C226.256 278.931 225.572 279.149 224.77 279.149ZM224.77 277.977C225.565 277.977 226.183 277.594 226.623 276.827C227.064 276.06 227.284 274.966 227.284 273.545C227.284 272.601 227.183 271.797 226.98 271.132C226.781 270.468 226.494 269.962 226.117 269.614C225.744 269.266 225.295 269.092 224.77 269.092C223.981 269.092 223.365 269.481 222.921 270.259C222.477 271.033 222.255 272.129 222.255 273.545C222.255 274.49 222.355 275.293 222.554 275.953C222.752 276.614 223.038 277.116 223.411 277.461C223.788 277.805 224.24 277.977 224.77 277.977ZM230.586 279V278.041L234.187 274.099C234.61 273.638 234.958 273.237 235.231 272.896C235.505 272.551 235.707 272.228 235.838 271.926C235.973 271.621 236.041 271.301 236.041 270.967C236.041 270.584 235.949 270.252 235.764 269.971C235.583 269.691 235.334 269.474 235.018 269.321C234.702 269.169 234.347 269.092 233.953 269.092C233.534 269.092 233.168 269.179 232.855 269.353C232.547 269.524 232.307 269.763 232.136 270.072C231.969 270.381 231.886 270.744 231.886 271.159H230.629C230.629 270.52 230.776 269.959 231.071 269.476C231.366 268.993 231.767 268.616 232.275 268.347C232.786 268.077 233.36 267.942 233.995 267.942C234.635 267.942 235.201 268.077 235.695 268.347C236.188 268.616 236.575 268.98 236.856 269.439C237.136 269.897 237.277 270.406 237.277 270.967C237.277 271.369 237.204 271.761 237.058 272.145C236.916 272.525 236.668 272.949 236.312 273.418C235.961 273.883 235.473 274.451 234.848 275.122L232.397 277.743V277.828H237.468V279H230.586ZM243.354 279.149C242.651 279.149 242.025 279.028 241.474 278.787C240.927 278.545 240.492 278.21 240.169 277.78C239.849 277.347 239.675 276.844 239.647 276.273H240.989C241.018 276.624 241.138 276.928 241.352 277.184C241.565 277.436 241.843 277.631 242.188 277.77C242.532 277.908 242.914 277.977 243.333 277.977C243.802 277.977 244.217 277.896 244.58 277.732C244.942 277.569 245.226 277.342 245.432 277.05C245.638 276.759 245.741 276.422 245.741 276.038C245.741 275.637 245.641 275.284 245.442 274.978C245.244 274.669 244.952 274.428 244.569 274.254C244.185 274.08 243.717 273.993 243.163 273.993H242.289V272.821H243.163C243.596 272.821 243.976 272.743 244.303 272.587C244.633 272.43 244.89 272.21 245.075 271.926C245.263 271.642 245.357 271.308 245.357 270.925C245.357 270.555 245.276 270.234 245.112 269.961C244.949 269.687 244.718 269.474 244.42 269.321C244.125 269.169 243.777 269.092 243.376 269.092C242.999 269.092 242.644 269.162 242.31 269.3C241.98 269.435 241.71 269.632 241.501 269.891C241.291 270.147 241.178 270.456 241.16 270.818H239.881C239.903 270.246 240.075 269.746 240.398 269.316C240.721 268.883 241.144 268.545 241.666 268.304C242.191 268.062 242.768 267.942 243.397 267.942C244.072 267.942 244.651 268.078 245.134 268.352C245.616 268.622 245.988 268.979 246.247 269.423C246.506 269.866 246.636 270.346 246.636 270.861C246.636 271.475 246.474 271.999 246.151 272.432C245.831 272.865 245.396 273.165 244.846 273.332V273.418C245.535 273.531 246.073 273.824 246.46 274.297C246.847 274.765 247.04 275.346 247.04 276.038C247.04 276.631 246.879 277.164 246.556 277.636C246.236 278.105 245.799 278.474 245.245 278.744C244.691 279.014 244.061 279.149 243.354 279.149Z" fill="black"/>
<path d="M455.129 279V278.041L458.73 274.099C459.153 273.638 459.501 273.237 459.774 272.896C460.048 272.551 460.25 272.228 460.381 271.926C460.516 271.621 460.584 271.301 460.584 270.967C460.584 270.584 460.491 270.252 460.307 269.971C460.126 269.691 459.877 269.474 459.561 269.321C459.245 269.169 458.89 269.092 458.496 269.092C458.077 269.092 457.711 269.179 457.398 269.353C457.089 269.524 456.85 269.763 456.679 270.072C456.512 270.381 456.429 270.744 456.429 271.159H455.172C455.172 270.52 455.319 269.959 455.614 269.476C455.909 268.993 456.31 268.616 456.818 268.347C457.329 268.077 457.903 267.942 458.538 267.942C459.178 267.942 459.744 268.077 460.238 268.347C460.731 268.616 461.118 268.98 461.399 269.439C461.679 269.897 461.82 270.406 461.82 270.967C461.82 271.369 461.747 271.761 461.601 272.145C461.459 272.525 461.211 272.949 460.855 273.418C460.504 273.883 460.016 274.451 459.391 275.122L456.94 277.743V277.828H462.011V279H455.129ZM467.77 279.149C466.967 279.149 466.283 278.931 465.719 278.494C465.154 278.054 464.723 277.416 464.424 276.582C464.126 275.744 463.977 274.732 463.977 273.545C463.977 272.366 464.126 271.36 464.424 270.525C464.726 269.687 465.159 269.048 465.724 268.608C466.292 268.164 466.974 267.942 467.77 267.942C468.565 267.942 469.245 268.164 469.81 268.608C470.378 269.048 470.811 269.687 471.109 270.525C471.411 271.36 471.562 272.366 471.562 273.545C471.562 274.732 471.413 275.744 471.115 276.582C470.816 277.416 470.385 278.054 469.82 278.494C469.256 278.931 468.572 279.149 467.77 279.149ZM467.77 277.977C468.565 277.977 469.183 277.594 469.623 276.827C470.064 276.06 470.284 274.966 470.284 273.545C470.284 272.601 470.183 271.797 469.98 271.132C469.781 270.468 469.494 269.962 469.117 269.614C468.744 269.266 468.295 269.092 467.77 269.092C466.981 269.092 466.365 269.481 465.921 270.259C465.477 271.033 465.255 272.129 465.255 273.545C465.255 274.49 465.355 275.293 465.554 275.953C465.752 276.614 466.038 277.116 466.411 277.461C466.788 277.805 467.24 277.977 467.77 277.977ZM473.586 279V278.041L477.187 274.099C477.61 273.638 477.958 273.237 478.231 272.896C478.505 272.551 478.707 272.228 478.838 271.926C478.973 271.621 479.041 271.301 479.041 270.967C479.041 270.584 478.949 270.252 478.764 269.971C478.583 269.691 478.334 269.474 478.018 269.321C477.702 269.169 477.347 269.092 476.953 269.092C476.534 269.092 476.168 269.179 475.855 269.353C475.547 269.524 475.307 269.763 475.136 270.072C474.969 270.381 474.886 270.744 474.886 271.159H473.629C473.629 270.52 473.776 269.959 474.071 269.476C474.366 268.993 474.767 268.616 475.275 268.347C475.786 268.077 476.36 267.942 476.995 267.942C477.635 267.942 478.201 268.077 478.695 268.347C479.188 268.616 479.575 268.98 479.856 269.439C480.136 269.897 480.277 270.406 480.277 270.967C480.277 271.369 480.204 271.761 480.058 272.145C479.916 272.525 479.668 272.949 479.312 273.418C478.961 273.883 478.473 274.451 477.848 275.122L475.397 277.743V277.828H480.468V279H473.586ZM486.163 279.149C485.431 279.149 484.785 279.02 484.224 278.76C483.666 278.498 483.231 278.137 482.919 277.679C482.606 277.217 482.452 276.692 482.455 276.102C482.452 275.641 482.542 275.214 482.727 274.824C482.912 274.43 483.164 274.101 483.483 273.838C483.806 273.572 484.167 273.403 484.565 273.332V273.268C484.043 273.134 483.627 272.841 483.318 272.39C483.009 271.935 482.857 271.418 482.86 270.839C482.857 270.286 482.997 269.79 483.281 269.353C483.565 268.917 483.956 268.572 484.453 268.32C484.953 268.068 485.523 267.942 486.163 267.942C486.795 267.942 487.359 268.068 487.857 268.32C488.354 268.572 488.744 268.917 489.028 269.353C489.316 269.79 489.462 270.286 489.465 270.839C489.462 271.418 489.304 271.935 488.991 272.39C488.682 272.841 488.272 273.134 487.761 273.268V273.332C488.155 273.403 488.51 273.572 488.826 273.838C489.142 274.101 489.394 274.43 489.582 274.824C489.771 275.214 489.866 275.641 489.87 276.102C489.866 276.692 489.707 277.217 489.391 277.679C489.078 278.137 488.643 278.498 488.086 278.76C487.532 279.02 486.891 279.149 486.163 279.149ZM486.163 277.977C486.656 277.977 487.082 277.897 487.441 277.738C487.8 277.578 488.077 277.352 488.272 277.061C488.467 276.77 488.567 276.429 488.57 276.038C488.567 275.626 488.46 275.262 488.251 274.946C488.041 274.63 487.755 274.382 487.393 274.201C487.034 274.02 486.624 273.929 486.163 273.929C485.697 273.929 485.282 274.02 484.916 274.201C484.554 274.382 484.268 274.63 484.059 274.946C483.853 275.262 483.751 275.626 483.755 276.038C483.751 276.429 483.846 276.77 484.037 277.061C484.233 277.352 484.511 277.578 484.874 277.738C485.236 277.897 485.665 277.977 486.163 277.977ZM486.163 272.8C486.553 272.8 486.9 272.722 487.201 272.565C487.507 272.409 487.746 272.191 487.92 271.91C488.094 271.63 488.183 271.301 488.187 270.925C488.183 270.555 488.096 270.234 487.926 269.961C487.755 269.684 487.519 269.471 487.217 269.321C486.915 269.169 486.564 269.092 486.163 269.092C485.754 269.092 485.397 269.169 485.092 269.321C484.787 269.471 484.55 269.684 484.384 269.961C484.217 270.234 484.135 270.555 484.138 270.925C484.135 271.301 484.218 271.63 484.389 271.91C484.563 272.191 484.803 272.409 485.108 272.565C485.413 272.722 485.765 272.8 486.163 272.8Z" fill="black"/>
<line x1="35.5" y1="250" x2="35.5" y2="70" stroke="#CECECE"/>
<line x1="83.5" y1="250" x2="83.5" y2="70" stroke="#CECECE"/>
<line x1="131.5" y1="250" x2="131.5" y2="70" stroke="#CECECE"/>
<line x1="180.5" y1="250" x2="180.5" y2="70" stroke="#CECECE"/>
<line x1="229.5" y1="250" x2="229.5" y2="70" stroke="#CECECE"/>
<line x1="278.5" y1="250" x2="278.5" y2="70" stroke="#CECECE"/>
<line x1="326.5" y1="250" x2="326.5" y2="70" stroke="#CECECE"/>
<line x1="374.5" y1="250" x2="374.5" y2="70" stroke="#CECECE"/>
<line x1="423.5" y1="250" x2="423.5" y2="70" stroke="#CECECE"/>
<line x1="472.5" y1="250" x2="472.5" y2="70" stroke="#CECECE"/>
<path d="M34.5 242L83.5 221L130 203.5L175 192.5H224L274.5 174.5L323.5 159.5L366 141.5L418.5 122.5L473.5 102.5" stroke="#00D26A"/>
<circle cx="374.5" cy="138.5" r="6" stroke="#00D26A"/>
<circle cx="326.5" cy="157.5" r="6.5" fill="#00D26A"/>
<circle cx="278.5" cy="173.5" r="6.5" fill="#00D26A"/>
<circle cx="229.5" cy="191.5" r="6.5" fill="#00D26A"/>
<circle cx="180.5" cy="191.5" r="6.5" fill="#00D26A"/>
<circle cx="131.5" cy="202.5" r="6.5" fill="#00D26A"/>
<circle cx="83.5" cy="221.5" r="6.5" fill="#00D26A"/>
<circle cx="34.5" cy="241.5" r="6.5" fill="#00D26A"/>
<circle cx="423.5" cy="120.5" r="6" stroke="#00D26A"/>
<circle cx="472.5" cy="102.5" r="6" stroke="#00D26A"/>
</svg>
