<svg width="508" height="322" viewBox="0 0 508 322" fill="none" xmlns="http://www.w3.org/2000/svg">
<rect width="508" height="322" fill="white"/>
<path d="M31.4347 264.139C31.017 264.133 30.5994 264.053 30.1818 263.901C29.7642 263.748 29.383 263.491 29.0384 263.13C28.6937 262.765 28.4169 262.273 28.2081 261.653C27.9993 261.03 27.8949 260.248 27.8949 259.307C27.8949 258.405 27.9794 257.607 28.1484 256.911C28.3175 256.211 28.5627 255.623 28.8842 255.146C29.2057 254.665 29.5935 254.3 30.0476 254.052C30.505 253.803 31.0204 253.679 31.5938 253.679C32.1638 253.679 32.6709 253.793 33.1151 254.022C33.5625 254.247 33.9271 254.562 34.2088 254.967C34.4905 255.371 34.6728 255.837 34.7557 256.364H33.5426C33.4299 255.906 33.2112 255.527 32.8864 255.225C32.5616 254.924 32.1307 254.773 31.5938 254.773C30.8049 254.773 30.1835 255.116 29.7294 255.802C29.2786 256.488 29.0516 257.451 29.0483 258.69H29.1278C29.3134 258.409 29.5339 258.168 29.7891 257.969C30.0476 257.767 30.3326 257.612 30.6442 257.502C30.9557 257.393 31.2855 257.338 31.6335 257.338C32.2169 257.338 32.7505 257.484 33.2344 257.776C33.7183 258.064 34.1061 258.463 34.3977 258.974C34.6894 259.481 34.8352 260.062 34.8352 260.719C34.8352 261.348 34.6944 261.925 34.4126 262.449C34.1309 262.969 33.7348 263.384 33.2244 263.692C32.7173 263.997 32.1207 264.146 31.4347 264.139ZM31.4347 263.045C31.8523 263.045 32.2268 262.941 32.5582 262.732C32.893 262.523 33.1565 262.243 33.3487 261.892C33.5443 261.541 33.642 261.15 33.642 260.719C33.642 260.298 33.5476 259.915 33.3587 259.57C33.1731 259.222 32.9162 258.946 32.5881 258.74C32.2633 258.535 31.892 258.432 31.4744 258.432C31.1596 258.432 30.8662 258.495 30.5945 258.621C30.3227 258.743 30.084 258.912 29.8786 259.128C29.6764 259.343 29.5173 259.59 29.4013 259.869C29.2853 260.144 29.2273 260.434 29.2273 260.739C29.2273 261.143 29.3217 261.521 29.5107 261.872C29.7029 262.223 29.9647 262.507 30.2962 262.722C30.6309 262.938 31.0104 263.045 31.4347 263.045ZM37.1085 264L41.6625 254.991V254.912H36.4125V253.818H42.9352V254.972L38.4011 264H37.1085Z" fill="black"/>
<path d="M274.634 253.818V264H273.401V255.111H273.341L270.855 256.761V255.509L273.401 253.818H274.634ZM280.744 264.139C280.16 264.139 279.635 264.023 279.168 263.791C278.7 263.559 278.326 263.241 278.044 262.837C277.762 262.432 277.608 261.972 277.582 261.455H278.775C278.821 261.915 279.03 262.296 279.401 262.598C279.776 262.896 280.223 263.045 280.744 263.045C281.161 263.045 281.532 262.948 281.857 262.752C282.185 262.557 282.442 262.288 282.628 261.947C282.817 261.602 282.911 261.213 282.911 260.778C282.911 260.334 282.813 259.938 282.618 259.59C282.426 259.239 282.161 258.962 281.822 258.76C281.484 258.558 281.098 258.455 280.664 258.452C280.353 258.448 280.033 258.496 279.705 258.596C279.376 258.692 279.106 258.816 278.894 258.969L277.741 258.83L278.357 253.818H283.647V254.912H279.391L279.033 257.915H279.093C279.302 257.749 279.564 257.612 279.879 257.502C280.193 257.393 280.522 257.338 280.863 257.338C281.486 257.338 282.041 257.487 282.528 257.786C283.019 258.08 283.403 258.485 283.682 258.999C283.964 259.512 284.104 260.099 284.104 260.759C284.104 261.408 283.959 261.988 283.667 262.499C283.379 263.006 282.981 263.407 282.474 263.702C281.967 263.993 281.39 264.139 280.744 264.139ZM289.261 264.139C288.678 264.139 288.153 264.023 287.685 263.791C287.218 263.559 286.843 263.241 286.562 262.837C286.28 262.432 286.126 261.972 286.099 261.455H287.292C287.339 261.915 287.548 262.296 287.919 262.598C288.293 262.896 288.741 263.045 289.261 263.045C289.679 263.045 290.05 262.948 290.375 262.752C290.703 262.557 290.96 262.288 291.145 261.947C291.334 261.602 291.429 261.213 291.429 260.778C291.429 260.334 291.331 259.938 291.135 259.59C290.943 259.239 290.678 258.962 290.34 258.76C290.002 258.558 289.616 258.455 289.182 258.452C288.87 258.448 288.55 258.496 288.222 258.596C287.894 258.692 287.624 258.816 287.412 258.969L286.258 258.83L286.875 253.818H292.165V254.912H287.909L287.551 257.915H287.611C287.819 257.749 288.081 257.612 288.396 257.502C288.711 257.393 289.039 257.338 289.381 257.338C290.004 257.338 290.559 257.487 291.046 257.786C291.537 258.08 291.921 258.485 292.199 258.999C292.481 259.512 292.622 260.099 292.622 260.759C292.622 261.408 292.476 261.988 292.184 262.499C291.896 263.006 291.498 263.407 290.991 263.702C290.484 263.993 289.907 264.139 289.261 264.139Z" fill="black"/>
<path d="M79.6335 253.818V264H78.4006V255.111H78.3409L75.8551 256.761V255.509L78.4006 253.818H79.6335ZM85.8828 264.139C85.1338 264.139 84.4957 263.935 83.9688 263.528C83.4418 263.117 83.0391 262.522 82.7607 261.743C82.4822 260.961 82.343 260.016 82.343 258.909C82.343 257.809 82.4822 256.869 82.7607 256.09C83.0424 255.308 83.4467 254.711 83.9737 254.3C84.504 253.886 85.1404 253.679 85.8828 253.679C86.6252 253.679 87.2599 253.886 87.7869 254.3C88.3172 254.711 88.7216 255.308 89 256.09C89.2817 256.869 89.4226 257.809 89.4226 258.909C89.4226 260.016 89.2834 260.961 89.005 261.743C88.7266 262.522 88.3239 263.117 87.7969 263.528C87.2699 263.935 86.6319 264.139 85.8828 264.139ZM85.8828 263.045C86.6252 263.045 87.2019 262.687 87.6129 261.972C88.0239 261.256 88.2294 260.235 88.2294 258.909C88.2294 258.027 88.1349 257.277 87.946 256.657C87.7604 256.037 87.492 255.565 87.1406 255.24C86.7926 254.915 86.3733 254.753 85.8828 254.753C85.147 254.753 84.572 255.116 84.1577 255.842C83.7434 256.564 83.5362 257.587 83.5362 258.909C83.5362 259.791 83.629 260.54 83.8146 261.156C84.0002 261.773 84.267 262.242 84.6151 262.563C84.9664 262.885 85.389 263.045 85.8828 263.045ZM94.6328 264.139C93.8838 264.139 93.2457 263.935 92.7188 263.528C92.1918 263.117 91.7891 262.522 91.5107 261.743C91.2322 260.961 91.093 260.016 91.093 258.909C91.093 257.809 91.2322 256.869 91.5107 256.09C91.7924 255.308 92.1967 254.711 92.7237 254.3C93.254 253.886 93.8904 253.679 94.6328 253.679C95.3752 253.679 96.0099 253.886 96.5369 254.3C97.0672 254.711 97.4716 255.308 97.75 256.09C98.0317 256.869 98.1726 257.809 98.1726 258.909C98.1726 260.016 98.0334 260.961 97.755 261.743C97.4766 262.522 97.0739 263.117 96.5469 263.528C96.0199 263.935 95.3819 264.139 94.6328 264.139ZM94.6328 263.045C95.3752 263.045 95.9519 262.687 96.3629 261.972C96.7739 261.256 96.9794 260.235 96.9794 258.909C96.9794 258.027 96.8849 257.277 96.696 256.657C96.5104 256.037 96.242 255.565 95.8906 255.24C95.5426 254.915 95.1233 254.753 94.6328 254.753C93.897 254.753 93.322 255.116 92.9077 255.842C92.4934 256.564 92.2862 257.587 92.2862 258.909C92.2862 259.791 92.379 260.54 92.5646 261.156C92.7502 261.773 93.017 262.242 93.3651 262.563C93.7164 262.885 94.139 263.045 94.6328 263.045Z" fill="black"/>
<path d="M322.634 253.818V264H321.401V255.111H321.341L318.855 256.761V255.509L321.401 253.818H322.634ZM328.942 264.139C328.525 264.133 328.107 264.053 327.69 263.901C327.272 263.748 326.891 263.491 326.546 263.13C326.201 262.765 325.925 262.273 325.716 261.653C325.507 261.03 325.403 260.248 325.403 259.307C325.403 258.405 325.487 257.607 325.656 256.911C325.825 256.211 326.071 255.623 326.392 255.146C326.714 254.665 327.101 254.3 327.555 254.052C328.013 253.803 328.528 253.679 329.102 253.679C329.672 253.679 330.179 253.793 330.623 254.022C331.07 254.247 331.435 254.562 331.717 254.967C331.998 255.371 332.181 255.837 332.263 256.364H331.05C330.938 255.906 330.719 255.527 330.394 255.225C330.069 254.924 329.638 254.773 329.102 254.773C328.313 254.773 327.691 255.116 327.237 255.802C326.786 256.488 326.559 257.451 326.556 258.69H326.636C326.821 258.409 327.042 258.168 327.297 257.969C327.555 257.767 327.84 257.612 328.152 257.502C328.464 257.393 328.793 257.338 329.141 257.338C329.725 257.338 330.258 257.484 330.742 257.776C331.226 258.064 331.614 258.463 331.906 258.974C332.197 259.481 332.343 260.062 332.343 260.719C332.343 261.348 332.202 261.925 331.92 262.449C331.639 262.969 331.243 263.384 330.732 263.692C330.225 263.997 329.629 264.146 328.942 264.139ZM328.942 263.045C329.36 263.045 329.735 262.941 330.066 262.732C330.401 262.523 330.664 262.243 330.857 261.892C331.052 261.541 331.15 261.15 331.15 260.719C331.15 260.298 331.055 259.915 330.866 259.57C330.681 259.222 330.424 258.946 330.096 258.74C329.771 258.535 329.4 258.432 328.982 258.432C328.667 258.432 328.374 258.495 328.102 258.621C327.83 258.743 327.592 258.912 327.386 259.128C327.184 259.343 327.025 259.59 326.909 259.869C326.793 260.144 326.735 260.434 326.735 260.739C326.735 261.143 326.83 261.521 327.018 261.872C327.211 262.223 327.473 262.507 327.804 262.722C328.139 262.938 328.518 263.045 328.942 263.045ZM337.619 264.139C336.87 264.139 336.232 263.935 335.705 263.528C335.178 263.117 334.775 262.522 334.497 261.743C334.219 260.961 334.079 260.016 334.079 258.909C334.079 257.809 334.219 256.869 334.497 256.09C334.779 255.308 335.183 254.711 335.71 254.3C336.24 253.886 336.877 253.679 337.619 253.679C338.362 253.679 338.996 253.886 339.523 254.3C340.054 254.711 340.458 255.308 340.736 256.09C341.018 256.869 341.159 257.809 341.159 258.909C341.159 260.016 341.02 260.961 340.741 261.743C340.463 262.522 340.06 263.117 339.533 263.528C339.006 263.935 338.368 264.139 337.619 264.139ZM337.619 263.045C338.362 263.045 338.938 262.687 339.349 261.972C339.76 261.256 339.966 260.235 339.966 258.909C339.966 258.027 339.871 257.277 339.682 256.657C339.497 256.037 339.228 255.565 338.877 255.24C338.529 254.915 338.11 254.753 337.619 254.753C336.883 254.753 336.308 255.116 335.894 255.842C335.48 256.564 335.273 257.587 335.273 258.909C335.273 259.791 335.365 260.54 335.551 261.156C335.737 261.773 336.003 262.242 336.351 262.563C336.703 262.885 337.125 263.045 337.619 263.045Z" fill="black"/>
<path d="M127.634 253.818V264H126.401V255.111H126.341L123.855 256.761V255.509L126.401 253.818H127.634ZM134.141 253.818V264H132.908V255.111H132.849L130.363 256.761V255.509L132.908 253.818H134.141ZM140.331 264.139C139.648 264.139 139.045 264.018 138.521 263.776C138.001 263.531 137.595 263.195 137.303 262.767C137.012 262.336 136.867 261.846 136.871 261.295C136.867 260.865 136.952 260.467 137.124 260.102C137.297 259.734 137.532 259.428 137.83 259.183C138.132 258.934 138.468 258.777 138.839 258.71V258.651C138.352 258.525 137.964 258.251 137.676 257.83C137.388 257.406 137.245 256.924 137.249 256.384C137.245 255.866 137.376 255.404 137.641 254.996C137.906 254.589 138.271 254.267 138.735 254.032C139.202 253.797 139.734 253.679 140.331 253.679C140.921 253.679 141.448 253.797 141.912 254.032C142.376 254.267 142.741 254.589 143.006 254.996C143.274 255.404 143.41 255.866 143.413 256.384C143.41 256.924 143.263 257.406 142.971 257.83C142.683 258.251 142.3 258.525 141.822 258.651V258.71C142.19 258.777 142.522 258.934 142.817 259.183C143.112 259.428 143.347 259.734 143.523 260.102C143.698 260.467 143.788 260.865 143.791 261.295C143.788 261.846 143.639 262.336 143.344 262.767C143.052 263.195 142.646 263.531 142.126 263.776C141.609 264.018 141.01 264.139 140.331 264.139ZM140.331 263.045C140.792 263.045 141.189 262.971 141.524 262.822C141.859 262.673 142.117 262.462 142.3 262.19C142.482 261.919 142.575 261.6 142.578 261.236C142.575 260.851 142.475 260.512 142.28 260.217C142.084 259.922 141.817 259.69 141.479 259.521C141.145 259.352 140.762 259.267 140.331 259.267C139.897 259.267 139.509 259.352 139.168 259.521C138.83 259.69 138.563 259.922 138.367 260.217C138.175 260.512 138.08 260.851 138.084 261.236C138.08 261.6 138.168 261.919 138.347 262.19C138.53 262.462 138.79 262.673 139.128 262.822C139.466 262.971 139.867 263.045 140.331 263.045ZM140.331 258.213C140.696 258.213 141.019 258.14 141.3 257.994C141.585 257.848 141.809 257.645 141.972 257.383C142.134 257.121 142.217 256.814 142.22 256.463C142.217 256.118 142.136 255.818 141.977 255.563C141.817 255.305 141.597 255.106 141.315 254.967C141.034 254.824 140.705 254.753 140.331 254.753C139.95 254.753 139.617 254.824 139.332 254.967C139.047 255.106 138.826 255.305 138.67 255.563C138.515 255.818 138.438 256.118 138.442 256.463C138.438 256.814 138.516 257.121 138.675 257.383C138.838 257.645 139.062 257.848 139.347 257.994C139.632 258.14 139.96 258.213 140.331 258.213Z" fill="black"/>
<path d="M370.634 253.818V264H369.401V255.111H369.341L366.855 256.761V255.509L369.401 253.818H370.634ZM373.88 264L378.434 254.991V254.912H373.184V253.818H379.707V254.972L375.173 264H373.88ZM384.605 264.139C384.022 264.139 383.496 264.023 383.029 263.791C382.562 263.559 382.187 263.241 381.905 262.837C381.624 262.432 381.47 261.972 381.443 261.455H382.636C382.683 261.915 382.891 262.296 383.263 262.598C383.637 262.896 384.085 263.045 384.605 263.045C385.023 263.045 385.394 262.948 385.719 262.752C386.047 262.557 386.304 262.288 386.489 261.947C386.678 261.602 386.773 261.213 386.773 260.778C386.773 260.334 386.675 259.938 386.479 259.59C386.287 259.239 386.022 258.962 385.684 258.76C385.346 258.558 384.96 258.455 384.525 258.452C384.214 258.448 383.894 258.496 383.566 258.596C383.238 258.692 382.968 258.816 382.756 258.969L381.602 258.83L382.219 253.818H387.508V254.912H383.253L382.895 257.915H382.954C383.163 257.749 383.425 257.612 383.74 257.502C384.055 257.393 384.383 257.338 384.724 257.338C385.347 257.338 385.903 257.487 386.39 257.786C386.88 258.08 387.265 258.485 387.543 258.999C387.825 259.512 387.966 260.099 387.966 260.759C387.966 261.408 387.82 261.988 387.528 262.499C387.24 263.006 386.842 263.407 386.335 263.702C385.828 263.993 385.251 264.139 384.605 264.139Z" fill="black"/>
<path d="M176.634 253.818V264H175.401V255.111H175.341L172.855 256.761V255.509L175.401 253.818H176.634ZM179.562 264V263.105L182.923 259.426C183.317 258.995 183.642 258.621 183.897 258.303C184.152 257.981 184.341 257.679 184.464 257.398C184.59 257.113 184.653 256.814 184.653 256.503C184.653 256.145 184.567 255.835 184.394 255.573C184.225 255.311 183.993 255.109 183.698 254.967C183.403 254.824 183.072 254.753 182.704 254.753C182.313 254.753 181.971 254.834 181.68 254.996C181.391 255.156 181.168 255.379 181.009 255.668C180.853 255.956 180.775 256.294 180.775 256.682H179.602C179.602 256.085 179.739 255.562 180.014 255.111C180.289 254.66 180.664 254.309 181.138 254.057C181.615 253.805 182.15 253.679 182.744 253.679C183.34 253.679 183.869 253.805 184.33 254.057C184.79 254.309 185.152 254.648 185.413 255.076C185.675 255.504 185.806 255.979 185.806 256.503C185.806 256.877 185.738 257.244 185.602 257.602C185.47 257.956 185.238 258.352 184.906 258.79C184.578 259.224 184.122 259.754 183.539 260.381L181.252 262.827V262.906H185.985V264H179.562ZM191.3 264.139C190.617 264.139 190.014 264.018 189.49 263.776C188.97 263.531 188.564 263.195 188.272 262.767C187.98 262.336 187.836 261.846 187.839 261.295C187.836 260.865 187.921 260.467 188.093 260.102C188.265 259.734 188.501 259.428 188.799 259.183C189.101 258.934 189.437 258.777 189.808 258.71V258.651C189.321 258.525 188.933 258.251 188.645 257.83C188.357 257.406 188.214 256.924 188.217 256.384C188.214 255.866 188.345 255.404 188.61 254.996C188.875 254.589 189.24 254.267 189.704 254.032C190.171 253.797 190.703 253.679 191.3 253.679C191.89 253.679 192.417 253.797 192.881 254.032C193.345 254.267 193.709 254.589 193.974 254.996C194.243 255.404 194.379 255.866 194.382 256.384C194.379 256.924 194.231 257.406 193.94 257.83C193.651 258.251 193.268 258.525 192.791 258.651V258.71C193.159 258.777 193.491 258.934 193.786 259.183C194.08 259.428 194.316 259.734 194.491 260.102C194.667 260.467 194.757 260.865 194.76 261.295C194.757 261.846 194.607 262.336 194.312 262.767C194.021 263.195 193.615 263.531 193.094 263.776C192.577 264.018 191.979 264.139 191.3 264.139ZM191.3 263.045C191.76 263.045 192.158 262.971 192.493 262.822C192.828 262.673 193.086 262.462 193.268 262.19C193.451 261.919 193.544 261.6 193.547 261.236C193.544 260.851 193.444 260.512 193.249 260.217C193.053 259.922 192.786 259.69 192.448 259.521C192.113 259.352 191.731 259.267 191.3 259.267C190.866 259.267 190.478 259.352 190.136 259.521C189.798 259.69 189.531 259.922 189.336 260.217C189.144 260.512 189.049 260.851 189.053 261.236C189.049 261.6 189.137 261.919 189.316 262.19C189.498 262.462 189.759 262.673 190.097 262.822C190.435 262.971 190.836 263.045 191.3 263.045ZM191.3 258.213C191.664 258.213 191.987 258.14 192.269 257.994C192.554 257.848 192.778 257.645 192.94 257.383C193.103 257.121 193.186 256.814 193.189 256.463C193.186 256.118 193.104 255.818 192.945 255.563C192.786 255.305 192.566 255.106 192.284 254.967C192.002 254.824 191.674 254.753 191.3 254.753C190.919 254.753 190.585 254.824 190.3 254.967C190.015 255.106 189.795 255.305 189.639 255.563C189.483 255.818 189.407 256.118 189.411 256.463C189.407 256.814 189.485 257.121 189.644 257.383C189.807 257.645 190.03 257.848 190.315 257.994C190.6 258.14 190.929 258.213 191.3 258.213Z" fill="black"/>
<path d="M419.634 253.818V264H418.401V255.111H418.341L415.855 256.761V255.509L418.401 253.818H419.634ZM425.823 264.139C425.14 264.139 424.537 264.018 424.013 263.776C423.493 263.531 423.087 263.195 422.795 262.767C422.504 262.336 422.36 261.846 422.363 261.295C422.36 260.865 422.444 260.467 422.616 260.102C422.789 259.734 423.024 259.428 423.322 259.183C423.624 258.934 423.96 258.777 424.332 258.71V258.651C423.844 258.525 423.457 258.251 423.168 257.83C422.88 257.406 422.737 256.924 422.741 256.384C422.737 255.866 422.868 255.404 423.134 254.996C423.399 254.589 423.763 254.267 424.227 254.032C424.695 253.797 425.227 253.679 425.823 253.679C426.413 253.679 426.94 253.797 427.404 254.032C427.868 254.267 428.233 254.589 428.498 254.996C428.766 255.404 428.902 255.866 428.906 256.384C428.902 256.924 428.755 257.406 428.463 257.83C428.175 258.251 427.792 258.525 427.315 258.651V258.71C427.683 258.777 428.014 258.934 428.309 259.183C428.604 259.428 428.839 259.734 429.015 260.102C429.191 260.467 429.28 260.865 429.283 261.295C429.28 261.846 429.131 262.336 428.836 262.767C428.544 263.195 428.138 263.531 427.618 263.776C427.101 264.018 426.503 264.139 425.823 264.139ZM425.823 263.045C426.284 263.045 426.682 262.971 427.016 262.822C427.351 262.673 427.61 262.462 427.792 262.19C427.974 261.919 428.067 261.6 428.07 261.236C428.067 260.851 427.968 260.512 427.772 260.217C427.576 259.922 427.31 259.69 426.972 259.521C426.637 259.352 426.254 259.267 425.823 259.267C425.389 259.267 425.001 259.352 424.66 259.521C424.322 259.69 424.055 259.922 423.859 260.217C423.667 260.512 423.573 260.851 423.576 261.236C423.573 261.6 423.661 261.919 423.839 262.19C424.022 262.462 424.282 262.673 424.62 262.822C424.958 262.971 425.359 263.045 425.823 263.045ZM425.823 258.213C426.188 258.213 426.511 258.14 426.793 257.994C427.078 257.848 427.301 257.645 427.464 257.383C427.626 257.121 427.709 256.814 427.712 256.463C427.709 256.118 427.628 255.818 427.469 255.563C427.31 255.305 427.089 255.106 426.808 254.967C426.526 254.824 426.198 254.753 425.823 254.753C425.442 254.753 425.109 254.824 424.824 254.967C424.539 255.106 424.318 255.305 424.163 255.563C424.007 255.818 423.931 256.118 423.934 256.463C423.931 256.814 424.009 257.121 424.168 257.383C424.33 257.645 424.554 257.848 424.839 257.994C425.124 258.14 425.452 258.213 425.823 258.213ZM434.45 264.139C433.767 264.139 433.164 264.018 432.64 263.776C432.12 263.531 431.714 263.195 431.422 262.767C431.131 262.336 430.987 261.846 430.99 261.295C430.987 260.865 431.071 260.467 431.243 260.102C431.416 259.734 431.651 259.428 431.949 259.183C432.251 258.934 432.587 258.777 432.959 258.71V258.651C432.471 258.525 432.084 258.251 431.795 257.83C431.507 257.406 431.364 256.924 431.368 256.384C431.364 255.866 431.495 255.404 431.76 254.996C432.026 254.589 432.39 254.267 432.854 254.032C433.322 253.797 433.854 253.679 434.45 253.679C435.04 253.679 435.567 253.797 436.031 254.032C436.495 254.267 436.86 254.589 437.125 254.996C437.393 255.404 437.529 255.866 437.532 256.384C437.529 256.924 437.382 257.406 437.09 257.83C436.802 258.251 436.419 258.525 435.942 258.651V258.71C436.309 258.777 436.641 258.934 436.936 259.183C437.231 259.428 437.466 259.734 437.642 260.102C437.818 260.467 437.907 260.865 437.91 261.295C437.907 261.846 437.758 262.336 437.463 262.767C437.171 263.195 436.765 263.531 436.245 263.776C435.728 264.018 435.13 264.139 434.45 264.139ZM434.45 263.045C434.911 263.045 435.309 262.971 435.643 262.822C435.978 262.673 436.237 262.462 436.419 262.19C436.601 261.919 436.694 261.6 436.697 261.236C436.694 260.851 436.595 260.512 436.399 260.217C436.203 259.922 435.937 259.69 435.599 259.521C435.264 259.352 434.881 259.267 434.45 259.267C434.016 259.267 433.628 259.352 433.287 259.521C432.949 259.69 432.682 259.922 432.486 260.217C432.294 260.512 432.2 260.851 432.203 261.236C432.2 261.6 432.287 261.919 432.466 262.19C432.649 262.462 432.909 262.673 433.247 262.822C433.585 262.971 433.986 263.045 434.45 263.045ZM434.45 258.213C434.815 258.213 435.138 258.14 435.42 257.994C435.705 257.848 435.928 257.645 436.091 257.383C436.253 257.121 436.336 256.814 436.339 256.463C436.336 256.118 436.255 255.818 436.096 255.563C435.937 255.305 435.716 255.106 435.434 254.967C435.153 254.824 434.825 254.753 434.45 254.753C434.069 254.753 433.736 254.824 433.451 254.967C433.166 255.106 432.945 255.305 432.79 255.563C432.634 255.818 432.558 256.118 432.561 256.463C432.558 256.814 432.635 257.121 432.795 257.383C432.957 257.645 433.181 257.848 433.466 257.994C433.751 258.14 434.079 258.213 434.45 258.213Z" fill="black"/>
<path d="M225.634 253.818V264H224.401V255.111H224.341L221.855 256.761V255.509L224.401 253.818H225.634ZM228.323 261.912V260.898L232.798 253.818H233.533V255.389H233.036L229.656 260.739V260.818H235.681V261.912H228.323ZM233.116 264V261.604V261.131V253.818H234.289V264H233.116ZM240.925 264.139C240.507 264.133 240.09 264.053 239.672 263.901C239.254 263.748 238.873 263.491 238.529 263.13C238.184 262.765 237.907 262.273 237.698 261.653C237.49 261.03 237.385 260.248 237.385 259.307C237.385 258.405 237.47 257.607 237.639 256.911C237.808 256.211 238.053 255.623 238.374 255.146C238.696 254.665 239.084 254.3 239.538 254.052C239.995 253.803 240.511 253.679 241.084 253.679C241.654 253.679 242.161 253.793 242.605 254.022C243.053 254.247 243.417 254.562 243.699 254.967C243.981 255.371 244.163 255.837 244.246 256.364H243.033C242.92 255.906 242.701 255.527 242.377 255.225C242.052 254.924 241.621 254.773 241.084 254.773C240.295 254.773 239.674 255.116 239.22 255.802C238.769 256.488 238.542 257.451 238.539 258.69H238.618C238.804 258.409 239.024 258.168 239.279 257.969C239.538 257.767 239.823 257.612 240.134 257.502C240.446 257.393 240.776 257.338 241.124 257.338C241.707 257.338 242.241 257.484 242.725 257.776C243.209 258.064 243.596 258.463 243.888 258.974C244.18 259.481 244.325 260.062 244.325 260.719C244.325 261.348 244.185 261.925 243.903 262.449C243.621 262.969 243.225 263.384 242.715 263.692C242.208 263.997 241.611 264.146 240.925 264.139ZM240.925 263.045C241.343 263.045 241.717 262.941 242.048 262.732C242.383 262.523 242.647 262.243 242.839 261.892C243.035 261.541 243.132 261.15 243.132 260.719C243.132 260.298 243.038 259.915 242.849 259.57C242.663 259.222 242.406 258.946 242.078 258.74C241.753 258.535 241.382 258.432 240.965 258.432C240.65 258.432 240.356 258.495 240.085 258.621C239.813 258.743 239.574 258.912 239.369 259.128C239.167 259.343 239.008 259.59 238.892 259.869C238.776 260.144 238.718 260.434 238.718 260.739C238.718 261.143 238.812 261.521 239.001 261.872C239.193 262.223 239.455 262.507 239.786 262.722C240.121 262.938 240.501 263.045 240.925 263.045Z" fill="black"/>
<path d="M468.634 253.818V264H467.401V255.111H467.341L464.855 256.761V255.509L467.401 253.818H468.634ZM474.803 253.679C475.221 253.682 475.638 253.762 476.056 253.918C476.474 254.073 476.855 254.332 477.2 254.693C477.544 255.051 477.821 255.54 478.03 256.16C478.239 256.78 478.343 257.557 478.343 258.491C478.343 259.396 478.257 260.2 478.085 260.903C477.915 261.602 477.67 262.192 477.349 262.673C477.031 263.153 476.643 263.518 476.185 263.766C475.731 264.015 475.218 264.139 474.644 264.139C474.074 264.139 473.565 264.027 473.118 263.801C472.674 263.572 472.309 263.256 472.024 262.852C471.742 262.444 471.562 261.972 471.482 261.435H472.695C472.805 261.902 473.022 262.288 473.347 262.593C473.675 262.895 474.107 263.045 474.644 263.045C475.43 263.045 476.049 262.702 476.504 262.016C476.961 261.33 477.19 260.361 477.19 259.108H477.11C476.924 259.386 476.704 259.627 476.449 259.829C476.194 260.031 475.91 260.187 475.599 260.296C475.287 260.406 474.956 260.46 474.604 260.46C474.021 260.46 473.486 260.316 472.999 260.028C472.515 259.736 472.127 259.337 471.835 258.83C471.547 258.319 471.403 257.736 471.403 257.08C471.403 256.456 471.542 255.886 471.82 255.369C472.102 254.849 472.496 254.435 473.004 254.126C473.514 253.818 474.114 253.669 474.803 253.679ZM474.803 254.773C474.386 254.773 474.009 254.877 473.675 255.086C473.343 255.291 473.08 255.57 472.884 255.921C472.692 256.269 472.596 256.655 472.596 257.08C472.596 257.504 472.689 257.89 472.874 258.238C473.063 258.583 473.32 258.858 473.645 259.063C473.973 259.265 474.346 259.366 474.763 259.366C475.078 259.366 475.372 259.305 475.643 259.183C475.915 259.057 476.152 258.886 476.354 258.67C476.56 258.452 476.721 258.205 476.837 257.93C476.953 257.651 477.011 257.361 477.011 257.06C477.011 256.662 476.915 256.289 476.722 255.941C476.533 255.593 476.272 255.311 475.937 255.096C475.605 254.88 475.228 254.773 474.803 254.773ZM480.343 264L484.897 254.991V254.912H479.647V253.818H486.17V254.972L481.635 264H480.343Z" fill="black"/>
<path d="M19.1293 279V278.041L22.7301 274.099C23.1527 273.638 23.5007 273.237 23.7741 272.896C24.0476 272.551 24.25 272.228 24.3814 271.926C24.5163 271.621 24.5838 271.301 24.5838 270.967C24.5838 270.584 24.4915 270.252 24.3068 269.971C24.1257 269.691 23.8771 269.474 23.5611 269.321C23.245 269.169 22.8899 269.092 22.4957 269.092C22.0767 269.092 21.7109 269.179 21.3984 269.353C21.0895 269.524 20.8498 269.763 20.6793 270.072C20.5124 270.381 20.429 270.744 20.429 271.159H19.1719C19.1719 270.52 19.3192 269.959 19.614 269.476C19.9087 268.993 20.31 268.616 20.8178 268.347C21.3292 268.077 21.9027 267.942 22.5384 267.942C23.1776 267.942 23.744 268.077 24.2376 268.347C24.7312 268.616 25.1183 268.98 25.3988 269.439C25.6793 269.897 25.8196 270.406 25.8196 270.967C25.8196 271.369 25.7468 271.761 25.6012 272.145C25.4592 272.525 25.2106 272.949 24.8555 273.418C24.5039 273.883 24.0156 274.451 23.3906 275.122L20.9403 277.743V277.828H26.0114V279H19.1293ZM31.7695 279.149C30.967 279.149 30.2834 278.931 29.7188 278.494C29.1541 278.054 28.7227 277.416 28.4244 276.582C28.1261 275.744 27.9769 274.732 27.9769 273.545C27.9769 272.366 28.1261 271.36 28.4244 270.525C28.7262 269.687 29.1594 269.048 29.7241 268.608C30.2923 268.164 30.9741 267.942 31.7695 267.942C32.565 267.942 33.245 268.164 33.8097 268.608C34.3778 269.048 34.8111 269.687 35.1094 270.525C35.4112 271.36 35.5621 272.366 35.5621 273.545C35.5621 274.732 35.413 275.744 35.1147 276.582C34.8164 277.416 34.3849 278.054 33.8203 278.494C33.2557 278.931 32.5721 279.149 31.7695 279.149ZM31.7695 277.977C32.565 277.977 33.1829 277.594 33.6232 276.827C34.0636 276.06 34.2837 274.966 34.2837 273.545C34.2837 272.601 34.1825 271.797 33.9801 271.132C33.7813 270.468 33.4936 269.962 33.1172 269.614C32.7443 269.266 32.2951 269.092 31.7695 269.092C30.9812 269.092 30.3651 269.481 29.9212 270.259C29.4773 271.033 29.2553 272.129 29.2553 273.545C29.2553 274.49 29.3548 275.293 29.5536 275.953C29.7525 276.614 30.0384 277.116 30.4112 277.461C30.7876 277.805 31.2404 277.977 31.7695 277.977ZM41.4215 268.091V279H40.1005V269.476H40.0366L37.3732 271.244V269.902L40.1005 268.091H41.4215ZM48.032 267.942C48.4794 267.945 48.9268 268.031 49.3743 268.197C49.8217 268.364 50.2301 268.641 50.5994 269.028C50.9688 269.412 51.2653 269.936 51.489 270.6C51.7127 271.264 51.8246 272.097 51.8246 273.098C51.8246 274.067 51.7322 274.929 51.5476 275.681C51.3665 276.431 51.1037 277.063 50.7592 277.578C50.4183 278.093 50.0028 278.483 49.5128 278.75C49.0263 279.016 48.4759 279.149 47.8615 279.149C47.2507 279.149 46.7056 279.028 46.2262 278.787C45.7504 278.542 45.3597 278.203 45.0543 277.77C44.7525 277.333 44.5589 276.827 44.4737 276.251H45.7734C45.8906 276.752 46.1232 277.166 46.4712 277.493C46.8228 277.816 47.2862 277.977 47.8615 277.977C48.7031 277.977 49.3672 277.61 49.8537 276.875C50.3438 276.14 50.5888 275.101 50.5888 273.759H50.5036C50.3047 274.057 50.0685 274.314 49.7951 274.531C49.5217 274.748 49.218 274.914 48.8842 275.032C48.5504 275.149 48.1953 275.207 47.8189 275.207C47.1939 275.207 46.6204 275.053 46.0984 274.744C45.5799 274.431 45.1644 274.004 44.8519 273.46C44.543 272.913 44.3885 272.288 44.3885 271.585C44.3885 270.918 44.5376 270.307 44.8359 269.753C45.1378 269.195 45.5604 268.751 46.1037 268.421C46.6506 268.091 47.2933 267.931 48.032 267.942ZM48.032 269.114C47.5845 269.114 47.1815 269.225 46.8228 269.449C46.4677 269.669 46.1854 269.968 45.9759 270.344C45.7699 270.717 45.6669 271.131 45.6669 271.585C45.6669 272.04 45.7663 272.453 45.9652 272.826C46.1676 273.196 46.4428 273.49 46.7908 273.711C47.1424 273.927 47.5419 274.036 47.9893 274.036C48.3267 274.036 48.641 273.97 48.9322 273.838C49.2234 273.703 49.4773 273.521 49.6939 273.29C49.9141 273.055 50.0863 272.791 50.2106 272.496C50.3349 272.198 50.397 271.887 50.397 271.564C50.397 271.138 50.294 270.738 50.0881 270.365C49.8857 269.993 49.6051 269.691 49.2464 269.46C48.8913 269.229 48.4865 269.114 48.032 269.114Z" fill="black"/>
<path d="M261.129 279V278.041L264.73 274.099C265.153 273.638 265.501 273.237 265.774 272.896C266.048 272.551 266.25 272.228 266.381 271.926C266.516 271.621 266.584 271.301 266.584 270.967C266.584 270.584 266.491 270.252 266.307 269.971C266.126 269.691 265.877 269.474 265.561 269.321C265.245 269.169 264.89 269.092 264.496 269.092C264.077 269.092 263.711 269.179 263.398 269.353C263.089 269.524 262.85 269.763 262.679 270.072C262.512 270.381 262.429 270.744 262.429 271.159H261.172C261.172 270.52 261.319 269.959 261.614 269.476C261.909 268.993 262.31 268.616 262.818 268.347C263.329 268.077 263.903 267.942 264.538 267.942C265.178 267.942 265.744 268.077 266.238 268.347C266.731 268.616 267.118 268.98 267.399 269.439C267.679 269.897 267.82 270.406 267.82 270.967C267.82 271.369 267.747 271.761 267.601 272.145C267.459 272.525 267.211 272.949 266.855 273.418C266.504 273.883 266.016 274.451 265.391 275.122L262.94 277.743V277.828H268.011V279H261.129ZM273.77 279.149C272.967 279.149 272.283 278.931 271.719 278.494C271.154 278.054 270.723 277.416 270.424 276.582C270.126 275.744 269.977 274.732 269.977 273.545C269.977 272.366 270.126 271.36 270.424 270.525C270.726 269.687 271.159 269.048 271.724 268.608C272.292 268.164 272.974 267.942 273.77 267.942C274.565 267.942 275.245 268.164 275.81 268.608C276.378 269.048 276.811 269.687 277.109 270.525C277.411 271.36 277.562 272.366 277.562 273.545C277.562 274.732 277.413 275.744 277.115 276.582C276.816 277.416 276.385 278.054 275.82 278.494C275.256 278.931 274.572 279.149 273.77 279.149ZM273.77 277.977C274.565 277.977 275.183 277.594 275.623 276.827C276.064 276.06 276.284 274.966 276.284 273.545C276.284 272.601 276.183 271.797 275.98 271.132C275.781 270.468 275.494 269.962 275.117 269.614C274.744 269.266 274.295 269.092 273.77 269.092C272.981 269.092 272.365 269.481 271.921 270.259C271.477 271.033 271.255 272.129 271.255 273.545C271.255 274.49 271.355 275.293 271.554 275.953C271.752 276.614 272.038 277.116 272.411 277.461C272.788 277.805 273.24 277.977 273.77 277.977ZM279.586 279V278.041L283.187 274.099C283.61 273.638 283.958 273.237 284.231 272.896C284.505 272.551 284.707 272.228 284.838 271.926C284.973 271.621 285.041 271.301 285.041 270.967C285.041 270.584 284.949 270.252 284.764 269.971C284.583 269.691 284.334 269.474 284.018 269.321C283.702 269.169 283.347 269.092 282.953 269.092C282.534 269.092 282.168 269.179 281.855 269.353C281.547 269.524 281.307 269.763 281.136 270.072C280.969 270.381 280.886 270.744 280.886 271.159H279.629C279.629 270.52 279.776 269.959 280.071 269.476C280.366 268.993 280.767 268.616 281.275 268.347C281.786 268.077 282.36 267.942 282.995 267.942C283.635 267.942 284.201 268.077 284.695 268.347C285.188 268.616 285.575 268.98 285.856 269.439C286.136 269.897 286.277 270.406 286.277 270.967C286.277 271.369 286.204 271.761 286.058 272.145C285.916 272.525 285.668 272.949 285.312 273.418C284.961 273.883 284.473 274.451 283.848 275.122L281.397 277.743V277.828H286.468V279H279.586ZM288.178 276.763V275.676L292.972 268.091H293.761V269.774H293.228L289.606 275.506V275.591H296.062V276.763H288.178ZM293.313 279V276.433V275.926V268.091H294.57V279H293.313Z" fill="black"/>
<path d="M66.1293 279V278.041L69.7301 274.099C70.1527 273.638 70.5007 273.237 70.7741 272.896C71.0476 272.551 71.25 272.228 71.3814 271.926C71.5163 271.621 71.5838 271.301 71.5838 270.967C71.5838 270.584 71.4915 270.252 71.3068 269.971C71.1257 269.691 70.8771 269.474 70.5611 269.321C70.245 269.169 69.8899 269.092 69.4957 269.092C69.0767 269.092 68.7109 269.179 68.3984 269.353C68.0895 269.524 67.8498 269.763 67.6793 270.072C67.5124 270.381 67.429 270.744 67.429 271.159H66.1719C66.1719 270.52 66.3192 269.959 66.614 269.476C66.9087 268.993 67.31 268.616 67.8178 268.347C68.3292 268.077 68.9027 267.942 69.5384 267.942C70.1776 267.942 70.744 268.077 71.2376 268.347C71.7312 268.616 72.1183 268.98 72.3988 269.439C72.6793 269.897 72.8196 270.406 72.8196 270.967C72.8196 271.369 72.7468 271.761 72.6012 272.145C72.4592 272.525 72.2106 272.949 71.8555 273.418C71.5039 273.883 71.0156 274.451 70.3906 275.122L67.9403 277.743V277.828H73.0114V279H66.1293ZM78.7695 279.149C77.967 279.149 77.2834 278.931 76.7188 278.494C76.1541 278.054 75.7227 277.416 75.4244 276.582C75.1261 275.744 74.9769 274.732 74.9769 273.545C74.9769 272.366 75.1261 271.36 75.4244 270.525C75.7262 269.687 76.1594 269.048 76.7241 268.608C77.2923 268.164 77.9741 267.942 78.7695 267.942C79.565 267.942 80.245 268.164 80.8097 268.608C81.3778 269.048 81.8111 269.687 82.1094 270.525C82.4112 271.36 82.5621 272.366 82.5621 273.545C82.5621 274.732 82.413 275.744 82.1147 276.582C81.8164 277.416 81.3849 278.054 80.8203 278.494C80.2557 278.931 79.5721 279.149 78.7695 279.149ZM78.7695 277.977C79.565 277.977 80.1829 277.594 80.6232 276.827C81.0636 276.06 81.2837 274.966 81.2837 273.545C81.2837 272.601 81.1825 271.797 80.9801 271.132C80.7813 270.468 80.4936 269.962 80.1172 269.614C79.7443 269.266 79.2951 269.092 78.7695 269.092C77.9812 269.092 77.3651 269.481 76.9212 270.259C76.4773 271.033 76.2553 272.129 76.2553 273.545C76.2553 274.49 76.3548 275.293 76.5536 275.953C76.7525 276.614 77.0384 277.116 77.4112 277.461C77.7876 277.805 78.2404 277.977 78.7695 277.977ZM84.5863 279V278.041L88.1871 274.099C88.6097 273.638 88.9577 273.237 89.2312 272.896C89.5046 272.551 89.707 272.228 89.8384 271.926C89.9734 271.621 90.0408 271.301 90.0408 270.967C90.0408 270.584 89.9485 270.252 89.7638 269.971C89.5827 269.691 89.3342 269.474 89.0181 269.321C88.7021 269.169 88.3469 269.092 87.9528 269.092C87.5337 269.092 87.168 269.179 86.8555 269.353C86.5465 269.524 86.3068 269.763 86.1364 270.072C85.9695 270.381 85.886 270.744 85.886 271.159H84.6289C84.6289 270.52 84.7763 269.959 85.071 269.476C85.3658 268.993 85.767 268.616 86.2749 268.347C86.7862 268.077 87.3597 267.942 87.9954 267.942C88.6346 267.942 89.201 268.077 89.6946 268.347C90.1882 268.616 90.5753 268.98 90.8558 269.439C91.1364 269.897 91.2766 270.406 91.2766 270.967C91.2766 271.369 91.2038 271.761 91.0582 272.145C90.9162 272.525 90.6676 272.949 90.3125 273.418C89.9609 273.883 89.4727 274.451 88.8477 275.122L86.3974 277.743V277.828H91.4684V279H84.5863ZM97.2266 279.149C96.424 279.149 95.7404 278.931 95.1758 278.494C94.6112 278.054 94.1797 277.416 93.8814 276.582C93.5831 275.744 93.4339 274.732 93.4339 273.545C93.4339 272.366 93.5831 271.36 93.8814 270.525C94.1832 269.687 94.6165 269.048 95.1811 268.608C95.7493 268.164 96.4311 267.942 97.2266 267.942C98.022 267.942 98.7021 268.164 99.2667 268.608C99.8349 269.048 100.268 269.687 100.566 270.525C100.868 271.36 101.019 272.366 101.019 273.545C101.019 274.732 100.87 275.744 100.572 276.582C100.273 277.416 99.842 278.054 99.2773 278.494C98.7127 278.931 98.0291 279.149 97.2266 279.149ZM97.2266 277.977C98.022 277.977 98.6399 277.594 99.0803 276.827C99.5206 276.06 99.7408 274.966 99.7408 273.545C99.7408 272.601 99.6396 271.797 99.4371 271.132C99.2383 270.468 98.9506 269.962 98.5742 269.614C98.2013 269.266 97.7521 269.092 97.2266 269.092C96.4382 269.092 95.8221 269.481 95.3782 270.259C94.9343 271.033 94.7124 272.129 94.7124 273.545C94.7124 274.49 94.8118 275.293 95.0107 275.953C95.2095 276.614 95.4954 277.116 95.8683 277.461C96.2447 277.805 96.6974 277.977 97.2266 277.977Z" fill="black"/>
<path d="M309.129 279V278.041L312.73 274.099C313.153 273.638 313.501 273.237 313.774 272.896C314.048 272.551 314.25 272.228 314.381 271.926C314.516 271.621 314.584 271.301 314.584 270.967C314.584 270.584 314.491 270.252 314.307 269.971C314.126 269.691 313.877 269.474 313.561 269.321C313.245 269.169 312.89 269.092 312.496 269.092C312.077 269.092 311.711 269.179 311.398 269.353C311.089 269.524 310.85 269.763 310.679 270.072C310.512 270.381 310.429 270.744 310.429 271.159H309.172C309.172 270.52 309.319 269.959 309.614 269.476C309.909 268.993 310.31 268.616 310.818 268.347C311.329 268.077 311.903 267.942 312.538 267.942C313.178 267.942 313.744 268.077 314.238 268.347C314.731 268.616 315.118 268.98 315.399 269.439C315.679 269.897 315.82 270.406 315.82 270.967C315.82 271.369 315.747 271.761 315.601 272.145C315.459 272.525 315.211 272.949 314.855 273.418C314.504 273.883 314.016 274.451 313.391 275.122L310.94 277.743V277.828H316.011V279H309.129ZM321.77 279.149C320.967 279.149 320.283 278.931 319.719 278.494C319.154 278.054 318.723 277.416 318.424 276.582C318.126 275.744 317.977 274.732 317.977 273.545C317.977 272.366 318.126 271.36 318.424 270.525C318.726 269.687 319.159 269.048 319.724 268.608C320.292 268.164 320.974 267.942 321.77 267.942C322.565 267.942 323.245 268.164 323.81 268.608C324.378 269.048 324.811 269.687 325.109 270.525C325.411 271.36 325.562 272.366 325.562 273.545C325.562 274.732 325.413 275.744 325.115 276.582C324.816 277.416 324.385 278.054 323.82 278.494C323.256 278.931 322.572 279.149 321.77 279.149ZM321.77 277.977C322.565 277.977 323.183 277.594 323.623 276.827C324.064 276.06 324.284 274.966 324.284 273.545C324.284 272.601 324.183 271.797 323.98 271.132C323.781 270.468 323.494 269.962 323.117 269.614C322.744 269.266 322.295 269.092 321.77 269.092C320.981 269.092 320.365 269.481 319.921 270.259C319.477 271.033 319.255 272.129 319.255 273.545C319.255 274.49 319.355 275.293 319.554 275.953C319.752 276.614 320.038 277.116 320.411 277.461C320.788 277.805 321.24 277.977 321.77 277.977ZM327.586 279V278.041L331.187 274.099C331.61 273.638 331.958 273.237 332.231 272.896C332.505 272.551 332.707 272.228 332.838 271.926C332.973 271.621 333.041 271.301 333.041 270.967C333.041 270.584 332.949 270.252 332.764 269.971C332.583 269.691 332.334 269.474 332.018 269.321C331.702 269.169 331.347 269.092 330.953 269.092C330.534 269.092 330.168 269.179 329.855 269.353C329.547 269.524 329.307 269.763 329.136 270.072C328.969 270.381 328.886 270.744 328.886 271.159H327.629C327.629 270.52 327.776 269.959 328.071 269.476C328.366 268.993 328.767 268.616 329.275 268.347C329.786 268.077 330.36 267.942 330.995 267.942C331.635 267.942 332.201 268.077 332.695 268.347C333.188 268.616 333.575 268.98 333.856 269.439C334.136 269.897 334.277 270.406 334.277 270.967C334.277 271.369 334.204 271.761 334.058 272.145C333.916 272.525 333.668 272.949 333.312 273.418C332.961 273.883 332.473 274.451 331.848 275.122L329.397 277.743V277.828H334.468V279H327.586ZM340.077 279.149C339.452 279.149 338.89 279.025 338.389 278.776C337.888 278.528 337.487 278.187 337.185 277.754C336.883 277.32 336.718 276.827 336.69 276.273H337.968C338.018 276.766 338.241 277.175 338.639 277.498C339.04 277.817 339.52 277.977 340.077 277.977C340.525 277.977 340.923 277.873 341.271 277.663C341.622 277.453 341.897 277.166 342.096 276.8C342.299 276.431 342.4 276.013 342.4 275.548C342.4 275.072 342.295 274.648 342.086 274.275C341.88 273.899 341.596 273.602 341.233 273.386C340.871 273.169 340.457 273.059 339.992 273.055C339.658 273.052 339.316 273.103 338.964 273.21C338.613 273.313 338.323 273.446 338.096 273.609L336.86 273.46L337.521 268.091H343.188V269.263H338.629L338.245 272.48H338.309C338.533 272.303 338.813 272.155 339.151 272.038C339.488 271.921 339.839 271.862 340.205 271.862C340.873 271.862 341.468 272.022 341.99 272.342C342.515 272.658 342.927 273.091 343.225 273.641C343.527 274.192 343.678 274.82 343.678 275.527C343.678 276.223 343.522 276.844 343.21 277.391C342.901 277.935 342.474 278.364 341.931 278.68C341.388 278.993 340.77 279.149 340.077 279.149Z" fill="black"/>
<path d="M115.129 279V278.041L118.73 274.099C119.153 273.638 119.501 273.237 119.774 272.896C120.048 272.551 120.25 272.228 120.381 271.926C120.516 271.621 120.584 271.301 120.584 270.967C120.584 270.584 120.491 270.252 120.307 269.971C120.126 269.691 119.877 269.474 119.561 269.321C119.245 269.169 118.89 269.092 118.496 269.092C118.077 269.092 117.711 269.179 117.398 269.353C117.089 269.524 116.85 269.763 116.679 270.072C116.512 270.381 116.429 270.744 116.429 271.159H115.172C115.172 270.52 115.319 269.959 115.614 269.476C115.909 268.993 116.31 268.616 116.818 268.347C117.329 268.077 117.903 267.942 118.538 267.942C119.178 267.942 119.744 268.077 120.238 268.347C120.731 268.616 121.118 268.98 121.399 269.439C121.679 269.897 121.82 270.406 121.82 270.967C121.82 271.369 121.747 271.761 121.601 272.145C121.459 272.525 121.211 272.949 120.855 273.418C120.504 273.883 120.016 274.451 119.391 275.122L116.94 277.743V277.828H122.011V279H115.129ZM127.77 279.149C126.967 279.149 126.283 278.931 125.719 278.494C125.154 278.054 124.723 277.416 124.424 276.582C124.126 275.744 123.977 274.732 123.977 273.545C123.977 272.366 124.126 271.36 124.424 270.525C124.726 269.687 125.159 269.048 125.724 268.608C126.292 268.164 126.974 267.942 127.77 267.942C128.565 267.942 129.245 268.164 129.81 268.608C130.378 269.048 130.811 269.687 131.109 270.525C131.411 271.36 131.562 272.366 131.562 273.545C131.562 274.732 131.413 275.744 131.115 276.582C130.816 277.416 130.385 278.054 129.82 278.494C129.256 278.931 128.572 279.149 127.77 279.149ZM127.77 277.977C128.565 277.977 129.183 277.594 129.623 276.827C130.064 276.06 130.284 274.966 130.284 273.545C130.284 272.601 130.183 271.797 129.98 271.132C129.781 270.468 129.494 269.962 129.117 269.614C128.744 269.266 128.295 269.092 127.77 269.092C126.981 269.092 126.365 269.481 125.921 270.259C125.477 271.033 125.255 272.129 125.255 273.545C125.255 274.49 125.355 275.293 125.554 275.953C125.752 276.614 126.038 277.116 126.411 277.461C126.788 277.805 127.24 277.977 127.77 277.977ZM133.586 279V278.041L137.187 274.099C137.61 273.638 137.958 273.237 138.231 272.896C138.505 272.551 138.707 272.228 138.838 271.926C138.973 271.621 139.041 271.301 139.041 270.967C139.041 270.584 138.949 270.252 138.764 269.971C138.583 269.691 138.334 269.474 138.018 269.321C137.702 269.169 137.347 269.092 136.953 269.092C136.534 269.092 136.168 269.179 135.855 269.353C135.547 269.524 135.307 269.763 135.136 270.072C134.969 270.381 134.886 270.744 134.886 271.159H133.629C133.629 270.52 133.776 269.959 134.071 269.476C134.366 268.993 134.767 268.616 135.275 268.347C135.786 268.077 136.36 267.942 136.995 267.942C137.635 267.942 138.201 268.077 138.695 268.347C139.188 268.616 139.575 268.98 139.856 269.439C140.136 269.897 140.277 270.406 140.277 270.967C140.277 271.369 140.204 271.761 140.058 272.145C139.916 272.525 139.668 272.949 139.312 273.418C138.961 273.883 138.473 274.451 137.848 275.122L135.397 277.743V277.828H140.468V279H133.586ZM146.504 268.091V279H145.183V269.476H145.119L142.455 271.244V269.902L145.183 268.091H146.504Z" fill="black"/>
<path d="M357.129 279V278.041L360.73 274.099C361.153 273.638 361.501 273.237 361.774 272.896C362.048 272.551 362.25 272.228 362.381 271.926C362.516 271.621 362.584 271.301 362.584 270.967C362.584 270.584 362.491 270.252 362.307 269.971C362.126 269.691 361.877 269.474 361.561 269.321C361.245 269.169 360.89 269.092 360.496 269.092C360.077 269.092 359.711 269.179 359.398 269.353C359.089 269.524 358.85 269.763 358.679 270.072C358.512 270.381 358.429 270.744 358.429 271.159H357.172C357.172 270.52 357.319 269.959 357.614 269.476C357.909 268.993 358.31 268.616 358.818 268.347C359.329 268.077 359.903 267.942 360.538 267.942C361.178 267.942 361.744 268.077 362.238 268.347C362.731 268.616 363.118 268.98 363.399 269.439C363.679 269.897 363.82 270.406 363.82 270.967C363.82 271.369 363.747 271.761 363.601 272.145C363.459 272.525 363.211 272.949 362.855 273.418C362.504 273.883 362.016 274.451 361.391 275.122L358.94 277.743V277.828H364.011V279H357.129ZM369.77 279.149C368.967 279.149 368.283 278.931 367.719 278.494C367.154 278.054 366.723 277.416 366.424 276.582C366.126 275.744 365.977 274.732 365.977 273.545C365.977 272.366 366.126 271.36 366.424 270.525C366.726 269.687 367.159 269.048 367.724 268.608C368.292 268.164 368.974 267.942 369.77 267.942C370.565 267.942 371.245 268.164 371.81 268.608C372.378 269.048 372.811 269.687 373.109 270.525C373.411 271.36 373.562 272.366 373.562 273.545C373.562 274.732 373.413 275.744 373.115 276.582C372.816 277.416 372.385 278.054 371.82 278.494C371.256 278.931 370.572 279.149 369.77 279.149ZM369.77 277.977C370.565 277.977 371.183 277.594 371.623 276.827C372.064 276.06 372.284 274.966 372.284 273.545C372.284 272.601 372.183 271.797 371.98 271.132C371.781 270.468 371.494 269.962 371.117 269.614C370.744 269.266 370.295 269.092 369.77 269.092C368.981 269.092 368.365 269.481 367.921 270.259C367.477 271.033 367.255 272.129 367.255 273.545C367.255 274.49 367.355 275.293 367.554 275.953C367.752 276.614 368.038 277.116 368.411 277.461C368.788 277.805 369.24 277.977 369.77 277.977ZM375.586 279V278.041L379.187 274.099C379.61 273.638 379.958 273.237 380.231 272.896C380.505 272.551 380.707 272.228 380.838 271.926C380.973 271.621 381.041 271.301 381.041 270.967C381.041 270.584 380.949 270.252 380.764 269.971C380.583 269.691 380.334 269.474 380.018 269.321C379.702 269.169 379.347 269.092 378.953 269.092C378.534 269.092 378.168 269.179 377.855 269.353C377.547 269.524 377.307 269.763 377.136 270.072C376.969 270.381 376.886 270.744 376.886 271.159H375.629C375.629 270.52 375.776 269.959 376.071 269.476C376.366 268.993 376.767 268.616 377.275 268.347C377.786 268.077 378.36 267.942 378.995 267.942C379.635 267.942 380.201 268.077 380.695 268.347C381.188 268.616 381.575 268.98 381.856 269.439C382.136 269.897 382.277 270.406 382.277 270.967C382.277 271.369 382.204 271.761 382.058 272.145C381.916 272.525 381.668 272.949 381.312 273.418C380.961 273.883 380.473 274.451 379.848 275.122L377.397 277.743V277.828H382.468V279H375.586ZM388.29 279.149C387.843 279.142 387.396 279.057 386.948 278.893C386.501 278.73 386.092 278.455 385.723 278.068C385.354 277.677 385.057 277.15 384.833 276.486C384.61 275.818 384.498 274.98 384.498 273.972C384.498 273.006 384.588 272.15 384.77 271.404C384.951 270.655 385.213 270.025 385.558 269.513C385.902 268.998 386.318 268.608 386.804 268.341C387.294 268.075 387.847 267.942 388.461 267.942C389.072 267.942 389.615 268.064 390.091 268.309C390.57 268.551 390.961 268.888 391.263 269.321C391.565 269.755 391.76 270.254 391.849 270.818H390.549C390.428 270.328 390.194 269.922 389.846 269.598C389.498 269.275 389.036 269.114 388.461 269.114C387.616 269.114 386.95 269.481 386.463 270.216C385.98 270.951 385.737 271.983 385.734 273.311H385.819C386.018 273.009 386.254 272.752 386.527 272.539C386.804 272.322 387.11 272.155 387.444 272.038C387.777 271.921 388.131 271.862 388.504 271.862C389.129 271.862 389.7 272.018 390.219 272.331C390.737 272.64 391.153 273.068 391.465 273.615C391.778 274.158 391.934 274.781 391.934 275.484C391.934 276.159 391.783 276.777 391.481 277.338C391.179 277.896 390.755 278.339 390.208 278.67C389.665 278.996 389.026 279.156 388.29 279.149ZM388.29 277.977C388.738 277.977 389.139 277.865 389.494 277.642C389.853 277.418 390.135 277.118 390.341 276.741C390.551 276.365 390.656 275.946 390.656 275.484C390.656 275.033 390.554 274.623 390.352 274.254C390.153 273.881 389.878 273.585 389.526 273.364C389.178 273.144 388.781 273.034 388.333 273.034C387.996 273.034 387.681 273.102 387.39 273.237C387.099 273.368 386.843 273.549 386.623 273.78C386.407 274.011 386.236 274.275 386.112 274.574C385.988 274.868 385.925 275.179 385.925 275.506C385.925 275.939 386.027 276.344 386.229 276.72C386.435 277.097 386.716 277.4 387.071 277.631C387.429 277.862 387.836 277.977 388.29 277.977Z" fill="black"/>
<path d="M163.129 279V278.041L166.73 274.099C167.153 273.638 167.501 273.237 167.774 272.896C168.048 272.551 168.25 272.228 168.381 271.926C168.516 271.621 168.584 271.301 168.584 270.967C168.584 270.584 168.491 270.252 168.307 269.971C168.126 269.691 167.877 269.474 167.561 269.321C167.245 269.169 166.89 269.092 166.496 269.092C166.077 269.092 165.711 269.179 165.398 269.353C165.089 269.524 164.85 269.763 164.679 270.072C164.512 270.381 164.429 270.744 164.429 271.159H163.172C163.172 270.52 163.319 269.959 163.614 269.476C163.909 268.993 164.31 268.616 164.818 268.347C165.329 268.077 165.903 267.942 166.538 267.942C167.178 267.942 167.744 268.077 168.238 268.347C168.731 268.616 169.118 268.98 169.399 269.439C169.679 269.897 169.82 270.406 169.82 270.967C169.82 271.369 169.747 271.761 169.601 272.145C169.459 272.525 169.211 272.949 168.855 273.418C168.504 273.883 168.016 274.451 167.391 275.122L164.94 277.743V277.828H170.011V279H163.129ZM175.77 279.149C174.967 279.149 174.283 278.931 173.719 278.494C173.154 278.054 172.723 277.416 172.424 276.582C172.126 275.744 171.977 274.732 171.977 273.545C171.977 272.366 172.126 271.36 172.424 270.525C172.726 269.687 173.159 269.048 173.724 268.608C174.292 268.164 174.974 267.942 175.77 267.942C176.565 267.942 177.245 268.164 177.81 268.608C178.378 269.048 178.811 269.687 179.109 270.525C179.411 271.36 179.562 272.366 179.562 273.545C179.562 274.732 179.413 275.744 179.115 276.582C178.816 277.416 178.385 278.054 177.82 278.494C177.256 278.931 176.572 279.149 175.77 279.149ZM175.77 277.977C176.565 277.977 177.183 277.594 177.623 276.827C178.064 276.06 178.284 274.966 178.284 273.545C178.284 272.601 178.183 271.797 177.98 271.132C177.781 270.468 177.494 269.962 177.117 269.614C176.744 269.266 176.295 269.092 175.77 269.092C174.981 269.092 174.365 269.481 173.921 270.259C173.477 271.033 173.255 272.129 173.255 273.545C173.255 274.49 173.355 275.293 173.554 275.953C173.752 276.614 174.038 277.116 174.411 277.461C174.788 277.805 175.24 277.977 175.77 277.977ZM181.586 279V278.041L185.187 274.099C185.61 273.638 185.958 273.237 186.231 272.896C186.505 272.551 186.707 272.228 186.838 271.926C186.973 271.621 187.041 271.301 187.041 270.967C187.041 270.584 186.949 270.252 186.764 269.971C186.583 269.691 186.334 269.474 186.018 269.321C185.702 269.169 185.347 269.092 184.953 269.092C184.534 269.092 184.168 269.179 183.855 269.353C183.547 269.524 183.307 269.763 183.136 270.072C182.969 270.381 182.886 270.744 182.886 271.159H181.629C181.629 270.52 181.776 269.959 182.071 269.476C182.366 268.993 182.767 268.616 183.275 268.347C183.786 268.077 184.36 267.942 184.995 267.942C185.635 267.942 186.201 268.077 186.695 268.347C187.188 268.616 187.575 268.98 187.856 269.439C188.136 269.897 188.277 270.406 188.277 270.967C188.277 271.369 188.204 271.761 188.058 272.145C187.916 272.525 187.668 272.949 187.312 273.418C186.961 273.883 186.473 274.451 185.848 275.122L183.397 277.743V277.828H188.468V279H181.586ZM190.668 279V278.041L194.269 274.099C194.692 273.638 195.04 273.237 195.313 272.896C195.587 272.551 195.789 272.228 195.92 271.926C196.055 271.621 196.123 271.301 196.123 270.967C196.123 270.584 196.031 270.252 195.846 269.971C195.665 269.691 195.416 269.474 195.1 269.321C194.784 269.169 194.429 269.092 194.035 269.092C193.616 269.092 193.25 269.179 192.938 269.353C192.629 269.524 192.389 269.763 192.218 270.072C192.051 270.381 191.968 270.744 191.968 271.159H190.711C190.711 270.52 190.858 269.959 191.153 269.476C191.448 268.993 191.849 268.616 192.357 268.347C192.868 268.077 193.442 267.942 194.077 267.942C194.717 267.942 195.283 268.077 195.777 268.347C196.27 268.616 196.657 268.98 196.938 269.439C197.218 269.897 197.359 270.406 197.359 270.967C197.359 271.369 197.286 271.761 197.14 272.145C196.998 272.525 196.75 272.949 196.395 273.418C196.043 273.883 195.555 274.451 194.93 275.122L192.479 277.743V277.828H197.55V279H190.668Z" fill="black"/>
<path d="M406.129 279V278.041L409.73 274.099C410.153 273.638 410.501 273.237 410.774 272.896C411.048 272.551 411.25 272.228 411.381 271.926C411.516 271.621 411.584 271.301 411.584 270.967C411.584 270.584 411.491 270.252 411.307 269.971C411.126 269.691 410.877 269.474 410.561 269.321C410.245 269.169 409.89 269.092 409.496 269.092C409.077 269.092 408.711 269.179 408.398 269.353C408.089 269.524 407.85 269.763 407.679 270.072C407.512 270.381 407.429 270.744 407.429 271.159H406.172C406.172 270.52 406.319 269.959 406.614 269.476C406.909 268.993 407.31 268.616 407.818 268.347C408.329 268.077 408.903 267.942 409.538 267.942C410.178 267.942 410.744 268.077 411.238 268.347C411.731 268.616 412.118 268.98 412.399 269.439C412.679 269.897 412.82 270.406 412.82 270.967C412.82 271.369 412.747 271.761 412.601 272.145C412.459 272.525 412.211 272.949 411.855 273.418C411.504 273.883 411.016 274.451 410.391 275.122L407.94 277.743V277.828H413.011V279H406.129ZM418.77 279.149C417.967 279.149 417.283 278.931 416.719 278.494C416.154 278.054 415.723 277.416 415.424 276.582C415.126 275.744 414.977 274.732 414.977 273.545C414.977 272.366 415.126 271.36 415.424 270.525C415.726 269.687 416.159 269.048 416.724 268.608C417.292 268.164 417.974 267.942 418.77 267.942C419.565 267.942 420.245 268.164 420.81 268.608C421.378 269.048 421.811 269.687 422.109 270.525C422.411 271.36 422.562 272.366 422.562 273.545C422.562 274.732 422.413 275.744 422.115 276.582C421.816 277.416 421.385 278.054 420.82 278.494C420.256 278.931 419.572 279.149 418.77 279.149ZM418.77 277.977C419.565 277.977 420.183 277.594 420.623 276.827C421.064 276.06 421.284 274.966 421.284 273.545C421.284 272.601 421.183 271.797 420.98 271.132C420.781 270.468 420.494 269.962 420.117 269.614C419.744 269.266 419.295 269.092 418.77 269.092C417.981 269.092 417.365 269.481 416.921 270.259C416.477 271.033 416.255 272.129 416.255 273.545C416.255 274.49 416.355 275.293 416.554 275.953C416.752 276.614 417.038 277.116 417.411 277.461C417.788 277.805 418.24 277.977 418.77 277.977ZM424.586 279V278.041L428.187 274.099C428.61 273.638 428.958 273.237 429.231 272.896C429.505 272.551 429.707 272.228 429.838 271.926C429.973 271.621 430.041 271.301 430.041 270.967C430.041 270.584 429.949 270.252 429.764 269.971C429.583 269.691 429.334 269.474 429.018 269.321C428.702 269.169 428.347 269.092 427.953 269.092C427.534 269.092 427.168 269.179 426.855 269.353C426.547 269.524 426.307 269.763 426.136 270.072C425.969 270.381 425.886 270.744 425.886 271.159H424.629C424.629 270.52 424.776 269.959 425.071 269.476C425.366 268.993 425.767 268.616 426.275 268.347C426.786 268.077 427.36 267.942 427.995 267.942C428.635 267.942 429.201 268.077 429.695 268.347C430.188 268.616 430.575 268.98 430.856 269.439C431.136 269.897 431.277 270.406 431.277 270.967C431.277 271.369 431.204 271.761 431.058 272.145C430.916 272.525 430.668 272.949 430.312 273.418C429.961 273.883 429.473 274.451 428.848 275.122L426.397 277.743V277.828H431.468V279H424.586ZM434.009 279L438.888 269.348V269.263H433.263V268.091H440.252V269.327L435.394 279H434.009Z" fill="black"/>
<path d="M212.129 279V278.041L215.73 274.099C216.153 273.638 216.501 273.237 216.774 272.896C217.048 272.551 217.25 272.228 217.381 271.926C217.516 271.621 217.584 271.301 217.584 270.967C217.584 270.584 217.491 270.252 217.307 269.971C217.126 269.691 216.877 269.474 216.561 269.321C216.245 269.169 215.89 269.092 215.496 269.092C215.077 269.092 214.711 269.179 214.398 269.353C214.089 269.524 213.85 269.763 213.679 270.072C213.512 270.381 213.429 270.744 213.429 271.159H212.172C212.172 270.52 212.319 269.959 212.614 269.476C212.909 268.993 213.31 268.616 213.818 268.347C214.329 268.077 214.903 267.942 215.538 267.942C216.178 267.942 216.744 268.077 217.238 268.347C217.731 268.616 218.118 268.98 218.399 269.439C218.679 269.897 218.82 270.406 218.82 270.967C218.82 271.369 218.747 271.761 218.601 272.145C218.459 272.525 218.211 272.949 217.855 273.418C217.504 273.883 217.016 274.451 216.391 275.122L213.94 277.743V277.828H219.011V279H212.129ZM224.77 279.149C223.967 279.149 223.283 278.931 222.719 278.494C222.154 278.054 221.723 277.416 221.424 276.582C221.126 275.744 220.977 274.732 220.977 273.545C220.977 272.366 221.126 271.36 221.424 270.525C221.726 269.687 222.159 269.048 222.724 268.608C223.292 268.164 223.974 267.942 224.77 267.942C225.565 267.942 226.245 268.164 226.81 268.608C227.378 269.048 227.811 269.687 228.109 270.525C228.411 271.36 228.562 272.366 228.562 273.545C228.562 274.732 228.413 275.744 228.115 276.582C227.816 277.416 227.385 278.054 226.82 278.494C226.256 278.931 225.572 279.149 224.77 279.149ZM224.77 277.977C225.565 277.977 226.183 277.594 226.623 276.827C227.064 276.06 227.284 274.966 227.284 273.545C227.284 272.601 227.183 271.797 226.98 271.132C226.781 270.468 226.494 269.962 226.117 269.614C225.744 269.266 225.295 269.092 224.77 269.092C223.981 269.092 223.365 269.481 222.921 270.259C222.477 271.033 222.255 272.129 222.255 273.545C222.255 274.49 222.355 275.293 222.554 275.953C222.752 276.614 223.038 277.116 223.411 277.461C223.788 277.805 224.24 277.977 224.77 277.977ZM230.586 279V278.041L234.187 274.099C234.61 273.638 234.958 273.237 235.231 272.896C235.505 272.551 235.707 272.228 235.838 271.926C235.973 271.621 236.041 271.301 236.041 270.967C236.041 270.584 235.949 270.252 235.764 269.971C235.583 269.691 235.334 269.474 235.018 269.321C234.702 269.169 234.347 269.092 233.953 269.092C233.534 269.092 233.168 269.179 232.855 269.353C232.547 269.524 232.307 269.763 232.136 270.072C231.969 270.381 231.886 270.744 231.886 271.159H230.629C230.629 270.52 230.776 269.959 231.071 269.476C231.366 268.993 231.767 268.616 232.275 268.347C232.786 268.077 233.36 267.942 233.995 267.942C234.635 267.942 235.201 268.077 235.695 268.347C236.188 268.616 236.575 268.98 236.856 269.439C237.136 269.897 237.277 270.406 237.277 270.967C237.277 271.369 237.204 271.761 237.058 272.145C236.916 272.525 236.668 272.949 236.312 273.418C235.961 273.883 235.473 274.451 234.848 275.122L232.397 277.743V277.828H237.468V279H230.586ZM243.354 279.149C242.651 279.149 242.025 279.028 241.474 278.787C240.927 278.545 240.492 278.21 240.169 277.78C239.849 277.347 239.675 276.844 239.647 276.273H240.989C241.018 276.624 241.138 276.928 241.352 277.184C241.565 277.436 241.843 277.631 242.188 277.77C242.532 277.908 242.914 277.977 243.333 277.977C243.802 277.977 244.217 277.896 244.58 277.732C244.942 277.569 245.226 277.342 245.432 277.05C245.638 276.759 245.741 276.422 245.741 276.038C245.741 275.637 245.641 275.284 245.442 274.978C245.244 274.669 244.952 274.428 244.569 274.254C244.185 274.08 243.717 273.993 243.163 273.993H242.289V272.821H243.163C243.596 272.821 243.976 272.743 244.303 272.587C244.633 272.43 244.89 272.21 245.075 271.926C245.263 271.642 245.357 271.308 245.357 270.925C245.357 270.555 245.276 270.234 245.112 269.961C244.949 269.687 244.718 269.474 244.42 269.321C244.125 269.169 243.777 269.092 243.376 269.092C242.999 269.092 242.644 269.162 242.31 269.3C241.98 269.435 241.71 269.632 241.501 269.891C241.291 270.147 241.178 270.456 241.16 270.818H239.881C239.903 270.246 240.075 269.746 240.398 269.316C240.721 268.883 241.144 268.545 241.666 268.304C242.191 268.062 242.768 267.942 243.397 267.942C244.072 267.942 244.651 268.078 245.134 268.352C245.616 268.622 245.988 268.979 246.247 269.423C246.506 269.866 246.636 270.346 246.636 270.861C246.636 271.475 246.474 271.999 246.151 272.432C245.831 272.865 245.396 273.165 244.846 273.332V273.418C245.535 273.531 246.073 273.824 246.46 274.297C246.847 274.765 247.04 275.346 247.04 276.038C247.04 276.631 246.879 277.164 246.556 277.636C246.236 278.105 245.799 278.474 245.245 278.744C244.691 279.014 244.061 279.149 243.354 279.149Z" fill="black"/>
<path d="M455.129 279V278.041L458.73 274.099C459.153 273.638 459.501 273.237 459.774 272.896C460.048 272.551 460.25 272.228 460.381 271.926C460.516 271.621 460.584 271.301 460.584 270.967C460.584 270.584 460.491 270.252 460.307 269.971C460.126 269.691 459.877 269.474 459.561 269.321C459.245 269.169 458.89 269.092 458.496 269.092C458.077 269.092 457.711 269.179 457.398 269.353C457.089 269.524 456.85 269.763 456.679 270.072C456.512 270.381 456.429 270.744 456.429 271.159H455.172C455.172 270.52 455.319 269.959 455.614 269.476C455.909 268.993 456.31 268.616 456.818 268.347C457.329 268.077 457.903 267.942 458.538 267.942C459.178 267.942 459.744 268.077 460.238 268.347C460.731 268.616 461.118 268.98 461.399 269.439C461.679 269.897 461.82 270.406 461.82 270.967C461.82 271.369 461.747 271.761 461.601 272.145C461.459 272.525 461.211 272.949 460.855 273.418C460.504 273.883 460.016 274.451 459.391 275.122L456.94 277.743V277.828H462.011V279H455.129ZM467.77 279.149C466.967 279.149 466.283 278.931 465.719 278.494C465.154 278.054 464.723 277.416 464.424 276.582C464.126 275.744 463.977 274.732 463.977 273.545C463.977 272.366 464.126 271.36 464.424 270.525C464.726 269.687 465.159 269.048 465.724 268.608C466.292 268.164 466.974 267.942 467.77 267.942C468.565 267.942 469.245 268.164 469.81 268.608C470.378 269.048 470.811 269.687 471.109 270.525C471.411 271.36 471.562 272.366 471.562 273.545C471.562 274.732 471.413 275.744 471.115 276.582C470.816 277.416 470.385 278.054 469.82 278.494C469.256 278.931 468.572 279.149 467.77 279.149ZM467.77 277.977C468.565 277.977 469.183 277.594 469.623 276.827C470.064 276.06 470.284 274.966 470.284 273.545C470.284 272.601 470.183 271.797 469.98 271.132C469.781 270.468 469.494 269.962 469.117 269.614C468.744 269.266 468.295 269.092 467.77 269.092C466.981 269.092 466.365 269.481 465.921 270.259C465.477 271.033 465.255 272.129 465.255 273.545C465.255 274.49 465.355 275.293 465.554 275.953C465.752 276.614 466.038 277.116 466.411 277.461C466.788 277.805 467.24 277.977 467.77 277.977ZM473.586 279V278.041L477.187 274.099C477.61 273.638 477.958 273.237 478.231 272.896C478.505 272.551 478.707 272.228 478.838 271.926C478.973 271.621 479.041 271.301 479.041 270.967C479.041 270.584 478.949 270.252 478.764 269.971C478.583 269.691 478.334 269.474 478.018 269.321C477.702 269.169 477.347 269.092 476.953 269.092C476.534 269.092 476.168 269.179 475.855 269.353C475.547 269.524 475.307 269.763 475.136 270.072C474.969 270.381 474.886 270.744 474.886 271.159H473.629C473.629 270.52 473.776 269.959 474.071 269.476C474.366 268.993 474.767 268.616 475.275 268.347C475.786 268.077 476.36 267.942 476.995 267.942C477.635 267.942 478.201 268.077 478.695 268.347C479.188 268.616 479.575 268.98 479.856 269.439C480.136 269.897 480.277 270.406 480.277 270.967C480.277 271.369 480.204 271.761 480.058 272.145C479.916 272.525 479.668 272.949 479.312 273.418C478.961 273.883 478.473 274.451 477.848 275.122L475.397 277.743V277.828H480.468V279H473.586ZM486.163 279.149C485.431 279.149 484.785 279.02 484.224 278.76C483.666 278.498 483.231 278.137 482.919 277.679C482.606 277.217 482.452 276.692 482.455 276.102C482.452 275.641 482.542 275.214 482.727 274.824C482.912 274.43 483.164 274.101 483.483 273.838C483.806 273.572 484.167 273.403 484.565 273.332V273.268C484.043 273.134 483.627 272.841 483.318 272.39C483.009 271.935 482.857 271.418 482.86 270.839C482.857 270.286 482.997 269.79 483.281 269.353C483.565 268.917 483.956 268.572 484.453 268.32C484.953 268.068 485.523 267.942 486.163 267.942C486.795 267.942 487.359 268.068 487.857 268.32C488.354 268.572 488.744 268.917 489.028 269.353C489.316 269.79 489.462 270.286 489.465 270.839C489.462 271.418 489.304 271.935 488.991 272.39C488.682 272.841 488.272 273.134 487.761 273.268V273.332C488.155 273.403 488.51 273.572 488.826 273.838C489.142 274.101 489.394 274.43 489.582 274.824C489.771 275.214 489.866 275.641 489.87 276.102C489.866 276.692 489.707 277.217 489.391 277.679C489.078 278.137 488.643 278.498 488.086 278.76C487.532 279.02 486.891 279.149 486.163 279.149ZM486.163 277.977C486.656 277.977 487.082 277.897 487.441 277.738C487.8 277.578 488.077 277.352 488.272 277.061C488.467 276.77 488.567 276.429 488.57 276.038C488.567 275.626 488.46 275.262 488.251 274.946C488.041 274.63 487.755 274.382 487.393 274.201C487.034 274.02 486.624 273.929 486.163 273.929C485.697 273.929 485.282 274.02 484.916 274.201C484.554 274.382 484.268 274.63 484.059 274.946C483.853 275.262 483.751 275.626 483.755 276.038C483.751 276.429 483.846 276.77 484.037 277.061C484.233 277.352 484.511 277.578 484.874 277.738C485.236 277.897 485.665 277.977 486.163 277.977ZM486.163 272.8C486.553 272.8 486.9 272.722 487.201 272.565C487.507 272.409 487.746 272.191 487.92 271.91C488.094 271.63 488.183 271.301 488.187 270.925C488.183 270.555 488.096 270.234 487.926 269.961C487.755 269.684 487.519 269.471 487.217 269.321C486.915 269.169 486.564 269.092 486.163 269.092C485.754 269.092 485.397 269.169 485.092 269.321C484.787 269.471 484.55 269.684 484.384 269.961C484.217 270.234 484.135 270.555 484.138 270.925C484.135 271.301 484.218 271.63 484.389 271.91C484.563 272.191 484.803 272.409 485.108 272.565C485.413 272.722 485.765 272.8 486.163 272.8Z" fill="black"/>
<line x1="35.5" y1="250" x2="35.5" y2="70" stroke="#CECECE"/>
<line x1="83.5" y1="250" x2="83.5" y2="70" stroke="#CECECE"/>
<line x1="131.5" y1="250" x2="131.5" y2="70" stroke="#CECECE"/>
<line x1="180.5" y1="250" x2="180.5" y2="70" stroke="#CECECE"/>
<line x1="229.5" y1="250" x2="229.5" y2="70" stroke="#CECECE"/>
<line x1="278.5" y1="250" x2="278.5" y2="70" stroke="#CECECE"/>
<line x1="326.5" y1="250" x2="326.5" y2="70" stroke="#CECECE"/>
<line x1="374.5" y1="250" x2="374.5" y2="70" stroke="#CECECE"/>
<line x1="423.5" y1="250" x2="423.5" y2="70" stroke="#CECECE"/>
<line x1="472.5" y1="250" x2="472.5" y2="70" stroke="#CECECE"/>
<path d="M34.5 242L83.5 201.5L131.5 182.5L180.5 172.5L229.5 151.5L278.5 140L326.5 138L374.5 129.5L423.5 122.5L473 114.5" stroke="#00D26A"/>
<circle cx="374.5" cy="129.5" r="6" stroke="#00D26A"/>
<circle cx="326.5" cy="137.5" r="6.5" fill="#00D26A"/>
<circle cx="278.5" cy="139.5" r="6.5" fill="#00D26A"/>
<circle cx="229.5" cy="151.5" r="6.5" fill="#00D26A"/>
<circle cx="180.5" cy="172.5" r="6.5" fill="#00D26A"/>
<circle cx="131.5" cy="182.5" r="6.5" fill="#00D26A"/>
<circle cx="83.5" cy="201.5" r="6.5" fill="#00D26A"/>
<circle cx="34.5" cy="241.5" r="6.5" fill="#00D26A"/>
<circle cx="423.5" cy="122.5" r="6" stroke="#00D26A"/>
<circle cx="472.5" cy="114.5" r="6" stroke="#00D26A"/>
</svg>
